<svg xmlns="http://www.w3.org/2000/svg" id="canvas" viewBox="144.152 375.319 563.489 103.679"><path d="M 171.22,425.31 C 170.90 426.83, 170.80 429.15, 170.73 432.89 C 170.66 436.64, 170.73 439.38, 170.87 444.04 C 171.02 448.70, 171.17 451.84, 171.45 456.19 C 171.72 460.54, 171.83 462.51, 172.24 465.80 C 172.65 469.08, 172.98 470.63, 173.49 472.62 C 173.99 474.61, 174.46 475.17, 174.78 475.77 C 175.10 476.36, 175.01 475.62, 175.06 475.60 C 175.12 475.58, 174.93 475.65, 175.04 475.65 C 175.14 475.65, 175.50 476.30, 175.59 475.62 C 175.67 474.94, 175.72 474.26, 175.46 472.24 C 175.20 470.22, 174.71 468.77, 174.28 465.54 C 173.85 462.30, 173.62 460.37, 173.31 456.06 C 173.00 451.75, 172.86 448.62, 172.71 443.98 C 172.57 439.35, 172.65 436.62, 172.57 432.89 C 172.49 429.16, 172.58 426.85, 172.31 425.33 C 172.04 423.82, 171.54 423.80, 171.22 425.31" style="stroke: black; fill: black;"/><path d="M 148.38,405.91 C 149.45 404.69, 150.67 402.15, 152.73 399.19 C 154.79 396.23, 155.99 394.16, 158.68 391.12 C 161.38 388.08, 163.24 386.08, 166.21 383.99 C 169.18 381.91, 170.64 381.32, 173.52 380.71 C 176.40 380.09, 177.87 380.45, 180.61 380.91 C 183.35 381.37, 184.78 381.76, 187.24 383.00 C 189.70 384.24, 191.00 385.19, 192.92 387.12 C 194.85 389.05, 195.70 390.42, 196.86 392.65 C 198.02 394.87, 198.50 395.92, 198.71 398.24 C 198.91 400.55, 198.76 401.76, 197.88 404.22 C 197.00 406.68, 196.11 408.04, 194.30 410.52 C 192.49 413.01, 191.11 414.41, 188.83 416.63 C 186.55 418.85, 185.09 419.77, 182.89 421.63 C 180.69 423.50, 179.36 424.32, 177.84 425.95 C 176.32 427.57, 175.69 428.40, 175.28 429.76 C 174.88 431.13, 175.02 431.55, 175.82 432.78 C 176.62 434.01, 177.42 434.62, 179.27 435.91 C 181.11 437.21, 182.45 437.85, 185.04 439.24 C 187.63 440.63, 189.26 441.23, 192.22 442.86 C 195.17 444.49, 196.85 445.48, 199.83 447.40 C 202.82 449.32, 204.32 450.40, 207.14 452.48 C 209.95 454.55, 211.23 455.66, 213.90 457.78 C 216.56 459.90, 217.87 461.12, 220.46 463.06 C 223.04 465.00, 224.40 465.99, 226.81 467.48 C 229.22 468.97, 230.31 469.56, 232.49 470.51 C 234.67 471.46, 235.71 471.84, 237.70 472.23 C 239.68 472.61, 240.65 472.60, 242.41 472.42 C 244.17 472.24, 244.93 471.93, 246.50 471.31 C 248.08 470.69, 248.84 470.30, 250.29 469.31 C 251.74 468.33, 252.34 467.78, 253.75 466.39 C 255.16 465.00, 255.83 464.19, 257.33 462.37 C 258.83 460.55, 259.72 459.53, 261.25 457.29 C 262.77 455.05, 263.61 453.70, 264.96 451.18 C 266.32 448.66, 267.12 447.15, 268.00 444.71 C 268.88 442.28, 269.19 440.95, 269.36 439.00 C 269.54 437.05, 269.49 436.22, 268.87 434.96 C 268.25 433.70, 267.59 433.16, 266.25 432.69 C 264.91 432.23, 263.90 432.08, 262.17 432.64 C 260.45 433.20, 259.35 433.84, 257.62 435.50 C 255.89 437.15, 254.90 438.46, 253.52 440.92 C 252.14 443.38, 251.32 444.97, 250.71 447.79 C 250.11 450.61, 249.97 452.29, 250.50 455.02 C 251.03 457.75, 251.53 459.21, 253.36 461.43 C 255.18 463.66, 256.54 464.61, 259.63 466.13 C 262.73 467.66, 264.92 468.27, 268.83 469.06 C 272.74 469.85, 275.19 469.91, 279.18 470.08 C 283.16 470.25, 285.55 470.20, 288.77 469.92 C 291.99 469.64, 293.25 469.23, 295.26 468.68 C 297.28 468.14, 298.17 467.62, 298.85 467.18 C 299.53 466.74, 299.44 466.52, 298.66 466.48 C 297.87 466.44, 296.94 466.75, 294.93 466.99 C 292.92 467.23, 291.73 467.47, 288.60 467.68 C 285.46 467.89, 283.13 468.15, 279.25 468.02 C 275.38 467.89, 272.97 467.81, 269.24 467.04 C 265.51 466.27, 263.43 465.57, 260.61 464.16 C 257.79 462.75, 256.68 461.90, 255.12 459.99 C 253.57 458.08, 253.20 456.92, 252.84 454.61 C 252.49 452.30, 252.71 450.86, 253.36 448.42 C 254.01 445.98, 254.84 444.57, 256.10 442.39 C 257.36 440.21, 258.27 439.02, 259.66 437.52 C 261.06 436.01, 261.84 435.48, 263.06 434.86 C 264.28 434.24, 264.90 434.27, 265.76 434.42 C 266.63 434.57, 267.09 434.76, 267.37 435.61 C 267.66 436.45, 267.56 437.03, 267.18 438.66 C 266.81 440.29, 266.44 441.50, 265.50 443.74 C 264.56 445.97, 263.79 447.43, 262.48 449.83 C 261.16 452.22, 260.37 453.54, 258.91 455.71 C 257.46 457.88, 256.61 458.89, 255.21 460.68 C 253.82 462.46, 253.20 463.29, 251.94 464.62 C 250.69 465.96, 250.18 466.44, 248.92 467.36 C 247.66 468.27, 246.99 468.62, 245.64 469.20 C 244.29 469.78, 243.67 470.09, 242.17 470.26 C 240.67 470.44, 239.88 470.45, 238.13 470.08 C 236.38 469.72, 235.43 469.37, 233.42 468.44 C 231.41 467.51, 230.41 466.85, 228.08 465.42 C 225.75 463.98, 224.35 463.13, 221.77 461.28 C 219.19 459.42, 217.86 458.24, 215.18 456.15 C 212.50 454.06, 211.20 452.93, 208.36 450.82 C 205.53 448.72, 204.00 447.61, 201.01 445.61 C 198.02 443.60, 196.33 442.58, 193.42 440.79 C 190.51 439.00, 189.00 438.11, 186.45 436.67 C 183.90 435.24, 182.56 434.60, 180.68 433.61 C 178.80 432.62, 177.87 432.38, 177.06 431.72 C 176.26 431.06, 176.17 431.14, 176.65 430.31 C 177.13 429.49, 177.87 428.96, 179.44 427.61 C 181.02 426.27, 182.32 425.44, 184.53 423.58 C 186.75 421.73, 188.16 420.66, 190.51 418.33 C 192.85 416.00, 194.32 414.60, 196.25 411.94 C 198.18 409.28, 199.23 407.80, 200.17 405.02 C 201.12 402.24, 201.19 400.74, 200.96 398.04 C 200.73 395.35, 200.28 394.08, 199.02 391.55 C 197.76 389.01, 196.82 387.50, 194.67 385.37 C 192.52 383.24, 191.02 382.22, 188.27 380.90 C 185.52 379.58, 183.97 379.22, 180.94 378.79 C 177.90 378.35, 176.25 378.02, 173.08 378.74 C 169.91 379.46, 168.25 380.16, 165.08 382.37 C 161.90 384.59, 160.01 386.68, 157.22 389.83 C 154.43 392.98, 153.10 395.03, 151.13 398.13 C 149.16 401.23, 147.93 403.77, 147.38 405.33 C 146.83 406.89, 147.32 407.14, 148.38 405.91" style="stroke: black; fill: black;"/><path d="M 329.43,436.15 C 329.04 435.74, 328.57 435.39, 327.30 435.08 C 326.04 434.78, 325.08 434.40, 323.11 434.61 C 321.14 434.81, 319.70 434.98, 317.46 436.11 C 315.22 437.24, 313.93 438.16, 311.92 440.25 C 309.91 442.34, 308.76 443.85, 307.41 446.56 C 306.05 449.26, 305.44 450.93, 305.14 453.78 C 304.85 456.63, 304.92 458.31, 305.92 460.80 C 306.93 463.29, 307.90 464.51, 310.18 466.22 C 312.46 467.92, 314.04 468.56, 317.33 469.34 C 320.61 470.13, 322.69 470.22, 326.61 470.13 C 330.53 470.05, 332.85 469.67, 336.93 468.92 C 341.01 468.17, 343.25 467.65, 347.00 466.38 C 350.76 465.10, 352.70 464.33, 355.71 462.54 C 358.71 460.74, 360.07 459.68, 362.05 457.40 C 364.03 455.12, 364.69 453.67, 365.62 451.13 C 366.54 448.60, 366.63 447.04, 366.67 444.72 C 366.71 442.40, 366.46 440.90, 365.83 439.53 C 365.21 438.16, 364.35 437.58, 363.54 437.88 C 362.74 438.19, 362.24 439.27, 361.79 441.05 C 361.34 442.82, 361.05 444.21, 361.29 446.76 C 361.53 449.30, 361.93 451.22, 362.99 453.77 C 364.06 456.33, 364.92 457.60, 366.64 459.54 C 368.35 461.49, 369.48 462.30, 371.56 463.51 C 373.65 464.71, 374.82 465.03, 377.06 465.57 C 379.31 466.11, 380.56 466.26, 382.79 466.22 C 385.03 466.18, 386.20 465.94, 388.23 465.37 C 390.27 464.81, 391.09 464.45, 392.96 463.41 C 394.82 462.36, 395.87 461.83, 397.56 460.16 C 399.25 458.49, 400.17 457.37, 401.40 455.04 C 402.62 452.71, 403.04 450.99, 403.69 448.53 C 404.34 446.07, 404.45 444.40, 404.67 442.73 C 404.88 441.06, 404.65 440.37, 404.75 440.18 C 404.85 440.00, 404.75 440.49, 405.17 441.82 C 405.59 443.15, 405.81 444.55, 406.84 446.84 C 407.87 449.12, 408.73 450.88, 410.32 453.24 C 411.91 455.60, 412.93 456.68, 414.78 458.62 C 416.63 460.55, 417.59 461.41, 419.58 462.90 C 421.57 464.39, 422.71 465.24, 424.75 466.06 C 426.79 466.87, 427.94 467.01, 429.77 466.97 C 431.60 466.93, 432.68 466.48, 433.89 465.84 C 435.11 465.20, 435.55 464.32, 435.83 463.76 C 436.11 463.21, 435.83 463.00, 435.30 463.06 C 434.77 463.13, 434.27 463.77, 433.17 464.10 C 432.06 464.42, 431.28 464.73, 429.77 464.69 C 428.27 464.64, 427.40 464.62, 425.66 463.87 C 423.92 463.12, 422.86 462.34, 421.08 460.94 C 419.29 459.54, 418.33 458.74, 416.72 456.86 C 415.10 454.97, 414.39 453.82, 413.00 451.52 C 411.61 449.22, 410.98 447.50, 409.76 445.35 C 408.53 443.21, 407.94 441.98, 406.88 440.81 C 405.82 439.64, 405.34 439.24, 404.45 439.49 C 403.55 439.75, 403.15 440.45, 402.42 442.09 C 401.70 443.74, 401.53 445.38, 400.83 447.72 C 400.14 450.07, 399.95 451.67, 398.93 453.80 C 397.92 455.94, 397.19 456.89, 395.76 458.40 C 394.33 459.91, 393.42 460.41, 391.79 461.34 C 390.16 462.28, 389.42 462.59, 387.61 463.07 C 385.80 463.55, 384.75 463.71, 382.75 463.74 C 380.75 463.77, 379.62 463.67, 377.62 463.22 C 375.62 462.76, 374.56 462.53, 372.75 461.47 C 370.95 460.40, 369.98 459.66, 368.58 457.91 C 367.19 456.16, 366.59 455.00, 365.78 452.70 C 364.96 450.39, 364.83 448.67, 364.51 446.38 C 364.19 444.10, 364.29 442.87, 364.18 441.29 C 364.07 439.70, 363.98 438.71, 363.95 438.45 C 363.93 438.20, 364.00 438.75, 364.04 439.99 C 364.08 441.23, 364.28 442.55, 364.16 444.63 C 364.04 446.71, 364.21 448.11, 363.45 450.38 C 362.70 452.65, 362.14 453.89, 360.38 455.98 C 358.63 458.07, 357.47 459.11, 354.67 460.83 C 351.88 462.55, 350.01 463.35, 346.39 464.59 C 342.77 465.82, 340.55 466.33, 336.59 467.03 C 332.63 467.73, 330.33 468.06, 326.58 468.08 C 322.83 468.11, 320.86 467.90, 317.86 467.16 C 314.85 466.42, 313.52 465.80, 311.55 464.37 C 309.58 462.93, 308.78 462.04, 308.00 459.98 C 307.21 457.93, 307.26 456.53, 307.62 454.09 C 307.98 451.65, 308.54 450.17, 309.81 447.80 C 311.08 445.42, 312.18 444.06, 313.97 442.24 C 315.76 440.42, 316.86 439.66, 318.76 438.70 C 320.67 437.75, 321.82 437.74, 323.49 437.47 C 325.15 437.19, 325.93 437.39, 327.08 437.32 C 328.23 437.25, 328.76 437.36, 329.23 437.13 C 329.70 436.89, 329.81 436.56, 329.43 436.15" style="stroke: black; fill: black;"/><path d="M 439.02,450.86 C 438.83 451.73, 438.86 453.09, 439.20 454.92 C 439.54 456.75, 439.90 458.37, 440.73 460.02 C 441.56 461.68, 442.42 462.61, 443.35 463.18 C 444.29 463.74, 444.91 463.70, 445.39 462.85 C 445.88 462.00, 446.01 460.91, 445.78 458.94 C 445.55 456.97, 445.11 455.35, 444.22 452.98 C 443.34 450.62, 442.49 449.28, 441.37 447.11 C 440.25 444.94, 439.52 443.77, 438.62 442.13 C 437.71 440.50, 437.16 439.91, 436.85 438.96 C 436.55 438.01, 436.59 437.84, 437.10 437.38 C 437.62 436.92, 438.09 436.88, 439.41 436.64 C 440.73 436.41, 441.65 436.45, 443.70 436.23 C 445.75 436.01, 447.11 435.76, 449.68 435.56 C 452.25 435.36, 453.67 435.32, 456.55 435.22 C 459.43 435.11, 461.10 435.19, 464.09 435.03 C 467.09 434.87, 468.70 434.71, 471.53 434.42 C 474.36 434.13, 475.71 433.96, 478.24 433.58 C 480.77 433.20, 482.05 432.89, 484.19 432.51 C 486.32 432.12, 487.17 431.87, 488.90 431.65 C 490.64 431.43, 491.38 431.41, 492.85 431.41 C 494.33 431.41, 494.98 431.42, 496.26 431.67 C 497.54 431.93, 498.20 432.12, 499.25 432.70 C 500.30 433.28, 500.66 433.63, 501.50 434.59 C 502.35 435.56, 502.73 436.15, 503.49 437.53 C 504.25 438.91, 504.64 439.76, 505.29 441.50 C 505.95 443.25, 506.33 444.28, 506.76 446.24 C 507.20 448.21, 507.29 449.23, 507.46 451.32 C 507.63 453.40, 507.65 454.70, 507.61 456.68 C 507.57 458.65, 507.65 459.54, 507.24 461.21 C 506.83 462.89, 506.48 463.70, 505.56 465.05 C 504.63 466.40, 504.07 467.10, 502.62 467.97 C 501.17 468.84, 500.14 469.04, 498.30 469.38 C 496.47 469.73, 495.37 469.70, 493.44 469.70 C 491.51 469.70, 490.15 469.60, 488.65 469.37 C 487.15 469.14, 486.34 469.04, 485.94 468.55 C 485.54 468.05, 485.45 467.76, 486.65 466.89 C 487.85 466.02, 489.02 465.46, 491.95 464.20 C 494.88 462.93, 497.07 462.17, 501.29 460.57 C 505.52 458.98, 508.29 457.86, 513.09 456.21 C 517.89 454.56, 520.67 453.64, 525.30 452.34 C 529.93 451.04, 532.32 450.49, 536.23 449.71 C 540.14 448.93, 541.94 448.63, 544.87 448.44 C 547.79 448.24, 548.88 448.32, 550.84 448.72 C 552.80 449.12, 553.37 449.47, 554.66 450.44 C 555.95 451.41, 556.30 452.14, 557.31 453.57 C 558.32 455.00, 558.75 456.02, 559.72 457.60 C 560.68 459.18, 561.22 460.15, 562.15 461.49 C 563.09 462.83, 563.62 463.49, 564.39 464.29 C 565.16 465.09, 565.44 465.26, 566.01 465.50 C 566.58 465.73, 566.98 465.57, 567.24 465.45 C 567.51 465.33, 567.44 465.07, 567.34 464.89 C 567.23 464.71, 566.96 464.91, 566.72 464.54 C 566.48 464.17, 566.58 463.94, 566.12 463.04 C 565.65 462.13, 565.22 461.41, 564.40 460.03 C 563.58 458.65, 563.05 457.73, 562.00 456.14 C 560.95 454.56, 560.41 453.57, 559.16 452.12 C 557.91 450.66, 557.35 449.92, 555.76 448.87 C 554.18 447.82, 553.44 447.35, 551.23 446.86 C 549.03 446.38, 547.79 446.19, 544.72 446.42 C 541.65 446.66, 539.85 447.17, 535.88 448.05 C 531.91 448.92, 529.53 449.49, 524.87 450.81 C 520.21 452.13, 517.41 453.05, 512.56 454.63 C 507.72 456.21, 504.95 457.25, 500.63 458.71 C 496.31 460.16, 494.01 460.54, 490.94 461.90 C 487.88 463.25, 486.57 464.04, 485.32 465.50 C 484.08 466.96, 484.19 467.94, 484.73 469.20 C 485.26 470.45, 486.26 471.10, 488.00 471.76 C 489.74 472.41, 491.25 472.44, 493.42 472.47 C 495.59 472.50, 496.74 472.40, 498.84 471.92 C 500.93 471.43, 502.18 471.16, 503.91 470.05 C 505.64 468.94, 506.37 468.02, 507.49 466.37 C 508.61 464.72, 508.99 463.73, 509.52 461.81 C 510.06 459.89, 510.05 458.92, 510.17 456.78 C 510.29 454.64, 510.29 453.34, 510.14 451.12 C 509.99 448.89, 509.86 447.79, 509.41 445.67 C 508.95 443.55, 508.61 442.40, 507.88 440.51 C 507.14 438.63, 506.65 437.73, 505.73 436.23 C 504.80 434.72, 504.31 434.10, 503.24 432.99 C 502.17 431.88, 501.67 431.39, 500.37 430.68 C 499.06 429.96, 498.22 429.71, 496.71 429.41 C 495.21 429.12, 494.47 429.20, 492.85 429.21 C 491.24 429.21, 490.46 429.25, 488.64 429.44 C 486.83 429.63, 485.94 429.84, 483.79 430.18 C 481.64 430.52, 480.39 430.80, 477.89 431.14 C 475.38 431.47, 474.06 431.60, 471.28 431.87 C 468.50 432.14, 466.93 432.36, 463.97 432.48 C 461.01 432.61, 459.39 432.47, 456.49 432.49 C 453.59 432.52, 452.11 432.46, 449.47 432.62 C 446.83 432.78, 445.45 432.96, 443.30 433.31 C 441.15 433.67, 440.21 433.79, 438.73 434.40 C 437.26 435.01, 436.65 435.40, 435.93 436.37 C 435.21 437.34, 435.04 437.89, 435.12 439.25 C 435.21 440.61, 435.65 441.36, 436.36 443.18 C 437.06 445.01, 437.73 446.18, 438.65 448.38 C 439.58 450.59, 440.12 451.96, 440.98 454.21 C 441.84 456.46, 442.29 457.92, 442.95 459.63 C 443.61 461.33, 443.95 462.21, 444.28 462.72 C 444.61 463.24, 444.72 463.00, 444.59 462.21 C 444.47 461.42, 444.22 460.40, 443.66 458.78 C 443.11 457.17, 442.53 455.77, 441.82 454.13 C 441.11 452.49, 440.69 451.24, 440.13 450.59 C 439.57 449.93, 439.20 449.99, 439.02 450.86" style="stroke: black; fill: black;"/><path d="M 543.37,415.53 C 543.38 415.25, 542.84 415.24, 542.61 415.53 C 542.38 415.82, 542.17 416.41, 542.24 416.97 C 542.30 417.52, 542.39 418.07, 542.92 418.31 C 543.45 418.55, 544.31 418.62, 544.88 418.17 C 545.45 417.73, 545.88 416.82, 545.76 416.09 C 545.64 415.35, 544.86 414.66, 544.28 414.50 C 543.71 414.35, 543.26 414.92, 542.87 415.31 C 542.49 415.69, 542.43 416.09, 542.37 416.42 C 542.31 416.75, 542.37 417.14, 542.57 416.96 C 542.77 416.78, 543.37 415.82, 543.37 415.53" style="stroke: black; fill: black;"/><path d="M 605.03,438.32 C 604.78 437.97, 604.53 437.45, 603.54 437.39 C 602.55 437.33, 601.60 437.28, 600.07 438.02 C 598.53 438.75, 597.50 439.49, 595.86 441.07 C 594.22 442.65, 593.14 443.76, 591.86 445.92 C 590.58 448.08, 589.85 449.48, 589.45 451.87 C 589.05 454.26, 588.97 455.70, 589.85 457.86 C 590.74 460.02, 591.68 461.13, 593.88 462.67 C 596.09 464.21, 597.77 464.78, 600.88 465.57 C 603.98 466.37, 605.82 466.54, 609.41 466.66 C 612.99 466.78, 615.15 466.75, 618.80 466.18 C 622.44 465.61, 624.55 465.01, 627.64 463.81 C 630.73 462.61, 632.16 461.79, 634.26 460.17 C 636.35 458.55, 637.26 457.68, 638.13 455.72 C 639.00 453.76, 639.13 452.45, 638.62 450.37 C 638.11 448.29, 637.27 447.06, 635.60 445.30 C 633.93 443.55, 632.73 442.85, 630.26 441.60 C 627.78 440.35, 626.16 439.72, 623.22 439.07 C 620.27 438.42, 618.36 438.18, 615.54 438.34 C 612.72 438.50, 611.13 439.08, 609.11 439.85 C 607.09 440.62, 606.46 441.27, 605.45 442.20 C 604.43 443.14, 604.15 443.74, 604.03 444.52 C 603.91 445.30, 604.55 445.84, 604.84 446.10 C 605.13 446.36, 605.42 446.07, 605.48 445.82 C 605.54 445.56, 604.92 445.25, 605.13 444.82 C 605.35 444.39, 605.60 444.20, 606.55 443.66 C 607.49 443.11, 608.04 442.61, 609.86 442.10 C 611.68 441.58, 613.10 441.16, 615.65 441.09 C 618.21 441.02, 619.94 441.16, 622.63 441.75 C 625.31 442.34, 626.82 442.98, 629.07 444.04 C 631.32 445.10, 632.36 445.68, 633.87 447.05 C 635.38 448.43, 636.11 449.35, 636.61 450.93 C 637.12 452.50, 637.14 453.43, 636.40 454.92 C 635.67 456.41, 634.85 457.02, 632.93 458.38 C 631.01 459.74, 629.71 460.57, 626.82 461.71 C 623.92 462.84, 621.93 463.51, 618.46 464.05 C 615.00 464.59, 612.90 464.58, 609.50 464.41 C 606.11 464.23, 604.35 463.92, 601.50 463.17 C 598.65 462.42, 597.16 461.88, 595.23 460.66 C 593.30 459.43, 592.53 458.70, 591.86 457.04 C 591.20 455.39, 591.41 454.29, 591.90 452.39 C 592.40 450.48, 593.12 449.31, 594.36 447.51 C 595.59 445.71, 596.65 444.77, 598.09 443.39 C 599.53 442.01, 600.41 441.41, 601.55 440.61 C 602.70 439.81, 603.17 439.68, 603.82 439.38 C 604.47 439.09, 604.55 439.37, 604.79 439.16 C 605.03 438.94, 605.28 438.67, 605.03 438.32" style="stroke: black; fill: black;"/><path d="M 661.47,443.87 C 661.04 444.34, 660.74 445.01, 660.34 446.36 C 659.94 447.72, 659.71 448.82, 659.48 450.65 C 659.25 452.48, 659.08 453.64, 659.19 455.51 C 659.30 457.39, 659.54 458.49, 660.04 460.02 C 660.54 461.54, 660.84 462.37, 661.69 463.16 C 662.53 463.95, 663.24 464.13, 664.25 463.97 C 665.27 463.82, 665.85 463.39, 666.77 462.37 C 667.69 461.35, 667.99 460.51, 668.85 458.88 C 669.70 457.25, 670.10 456.09, 671.05 454.21 C 672.00 452.33, 672.39 451.16, 673.60 449.48 C 674.82 447.81, 675.63 446.95, 677.13 445.82 C 678.63 444.70, 679.55 444.19, 681.09 443.86 C 682.64 443.53, 683.30 443.60, 684.85 444.17 C 686.40 444.75, 687.28 445.38, 688.83 446.74 C 690.38 448.09, 691.21 449.01, 692.60 450.94 C 693.99 452.88, 694.55 454.21, 695.78 456.40 C 697.01 458.59, 697.68 459.91, 698.74 461.89 C 699.80 463.86, 700.36 464.76, 701.07 466.26 C 701.78 467.77, 701.86 468.47, 702.29 469.41 C 702.71 470.35, 702.85 470.57, 703.20 470.96 C 703.54 471.35, 703.72 471.32, 704.01 471.35 C 704.30 471.39, 704.57 471.31, 704.63 471.14 C 704.70 470.98, 704.43 470.61, 704.32 470.53 C 704.22 470.45, 704.11 470.76, 704.11 470.75 C 704.10 470.73, 704.29 470.86, 704.29 470.47 C 704.30 470.09, 704.33 469.84, 704.11 468.81 C 703.90 467.79, 703.83 466.98, 703.22 465.36 C 702.61 463.74, 702.08 462.76, 701.08 460.69 C 700.08 458.63, 699.47 457.33, 698.22 455.05 C 696.97 452.77, 696.38 451.36, 694.83 449.30 C 693.28 447.24, 692.33 446.19, 690.48 444.74 C 688.63 443.29, 687.53 442.64, 685.57 442.03 C 683.61 441.42, 682.65 441.33, 680.68 441.68 C 678.70 442.02, 677.53 442.53, 675.68 443.75 C 673.82 444.98, 672.87 445.99, 671.41 447.80 C 669.95 449.61, 669.43 450.84, 668.36 452.80 C 667.30 454.75, 666.81 455.92, 666.10 457.57 C 665.39 459.22, 665.26 460.05, 664.82 461.05 C 664.38 462.05, 664.23 462.37, 663.88 462.57 C 663.53 462.78, 663.34 462.70, 663.07 462.07 C 662.80 461.44, 662.71 460.75, 662.52 459.42 C 662.34 458.09, 662.15 457.12, 662.15 455.42 C 662.16 453.73, 662.41 452.70, 662.53 450.95 C 662.66 449.21, 662.78 448.09, 662.78 446.71 C 662.77 445.32, 662.75 444.61, 662.49 444.04 C 662.23 443.47, 661.90 443.41, 661.47 443.87" style="stroke: black; fill: black;"/></svg>