<svg xmlns="http://www.w3.org/2000/svg" id="canvas" viewBox="253.598 384.359 366.889 169.588"><path d="M 336.88,393.92 C 336.82 393.42, 336.43 392.95, 335.85 392.29 C 335.27 391.64, 334.92 391.30, 333.97 390.65 C 333.03 390.00, 332.45 389.57, 331.13 389.05 C 329.81 388.53, 329.07 388.36, 327.36 388.06 C 325.65 387.76, 324.69 387.69, 322.57 387.55 C 320.44 387.42, 319.25 387.29, 316.74 387.40 C 314.22 387.51, 312.81 387.57, 309.99 388.09 C 307.17 388.60, 305.61 389.11, 302.65 389.98 C 299.69 390.86, 298.13 391.28, 295.19 392.45 C 292.25 393.62, 290.67 394.38, 287.94 395.84 C 285.22 397.30, 283.89 398.08, 281.58 399.75 C 279.26 401.41, 278.15 402.24, 276.37 404.17 C 274.60 406.10, 273.74 407.27, 272.71 409.41 C 271.68 411.54, 271.34 412.70, 271.24 414.82 C 271.13 416.95, 271.34 418.02, 272.19 420.04 C 273.04 422.05, 273.72 423.06, 275.51 424.90 C 277.30 426.74, 278.45 427.57, 281.14 429.25 C 283.84 430.92, 285.54 431.76, 288.99 433.28 C 292.43 434.80, 294.38 435.48, 298.36 436.84 C 302.34 438.21, 304.58 438.73, 308.89 440.11 C 313.20 441.49, 315.63 442.21, 319.91 443.76 C 324.18 445.31, 326.45 446.20, 330.27 447.87 C 334.09 449.53, 335.90 450.36, 339.01 452.10 C 342.11 453.84, 343.58 454.78, 345.80 456.58 C 348.02 458.37, 348.93 459.31, 350.11 461.07 C 351.30 462.82, 351.53 463.62, 351.72 465.35 C 351.90 467.08, 351.76 467.91, 351.05 469.71 C 350.33 471.51, 349.71 472.53, 348.15 474.35 C 346.59 476.16, 345.57 477.05, 343.24 478.79 C 340.92 480.54, 339.57 481.45, 336.52 483.07 C 333.48 484.68, 331.72 485.48, 328.01 486.87 C 324.30 488.25, 322.28 488.96, 317.96 489.99 C 313.63 491.02, 311.09 491.44, 306.39 492.02 C 301.69 492.61, 299.09 492.79, 294.45 492.93 C 289.81 493.06, 287.41 493.06, 283.20 492.70 C 278.98 492.35, 276.82 492.10, 273.37 491.15 C 269.91 490.20, 268.48 489.24, 265.93 487.97 C 263.38 486.69, 262.33 485.90, 260.62 484.78 C 258.91 483.66, 258.14 482.73, 257.38 482.37 C 256.62 482.01, 256.38 482.20, 256.81 482.97 C 257.24 483.75, 257.90 484.85, 259.53 486.24 C 261.15 487.63, 262.27 488.59, 264.95 489.93 C 267.62 491.27, 269.28 492.05, 272.91 492.93 C 276.53 493.81, 278.75 494.03, 283.07 494.35 C 287.39 494.66, 289.80 494.65, 294.50 494.50 C 299.20 494.36, 301.81 494.18, 306.58 493.61 C 311.35 493.04, 313.92 492.64, 318.34 491.64 C 322.75 490.65, 324.81 489.97, 328.65 488.64 C 332.48 487.30, 334.28 486.55, 337.50 484.99 C 340.71 483.42, 342.19 482.61, 344.72 480.81 C 347.24 479.02, 348.44 478.08, 350.13 476.01 C 351.83 473.94, 352.48 472.65, 353.19 470.47 C 353.90 468.29, 353.96 467.23, 353.69 465.12 C 353.42 463.01, 353.16 461.97, 351.85 459.93 C 350.54 457.88, 349.54 456.78, 347.15 454.89 C 344.76 453.00, 343.14 452.18, 339.90 450.46 C 336.66 448.75, 334.82 447.95, 330.94 446.30 C 327.05 444.65, 324.78 443.77, 320.47 442.21 C 316.16 440.65, 313.71 439.93, 309.41 438.51 C 305.11 437.09, 302.89 436.54, 298.98 435.11 C 295.07 433.68, 293.17 432.95, 289.87 431.36 C 286.57 429.77, 284.99 428.80, 282.47 427.16 C 279.95 425.51, 278.92 424.75, 277.27 423.15 C 275.62 421.54, 275.00 420.77, 274.23 419.13 C 273.46 417.49, 273.30 416.68, 273.41 414.95 C 273.53 413.21, 273.86 412.27, 274.80 410.45 C 275.74 408.62, 276.49 407.54, 278.13 405.80 C 279.77 404.06, 280.83 403.32, 283.02 401.75 C 285.21 400.18, 286.47 399.36, 289.08 397.94 C 291.69 396.53, 293.22 395.78, 296.07 394.67 C 298.92 393.56, 300.45 393.17, 303.33 392.39 C 306.21 391.62, 307.76 391.24, 310.46 390.80 C 313.16 390.35, 314.46 390.26, 316.85 390.16 C 319.24 390.07, 320.39 390.21, 322.41 390.32 C 324.42 390.44, 325.37 390.47, 326.92 390.72 C 328.47 390.96, 329.04 391.11, 330.16 391.54 C 331.28 391.98, 331.66 392.37, 332.51 392.89 C 333.36 393.41, 333.66 393.76, 334.39 394.14 C 335.12 394.52, 335.66 394.85, 336.16 394.81 C 336.66 394.76, 336.95 394.42, 336.88 393.92" style="stroke: black; fill: black;"/><path d="M 361.69,391.09 C 361.41 391.78, 361.39 392.72, 361.30 394.48 C 361.21 396.25, 361.12 397.44, 361.25 399.91 C 361.38 402.38, 361.65 403.87, 361.95 406.83 C 362.25 409.80, 362.37 411.43, 362.77 414.75 C 363.17 418.08, 363.50 419.91, 363.96 423.46 C 364.41 427.00, 364.60 428.82, 365.04 432.50 C 365.48 436.18, 365.68 438.11, 366.15 441.86 C 366.61 445.60, 366.85 447.48, 367.37 451.22 C 367.88 454.95, 368.18 456.95, 368.73 460.52 C 369.28 464.08, 369.62 465.94, 370.12 469.03 C 370.63 472.12, 370.75 473.67, 371.25 475.98 C 371.76 478.28, 372.15 479.17, 372.65 480.56 C 373.15 481.96, 373.40 482.51, 373.76 482.96 C 374.11 483.40, 374.32 483.34, 374.42 482.78 C 374.51 482.23, 374.40 481.63, 374.22 480.19 C 374.03 478.74, 373.88 477.85, 373.51 475.55 C 373.13 473.24, 372.90 471.72, 372.35 468.64 C 371.79 465.57, 371.33 463.73, 370.72 460.19 C 370.10 456.65, 369.81 454.66, 369.27 450.95 C 368.74 447.23, 368.50 445.36, 368.05 441.62 C 367.60 437.89, 367.41 435.96, 367.01 432.27 C 366.61 428.59, 366.43 426.76, 366.04 423.21 C 365.65 419.66, 365.35 417.84, 365.07 414.52 C 364.80 411.20, 364.86 409.57, 364.67 406.61 C 364.48 403.65, 364.33 402.16, 364.12 399.71 C 363.91 397.26, 363.90 396.10, 363.62 394.36 C 363.35 392.62, 363.13 391.67, 362.74 391.01 C 362.36 390.36, 361.98 390.39, 361.69 391.09" style="stroke: black; fill: black;"/><path d="M 349.95,442.41 C 350.63 442.61, 351.47 442.45, 353.14 442.39 C 354.81 442.33, 355.85 442.29, 358.32 442.10 C 360.78 441.90, 362.57 441.60, 365.46 441.41 C 368.36 441.21, 369.90 441.21, 372.79 441.12 C 375.68 441.03, 377.26 440.96, 379.94 440.96 C 382.61 440.95, 383.95 441.09, 386.18 441.09 C 388.40 441.10, 389.47 441.05, 391.06 440.97 C 392.66 440.90, 393.18 440.86, 394.16 440.72 C 395.14 440.58, 395.62 440.51, 395.98 440.28 C 396.34 440.05, 396.34 439.80, 395.97 439.58 C 395.61 439.36, 395.15 439.33, 394.17 439.18 C 393.20 439.02, 392.68 438.91, 391.09 438.81 C 389.50 438.70, 388.45 438.74, 386.22 438.65 C 384.00 438.57, 382.65 438.42, 379.95 438.38 C 377.26 438.34, 375.67 438.44, 372.74 438.46 C 369.81 438.49, 368.25 438.36, 365.30 438.49 C 362.35 438.62, 360.50 438.77, 358.00 439.11 C 355.49 439.44, 354.44 439.71, 352.79 440.16 C 351.14 440.62, 350.32 440.94, 349.75 441.39 C 349.18 441.84, 349.28 442.21, 349.95 442.41" style="stroke: black; fill: black;"/><path d="M 397.86,440.03 C 397.60 440.47, 397.63 440.99, 397.56 442.09 C 397.49 443.19, 397.37 443.87, 397.51 445.53 C 397.65 447.18, 397.97 448.32, 398.26 450.36 C 398.54 452.39, 398.68 453.47, 398.93 455.70 C 399.18 457.94, 399.30 459.16, 399.51 461.53 C 399.72 463.90, 399.82 465.28, 399.98 467.55 C 400.14 469.82, 400.22 470.91, 400.32 472.88 C 400.43 474.84, 400.24 475.90, 400.50 477.38 C 400.77 478.87, 401.12 479.72, 401.64 480.29 C 402.15 480.85, 402.63 480.65, 403.08 480.21 C 403.54 479.76, 403.73 479.27, 403.91 478.05 C 404.10 476.83, 404.20 475.92, 404.00 474.10 C 403.79 472.29, 403.36 470.99, 402.87 468.97 C 402.38 466.95, 402.02 465.95, 401.56 464.02 C 401.09 462.10, 400.93 461.19, 400.55 459.34 C 400.16 457.50, 399.86 456.57, 399.65 454.78 C 399.43 452.99, 399.35 452.08, 399.47 450.40 C 399.59 448.72, 399.73 447.91, 400.24 446.38 C 400.76 444.86, 400.99 444.10, 402.05 442.78 C 403.12 441.46, 403.89 440.83, 405.57 439.77 C 407.26 438.72, 408.37 438.29, 410.49 437.51 C 412.60 436.72, 413.86 436.35, 416.15 435.84 C 418.43 435.34, 419.71 435.23, 421.90 435.00 C 424.09 434.76, 425.38 434.81, 427.10 434.66 C 428.81 434.52, 429.35 434.36, 430.48 434.27 C 431.60 434.18, 432.24 434.38, 432.71 434.21 C 433.19 434.04, 433.28 433.76, 432.85 433.44 C 432.42 433.11, 431.74 432.81, 430.58 432.57 C 429.42 432.34, 428.82 432.32, 427.03 432.27 C 425.24 432.23, 423.94 432.15, 421.65 432.33 C 419.36 432.52, 418.00 432.67, 415.57 433.20 C 413.15 433.72, 411.81 434.08, 409.52 434.96 C 407.24 435.84, 406.02 436.32, 404.15 437.58 C 402.27 438.85, 401.37 439.68, 400.14 441.28 C 398.91 442.89, 398.62 443.82, 398.00 445.61 C 397.37 447.39, 397.19 448.32, 397.02 450.21 C 396.86 452.10, 396.95 453.15, 397.17 455.07 C 397.39 456.99, 397.77 457.92, 398.13 459.82 C 398.48 461.72, 398.62 462.61, 398.96 464.56 C 399.30 466.51, 399.50 467.58, 399.82 469.59 C 400.15 471.60, 400.29 472.88, 400.60 474.60 C 400.91 476.32, 401.04 477.11, 401.35 478.19 C 401.66 479.27, 401.86 479.67, 402.16 480.02 C 402.45 480.36, 402.68 480.47, 402.82 479.90 C 402.97 479.33, 402.90 478.59, 402.90 477.17 C 402.90 475.74, 402.89 474.73, 402.84 472.77 C 402.78 470.82, 402.75 469.68, 402.63 467.38 C 402.51 465.09, 402.41 463.70, 402.23 461.31 C 402.04 458.92, 401.90 457.70, 401.70 455.43 C 401.51 453.16, 401.50 452.02, 401.24 449.96 C 400.99 447.91, 400.72 446.77, 400.42 445.14 C 400.13 443.52, 400.07 442.90, 399.76 441.85 C 399.46 440.80, 399.27 440.25, 398.89 439.88 C 398.51 439.52, 398.13 439.58, 397.86 440.03" style="stroke: black; fill: black;"/><path d="M 452.63,444.84 C 452.36 445.18, 452.33 445.53, 452.23 446.39 C 452.13 447.25, 452.14 447.81, 452.13 449.15 C 452.12 450.49, 452.09 451.42, 452.17 453.08 C 452.25 454.73, 452.40 455.61, 452.52 457.43 C 452.63 459.25, 452.62 460.26, 452.75 462.17 C 452.88 464.08, 452.92 465.09, 453.18 466.97 C 453.43 468.84, 453.64 469.85, 454.02 471.56 C 454.40 473.26, 454.66 474.24, 455.07 475.51 C 455.47 476.78, 455.68 477.17, 456.06 477.90 C 456.43 478.62, 456.57 478.91, 456.94 479.15 C 457.31 479.38, 457.71 479.18, 457.89 479.07 C 458.07 478.95, 457.89 478.67, 457.84 478.57 C 457.80 478.48, 457.65 478.84, 457.65 478.60 C 457.65 478.36, 457.89 478.12, 457.84 477.38 C 457.79 476.64, 457.65 476.18, 457.41 474.91 C 457.16 473.63, 456.93 472.67, 456.60 471.02 C 456.28 469.36, 456.01 468.42, 455.77 466.62 C 455.53 464.82, 455.51 463.88, 455.42 462.01 C 455.32 460.15, 455.34 459.11, 455.30 457.30 C 455.25 455.50, 455.22 454.64, 455.19 452.98 C 455.16 451.32, 455.30 450.37, 455.15 449.00 C 455.01 447.63, 454.76 446.98, 454.45 446.11 C 454.14 445.25, 453.95 444.95, 453.59 444.69 C 453.22 444.44, 452.90 444.50, 452.63 444.84" style="stroke: black; fill: black;"/><path d="M 452.67,412.26 C 452.93 412.38, 453.27 412.13, 453.23 411.85 C 453.19 411.56, 452.73 410.96, 452.47 410.84 C 452.21 410.72, 451.87 410.97, 451.92 411.25 C 451.96 411.54, 452.41 412.15, 452.67 412.26" style="stroke: black; fill: black;"/><path d="M 483.91,440.69 C 483.67 441.11, 483.72 441.63, 483.74 442.59 C 483.76 443.56, 483.81 444.06, 483.99 445.52 C 484.18 446.98, 484.39 447.99, 484.65 449.90 C 484.92 451.80, 485.03 452.93, 485.32 455.06 C 485.60 457.18, 485.83 458.35, 486.10 460.52 C 486.36 462.69, 486.49 463.90, 486.64 465.91 C 486.79 467.93, 486.74 468.94, 486.86 470.60 C 486.98 472.25, 486.86 473.17, 487.24 474.20 C 487.62 475.23, 488.13 475.74, 488.76 475.73 C 489.39 475.72, 489.78 475.23, 490.38 474.15 C 490.98 473.07, 491.28 472.18, 491.77 470.33 C 492.25 468.49, 492.42 467.16, 492.80 464.93 C 493.19 462.70, 493.18 461.39, 493.70 459.17 C 494.22 456.96, 494.51 455.92, 495.42 453.87 C 496.33 451.81, 496.95 450.74, 498.23 448.88 C 499.51 447.03, 500.28 446.09, 501.83 444.57 C 503.38 443.06, 504.17 442.39, 505.98 441.33 C 507.78 440.26, 508.86 439.85, 510.84 439.24 C 512.82 438.63, 513.90 438.40, 515.89 438.30 C 517.87 438.20, 518.82 438.30, 520.77 438.74 C 522.71 439.17, 523.79 439.57, 525.61 440.47 C 527.43 441.37, 528.31 441.86, 529.86 443.22 C 531.41 444.59, 532.08 445.48, 533.36 447.28 C 534.64 449.09, 535.21 450.20, 536.27 452.26 C 537.32 454.32, 537.76 455.41, 538.62 457.59 C 539.48 459.78, 539.85 460.94, 540.57 463.19 C 541.28 465.44, 541.41 466.76, 542.19 468.82 C 542.97 470.89, 543.48 471.99, 544.46 473.53 C 545.44 475.07, 546.40 476.04, 547.10 476.53 C 547.79 477.02, 548.07 476.79, 547.93 475.99 C 547.78 475.19, 547.04 474.13, 546.37 472.53 C 545.71 470.92, 545.27 470.00, 544.61 467.97 C 543.94 465.95, 543.76 464.67, 543.04 462.40 C 542.32 460.14, 541.90 458.91, 541.01 456.65 C 540.11 454.39, 539.69 453.25, 538.57 451.08 C 537.46 448.91, 536.86 447.73, 535.44 445.78 C 534.03 443.84, 533.25 442.86, 531.50 441.34 C 529.76 439.83, 528.75 439.23, 526.71 438.23 C 524.67 437.22, 523.49 436.80, 521.30 436.33 C 519.11 435.85, 518.01 435.75, 515.77 435.85 C 513.53 435.96, 512.32 436.18, 510.11 436.85 C 507.90 437.52, 506.73 438.02, 504.73 439.21 C 502.72 440.40, 501.81 441.14, 500.10 442.78 C 498.38 444.42, 497.53 445.42, 496.13 447.43 C 494.73 449.44, 494.11 450.61, 493.10 452.82 C 492.09 455.03, 491.75 456.17, 491.07 458.47 C 490.39 460.78, 490.21 462.09, 489.72 464.33 C 489.23 466.56, 488.93 467.82, 488.63 469.67 C 488.34 471.52, 488.24 472.45, 488.24 473.57 C 488.25 474.68, 488.50 475.17, 488.66 475.26 C 488.83 475.34, 488.93 474.93, 489.08 473.98 C 489.22 473.04, 489.33 472.18, 489.37 470.53 C 489.41 468.88, 489.38 467.80, 489.27 465.74 C 489.15 463.68, 489.03 462.43, 488.81 460.22 C 488.59 458.02, 488.39 456.87, 488.16 454.72 C 487.94 452.57, 487.96 451.42, 487.69 449.48 C 487.42 447.53, 487.19 446.46, 486.82 444.99 C 486.46 443.52, 486.24 443.05, 485.86 442.14 C 485.49 441.24, 485.32 440.76, 484.93 440.47 C 484.54 440.18, 484.14 440.26, 483.91 440.69" style="stroke: black; fill: black;"/><path d="M 588.79,454.42 C 589.16 453.89, 589.47 453.05, 589.51 451.73 C 589.54 450.42, 589.51 449.46, 588.98 447.85 C 588.45 446.24, 588.00 445.15, 586.87 443.69 C 585.73 442.23, 584.90 441.63, 583.31 440.56 C 581.71 439.48, 580.86 439.00, 578.90 438.30 C 576.93 437.60, 575.74 437.23, 573.50 437.06 C 571.27 436.90, 569.95 437.06, 567.70 437.49 C 565.46 437.92, 564.32 438.30, 562.27 439.23 C 560.21 440.16, 559.10 440.72, 557.42 442.14 C 555.73 443.56, 554.99 444.50, 553.84 446.32 C 552.70 448.15, 552.23 449.19, 551.69 451.27 C 551.14 453.36, 550.99 454.54, 551.13 456.73 C 551.27 458.92, 551.57 460.14, 552.40 462.21 C 553.23 464.28, 553.83 465.35, 555.28 467.09 C 556.73 468.83, 557.63 469.67, 559.65 470.91 C 561.67 472.15, 562.88 472.61, 565.39 473.30 C 567.91 473.99, 569.48 474.28, 572.21 474.35 C 574.95 474.43, 576.46 474.29, 579.08 473.69 C 581.69 473.09, 582.98 472.44, 585.28 471.34 C 587.57 470.24, 588.72 469.65, 590.56 468.20 C 592.40 466.74, 593.18 465.79, 594.46 464.05 C 595.75 462.31, 596.22 461.33, 596.97 459.50 C 597.71 457.68, 598.01 456.70, 598.18 454.92 C 598.36 453.13, 598.21 452.08, 597.85 450.57 C 597.50 449.07, 597.10 448.24, 596.40 447.39 C 595.70 446.53, 595.02 446.18, 594.35 446.30 C 593.67 446.42, 593.33 446.96, 593.03 447.98 C 592.72 449.00, 592.66 449.62, 592.83 451.38 C 593.01 453.14, 593.19 454.44, 593.90 456.79 C 594.61 459.13, 595.37 460.48, 596.38 463.10 C 597.39 465.72, 597.89 466.98, 598.96 469.88 C 600.03 472.78, 600.62 474.40, 601.75 477.59 C 602.87 480.79, 603.50 482.43, 604.60 485.85 C 605.69 489.27, 606.36 491.09, 607.22 494.69 C 608.08 498.29, 608.39 500.17, 608.88 503.87 C 609.38 507.56, 609.59 509.53, 609.69 513.16 C 609.79 516.78, 609.73 518.64, 609.39 522.00 C 609.04 525.35, 608.68 526.98, 607.96 529.92 C 607.23 532.86, 606.79 534.24, 605.74 536.69 C 604.70 539.14, 603.96 540.31, 602.73 542.17 C 601.49 544.03, 600.96 544.86, 599.58 546.00 C 598.21 547.13, 597.52 547.35, 595.85 547.84 C 594.17 548.33, 593.22 548.47, 591.22 548.46 C 589.22 548.46, 588.18 548.31, 585.85 547.82 C 583.52 547.33, 582.24 546.90, 579.58 546.01 C 576.92 545.11, 575.36 544.63, 572.56 543.35 C 569.75 542.07, 568.20 541.24, 565.56 539.61 C 562.93 537.98, 561.58 537.15, 559.37 535.20 C 557.17 533.26, 556.07 532.12, 554.52 529.88 C 552.97 527.63, 552.29 526.44, 551.64 523.99 C 550.99 521.53, 550.85 520.38, 551.29 517.63 C 551.73 514.87, 552.28 513.22, 553.82 510.19 C 555.37 507.17, 556.51 505.49, 559.01 502.50 C 561.51 499.51, 563.05 497.98, 566.31 495.25 C 569.57 492.52, 571.65 491.21, 575.31 488.86 C 578.98 486.50, 580.85 485.28, 584.63 483.48 C 588.41 481.68, 590.48 481.02, 594.21 479.86 C 597.94 478.70, 600.12 478.28, 603.29 477.68 C 606.46 477.08, 607.79 477.12, 610.06 476.84 C 612.33 476.56, 613.24 476.45, 614.65 476.29 C 616.05 476.13, 616.59 476.23, 617.09 476.04 C 617.59 475.86, 617.63 475.64, 617.14 475.38 C 616.65 475.12, 616.10 474.90, 614.64 474.76 C 613.18 474.62, 612.20 474.51, 609.85 474.69 C 607.50 474.86, 606.12 474.94, 602.88 475.63 C 599.64 476.32, 597.45 476.87, 593.65 478.13 C 589.86 479.39, 587.75 480.09, 583.90 481.95 C 580.05 483.82, 578.14 485.05, 574.40 487.44 C 570.66 489.82, 568.56 491.13, 565.19 493.89 C 561.82 496.66, 560.20 498.19, 557.55 501.26 C 554.90 504.32, 553.66 506.02, 551.96 509.22 C 550.26 512.42, 549.56 514.20, 549.05 517.26 C 548.55 520.33, 548.72 521.76, 549.42 524.56 C 550.12 527.35, 550.87 528.74, 552.56 531.22 C 554.24 533.70, 555.48 534.87, 557.83 536.95 C 560.19 539.03, 561.59 539.87, 564.32 541.60 C 567.06 543.32, 568.63 544.20, 571.51 545.58 C 574.39 546.97, 575.95 547.57, 578.72 548.53 C 581.48 549.50, 582.83 549.92, 585.34 550.40 C 587.85 550.88, 589.03 551.01, 591.27 550.92 C 593.51 550.83, 594.59 550.60, 596.52 549.95 C 598.45 549.29, 599.30 548.94, 600.92 547.65 C 602.55 546.36, 603.24 545.48, 604.64 543.48 C 606.05 541.47, 606.86 540.23, 607.95 537.62 C 609.04 535.01, 609.39 533.51, 610.09 530.43 C 610.78 527.34, 611.11 525.66, 611.42 522.19 C 611.73 518.73, 611.77 516.81, 611.64 513.10 C 611.52 509.38, 611.29 507.38, 610.79 503.61 C 610.29 499.84, 609.97 497.92, 609.13 494.24 C 608.28 490.57, 607.62 488.71, 606.56 485.24 C 605.50 481.77, 604.89 480.11, 603.83 476.88 C 602.77 473.65, 602.21 472.03, 601.26 469.08 C 600.32 466.13, 599.95 464.78, 599.09 462.13 C 598.22 459.49, 597.62 458.12, 596.94 455.87 C 596.27 453.62, 596.12 452.45, 595.72 450.88 C 595.32 449.31, 595.21 448.80, 594.95 448.02 C 594.69 447.25, 594.48 446.95, 594.41 447.02 C 594.34 447.08, 594.39 447.55, 594.60 448.37 C 594.81 449.18, 595.20 449.83, 595.44 451.09 C 595.68 452.36, 595.94 453.19, 595.81 454.69 C 595.67 456.19, 595.42 457.02, 594.77 458.60 C 594.12 460.19, 593.68 461.09, 592.54 462.63 C 591.40 464.17, 590.73 465.00, 589.07 466.29 C 587.40 467.58, 586.32 468.10, 584.21 469.08 C 582.10 470.05, 580.89 470.65, 578.51 471.17 C 576.13 471.69, 574.78 471.75, 572.30 471.67 C 569.81 471.59, 568.34 471.33, 566.06 470.76 C 563.79 470.18, 562.70 469.85, 560.93 468.80 C 559.15 467.75, 558.42 467.02, 557.18 465.51 C 555.95 464.01, 555.45 463.07, 554.74 461.27 C 554.03 459.48, 553.76 458.44, 553.62 456.56 C 553.49 454.68, 553.60 453.67, 554.05 451.89 C 554.51 450.10, 554.92 449.19, 555.91 447.62 C 556.90 446.05, 557.52 445.25, 558.99 444.04 C 560.47 442.82, 561.45 442.34, 563.29 441.55 C 565.13 440.76, 566.18 440.44, 568.19 440.07 C 570.19 439.70, 571.35 439.59, 573.32 439.72 C 575.29 439.85, 576.33 440.15, 578.04 440.73 C 579.75 441.32, 580.54 441.73, 581.87 442.66 C 583.20 443.58, 583.79 444.12, 584.68 445.34 C 585.56 446.57, 585.80 447.46, 586.30 448.78 C 586.79 450.11, 586.85 450.85, 587.13 451.97 C 587.41 453.09, 587.35 453.89, 587.68 454.38 C 588.02 454.88, 588.43 454.95, 588.79 454.42" style="stroke: black; fill: black;"/></svg>