<svg xmlns="http://www.w3.org/2000/svg" id="canvas" viewBox="305.582 362.425 372.620 152.976"><path d="M 368.82,383.97 C 368.57 385.49, 368.78 387.40, 368.59 391.57 C 368.39 395.75, 368.28 398.53, 367.85 404.85 C 367.41 411.17, 367.08 415.58, 366.41 423.19 C 365.74 430.79, 365.18 434.97, 364.48 442.89 C 363.77 450.81, 363.34 455.04, 362.88 462.77 C 362.43 470.50, 362.35 474.81, 362.20 481.53 C 362.05 488.25, 362.12 491.36, 362.12 496.38 C 362.13 501.39, 362.11 503.61, 362.23 506.61 C 362.35 509.62, 362.65 510.28, 362.71 511.40 C 362.78 512.52, 362.54 512.02, 362.55 512.20 C 362.55 512.39, 362.52 512.47, 362.74 512.33 C 362.96 512.18, 363.39 512.63, 363.64 511.48 C 363.90 510.33, 364.05 509.59, 364.01 506.57 C 363.96 503.54, 363.56 501.36, 363.41 496.36 C 363.26 491.35, 363.17 488.26, 363.26 481.55 C 363.35 474.85, 363.41 470.54, 363.84 462.83 C 364.28 455.11, 364.72 450.89, 365.45 442.98 C 366.19 435.07, 366.78 430.90, 367.52 423.29 C 368.26 415.68, 368.65 411.28, 369.17 404.95 C 369.68 398.62, 369.96 395.83, 370.09 391.63 C 370.22 387.44, 370.09 385.50, 369.84 383.97 C 369.58 382.43, 369.07 382.45, 368.82 383.97" style="stroke: black; fill: black;"/><path d="M 309.32,376.56 C 310.18 376.59, 310.89 376.42, 313.33 375.83 C 315.78 375.23, 317.25 374.50, 321.54 373.60 C 325.84 372.69, 328.80 372.18, 334.82 371.31 C 340.84 370.44, 344.66 370.00, 351.64 369.25 C 358.61 368.50, 362.39 368.08, 369.68 367.54 C 376.97 367.01, 380.87 366.73, 388.09 366.56 C 395.30 366.39, 399.10 366.44, 405.73 366.68 C 412.37 366.93, 415.85 367.18, 421.27 367.79 C 426.68 368.41, 429.18 369.06, 432.83 369.78 C 436.48 370.49, 438.12 371.19, 439.50 371.36 C 440.88 371.53, 440.99 371.21, 439.71 370.62 C 438.43 370.04, 436.77 369.26, 433.11 368.45 C 429.45 367.63, 426.87 367.12, 421.40 366.55 C 415.93 365.98, 412.44 365.80, 405.77 365.60 C 399.10 365.40, 395.29 365.36, 388.06 365.54 C 380.83 365.72, 376.91 365.99, 369.60 366.50 C 362.29 367.01, 358.51 367.41, 351.52 368.09 C 344.52 368.76, 340.70 369.15, 334.63 369.88 C 328.57 370.62, 325.56 370.98, 321.19 371.76 C 316.81 372.54, 315.19 373.01, 312.76 373.79 C 310.33 374.58, 309.71 375.13, 309.02 375.68 C 308.34 376.23, 308.46 376.53, 309.32 376.56" style="stroke: black; fill: black;"/><path d="M 444.03,457.44 C 443.77 458.67, 443.86 460.47, 443.81 463.50 C 443.75 466.52, 443.94 468.63, 443.76 472.56 C 443.58 476.50, 443.43 479.22, 442.90 483.16 C 442.38 487.10, 441.64 489.44, 441.13 492.26 C 440.62 495.09, 440.52 496.20, 440.34 497.27 C 440.17 498.34, 439.98 498.54, 440.25 497.60 C 440.53 496.66, 440.89 495.50, 441.72 492.56 C 442.55 489.63, 442.99 487.05, 444.40 482.93 C 445.81 478.80, 446.59 476.16, 448.78 471.94 C 450.97 467.72, 452.48 465.43, 455.36 461.83 C 458.24 458.23, 460.02 456.54, 463.17 453.95 C 466.31 451.36, 467.87 450.37, 471.09 448.88 C 474.32 447.38, 475.92 447.07, 479.29 446.46 C 482.65 445.85, 484.36 445.97, 487.91 445.84 C 491.46 445.71, 493.35 445.80, 497.04 445.81 C 500.73 445.83, 502.78 445.85, 506.37 445.92 C 509.95 446.00, 511.73 445.96, 514.97 446.18 C 518.20 446.40, 519.85 446.49, 522.55 447.02 C 525.25 447.55, 526.60 447.89, 528.47 448.85 C 530.34 449.81, 530.97 450.20, 531.88 451.81 C 532.79 453.42, 532.93 454.44, 533.01 456.91 C 533.10 459.39, 532.84 461.00, 532.32 464.18 C 531.81 467.36, 531.28 469.36, 530.45 472.81 C 529.63 476.26, 529.04 478.28, 528.20 481.41 C 527.36 484.54, 526.81 486.19, 526.24 488.46 C 525.67 490.72, 525.58 491.43, 525.34 492.73 C 525.09 494.04, 524.97 494.49, 525.02 494.98 C 525.07 495.47, 525.25 495.54, 525.59 495.18 C 525.94 494.82, 526.15 494.40, 526.73 493.18 C 527.30 491.97, 527.71 491.35, 528.47 489.12 C 529.22 486.89, 529.66 485.18, 530.50 482.03 C 531.34 478.87, 531.84 476.84, 532.68 473.35 C 533.53 469.86, 534.18 467.89, 534.73 464.57 C 535.29 461.26, 535.68 459.52, 535.46 456.77 C 535.23 454.01, 534.80 452.75, 533.60 450.80 C 532.41 448.84, 531.60 448.21, 529.49 446.99 C 527.37 445.77, 525.90 445.29, 523.02 444.70 C 520.14 444.12, 518.41 444.21, 515.09 444.05 C 511.77 443.89, 510.01 443.95, 506.40 443.90 C 502.79 443.86, 500.76 443.84, 497.04 443.84 C 493.33 443.84, 491.45 443.75, 487.83 443.91 C 484.21 444.07, 482.44 443.96, 478.94 444.64 C 475.45 445.31, 473.71 445.69, 470.35 447.30 C 466.98 448.91, 465.37 449.98, 462.12 452.69 C 458.87 455.39, 457.09 457.14, 454.11 460.82 C 451.14 464.51, 449.60 466.86, 447.25 471.13 C 444.90 475.40, 443.98 478.02, 442.37 482.18 C 440.75 486.35, 439.82 488.85, 439.19 491.95 C 438.55 495.05, 438.76 496.51, 439.19 497.68 C 439.62 498.85, 440.48 498.77, 441.35 497.79 C 442.23 496.82, 442.81 495.67, 443.56 492.80 C 444.30 489.93, 444.60 487.45, 445.07 483.43 C 445.54 479.40, 445.70 476.66, 445.89 472.66 C 446.08 468.67, 446.18 466.52, 446.02 463.46 C 445.86 460.40, 445.51 458.59, 445.11 457.38 C 444.72 456.18, 444.30 456.22, 444.03 457.44" style="stroke: black; fill: black;"/><path d="M 530.48,423.02 C 530.70 423.22, 530.55 423.17, 531.04 423.30 C 531.53 423.43, 532.42 423.97, 532.93 423.67 C 533.43 423.38, 533.92 422.42, 533.56 421.83 C 533.20 421.23, 531.84 420.62, 531.12 420.72 C 530.40 420.81, 530.06 421.82, 529.94 422.28 C 529.81 422.74, 530.26 422.81, 530.48 423.02" style="stroke: black; fill: black;"/><path d="M 572.94,468.14 C 573.58 468.44, 574.41 468.78, 576.12 468.64 C 577.84 468.50, 578.97 468.36, 581.52 467.43 C 584.07 466.49, 585.99 465.74, 588.86 463.97 C 591.72 462.20, 593.36 460.94, 595.84 458.58 C 598.33 456.22, 599.57 454.65, 601.28 452.17 C 602.99 449.69, 603.78 448.31, 604.41 446.16 C 605.04 444.00, 605.15 442.95, 604.43 441.40 C 603.70 439.85, 602.83 438.93, 600.80 438.42 C 598.76 437.90, 597.25 437.85, 594.25 438.83 C 591.26 439.82, 589.25 440.96, 585.80 443.35 C 582.35 445.74, 580.21 447.43, 577.00 450.79 C 573.78 454.15, 572.06 456.32, 569.73 460.16 C 567.40 464.00, 566.28 466.20, 565.33 469.99 C 564.38 473.79, 564.35 475.82, 564.96 479.13 C 565.58 482.45, 566.35 484.18, 568.41 486.58 C 570.46 488.99, 572.32 489.88, 575.24 491.16 C 578.16 492.44, 580.30 492.69, 583.01 492.97 C 585.73 493.26, 587.66 492.86, 588.83 492.57 C 590.00 492.29, 589.96 491.94, 588.87 491.56 C 587.78 491.17, 585.91 491.18, 583.36 490.67 C 580.82 490.15, 578.84 490.08, 576.16 488.99 C 573.48 487.90, 571.83 487.25, 569.97 485.20 C 568.11 483.16, 567.42 481.73, 566.84 478.78 C 566.25 475.82, 566.18 473.97, 567.05 470.42 C 567.92 466.88, 568.94 464.73, 571.19 461.05 C 573.44 457.38, 575.14 455.24, 578.30 452.05 C 581.45 448.86, 583.61 447.26, 586.97 445.10 C 590.32 442.94, 592.38 442.21, 595.08 441.25 C 597.77 440.30, 598.86 440.19, 600.44 440.34 C 602.03 440.49, 602.61 440.99, 603.01 442.02 C 603.40 443.04, 603.19 443.72, 602.44 445.46 C 601.68 447.20, 600.88 448.45, 599.23 450.72 C 597.58 452.99, 596.53 454.62, 594.18 456.81 C 591.83 458.99, 590.23 460.10, 587.48 461.66 C 584.73 463.23, 582.79 463.66, 580.43 464.63 C 578.08 465.60, 577.20 466.01, 575.70 466.52 C 574.20 467.02, 573.47 466.81, 572.92 467.13 C 572.36 467.46, 572.29 467.84, 572.94 468.14" style="stroke: black; fill: black;"/><path d="M 654.54,442.10 C 653.67 441.94, 652.58 441.86, 650.40 442.27 C 648.22 442.69, 646.63 443.07, 643.63 444.17 C 640.63 445.27, 638.28 446.01, 635.42 447.79 C 632.57 449.57, 630.81 450.95, 629.35 453.07 C 627.89 455.20, 627.52 456.42, 628.11 458.43 C 628.70 460.43, 629.56 461.30, 632.30 463.09 C 635.04 464.88, 637.51 465.68, 641.81 467.38 C 646.10 469.08, 649.24 469.92, 653.77 471.59 C 658.30 473.25, 660.89 474.05, 664.45 475.72 C 668.00 477.39, 669.65 478.42, 671.54 479.93 C 673.42 481.44, 674.10 481.96, 673.86 483.26 C 673.62 484.56, 672.70 484.92, 670.33 486.43 C 667.96 487.94, 666.15 488.98, 662.02 490.81 C 657.88 492.63, 654.83 493.79, 649.68 495.55 C 644.52 497.31, 640.82 498.23, 636.23 499.61 C 631.64 500.98, 628.57 501.67, 626.72 502.43 C 624.87 503.19, 625.00 503.67, 626.99 503.40 C 628.97 503.13, 632.00 502.30, 636.64 501.06 C 641.29 499.81, 644.99 498.86, 650.21 497.15 C 655.43 495.45, 658.49 494.33, 662.76 492.53 C 667.02 490.74, 669.06 490.00, 671.54 488.19 C 674.02 486.37, 674.90 485.39, 675.15 483.46 C 675.40 481.52, 674.77 480.39, 672.79 478.50 C 670.81 476.62, 668.91 475.77, 665.23 474.04 C 661.56 472.32, 658.94 471.58, 654.40 469.88 C 649.87 468.18, 646.74 467.27, 642.55 465.54 C 638.35 463.82, 636.04 462.76, 633.44 461.25 C 630.84 459.73, 630.02 459.33, 629.55 457.97 C 629.08 456.61, 629.63 456.01, 631.09 454.45 C 632.54 452.89, 634.13 451.70, 636.84 450.17 C 639.55 448.64, 641.80 447.94, 644.64 446.81 C 647.48 445.68, 649.00 445.26, 651.02 444.52 C 653.04 443.78, 654.03 443.58, 654.74 443.10 C 655.44 442.62, 655.40 442.27, 654.54 442.10" style="stroke: black; fill: black;"/></svg>