<svg xmlns="http://www.w3.org/2000/svg" id="canvas" viewBox="263.700 358.234 488.607 207.904"><path d="M 314.51,373.72 C 313.95 374.83, 313.76 376.31, 313.20 379.42 C 312.64 382.54, 312.57 384.68, 311.72 389.31 C 310.86 393.94, 310.32 397.05, 308.91 402.59 C 307.51 408.12, 306.62 411.03, 304.70 416.99 C 302.78 422.95, 301.57 426.20, 299.32 432.39 C 297.07 438.59, 295.89 441.76, 293.43 447.96 C 290.97 454.17, 289.64 457.31, 287.03 463.43 C 284.42 469.54, 282.88 472.71, 280.39 478.53 C 277.89 484.34, 276.64 487.29, 274.57 492.51 C 272.50 497.73, 271.55 500.43, 270.04 504.62 C 268.52 508.82, 267.56 510.82, 266.99 513.48 C 266.41 516.15, 266.82 516.81, 267.17 517.94 C 267.51 519.07, 268.17 519.13, 268.70 519.12 C 269.23 519.11, 269.79 518.25, 269.81 517.89 C 269.83 517.53, 269.05 517.20, 268.80 517.32 C 268.55 517.44, 268.57 518.39, 268.56 518.50 C 268.55 518.61, 268.52 518.73, 268.77 517.86 C 269.01 517.00, 269.12 516.67, 269.79 514.16 C 270.47 511.65, 270.86 509.53, 272.15 505.33 C 273.45 501.13, 274.33 498.40, 276.28 493.17 C 278.23 487.93, 279.47 485.00, 281.91 479.17 C 284.36 473.35, 285.89 470.17, 288.49 464.05 C 291.09 457.92, 292.43 454.77, 294.91 448.55 C 297.38 442.33, 298.56 439.16, 300.86 432.96 C 303.16 426.76, 304.39 423.52, 306.41 417.55 C 308.43 411.59, 309.40 408.68, 310.96 403.13 C 312.52 397.59, 313.20 394.48, 314.22 389.82 C 315.25 385.16, 315.73 383.03, 316.08 379.84 C 316.44 376.65, 316.30 375.10, 315.99 373.87 C 315.67 372.65, 315.07 372.61, 314.51 373.72" style="stroke: white; fill: white;"/><path d="M 336.32,362.09 C 335.82 363.23, 335.73 364.86, 335.37 367.85 C 335.01 370.85, 334.82 372.75, 334.51 377.08 C 334.20 381.42, 334.03 384.27, 333.82 389.53 C 333.62 394.78, 333.60 397.68, 333.47 403.36 C 333.34 409.04, 333.07 411.98, 333.18 417.92 C 333.29 423.86, 333.56 427.02, 334.04 433.06 C 334.52 439.10, 334.95 442.26, 335.57 448.12 C 336.18 453.98, 336.42 456.85, 337.11 462.35 C 337.81 467.86, 338.31 470.63, 339.04 475.64 C 339.78 480.65, 340.20 483.12, 340.80 487.41 C 341.40 491.69, 341.47 493.81, 342.05 497.05 C 342.63 500.28, 343.11 501.65, 343.70 503.59 C 344.30 505.52, 344.57 506.14, 345.02 506.73 C 345.46 507.32, 345.74 507.28, 345.94 506.55 C 346.14 505.83, 346.21 505.12, 346.00 503.12 C 345.79 501.11, 345.46 499.75, 344.87 496.54 C 344.29 493.32, 343.85 491.28, 343.08 487.04 C 342.31 482.80, 341.85 480.32, 341.03 475.33 C 340.20 470.35, 339.68 467.59, 338.95 462.11 C 338.21 456.63, 337.97 453.77, 337.34 447.93 C 336.71 442.09, 336.28 438.93, 335.81 432.92 C 335.34 426.91, 335.07 423.79, 335.00 417.89 C 334.93 411.99, 335.22 409.07, 335.45 403.42 C 335.68 397.77, 335.78 394.87, 336.13 389.65 C 336.49 384.43, 336.77 381.63, 337.23 377.33 C 337.69 373.02, 338.32 371.14, 338.45 368.10 C 338.58 365.07, 338.29 363.34, 337.86 362.14 C 337.43 360.93, 336.81 360.95, 336.32 362.09" style="stroke: white; fill: white;"/><path d="M 293.35,451.97 C 294.02 452.42, 294.80 452.62, 296.68 452.77 C 298.56 452.93, 299.73 453.05, 302.76 452.74 C 305.78 452.43, 307.90 451.95, 311.81 451.22 C 315.71 450.48, 318.01 449.96, 322.27 449.06 C 326.53 448.16, 328.76 447.59, 333.11 446.72 C 337.45 445.86, 339.76 445.47, 343.98 444.73 C 348.20 443.99, 350.43 443.65, 354.20 443.01 C 357.97 442.37, 359.92 442.22, 362.83 441.53 C 365.74 440.84, 367.62 440.23, 368.75 439.57 C 369.89 438.92, 369.78 438.42, 368.49 438.25 C 367.20 438.08, 365.26 438.32, 362.31 438.74 C 359.35 439.15, 357.47 439.62, 353.72 440.33 C 349.97 441.04, 347.76 441.49, 343.54 442.28 C 339.32 443.07, 336.99 443.47, 332.63 444.29 C 328.28 445.12, 326.03 445.66, 321.76 446.40 C 317.50 447.15, 315.20 447.56, 311.31 448.03 C 307.43 448.50, 305.30 448.43, 302.34 448.75 C 299.38 449.07, 298.31 449.26, 296.51 449.62 C 294.70 449.97, 293.96 450.06, 293.33 450.53 C 292.69 451.00, 292.68 451.52, 293.35 451.97" style="stroke: white; fill: white;"/><path d="M 404.79,441.49 C 404.29 442.41, 404.05 443.68, 403.80 446.15 C 403.54 448.61, 403.64 450.14, 403.53 453.81 C 403.42 457.48, 403.49 460.16, 403.25 464.51 C 403.01 468.87, 402.73 471.25, 402.34 475.57 C 401.96 479.90, 401.68 482.34, 401.32 486.14 C 400.95 489.94, 400.53 491.84, 400.53 494.58 C 400.53 497.31, 400.84 498.50, 401.31 499.81 C 401.79 501.12, 402.14 501.45, 402.89 501.14 C 403.64 500.83, 404.37 500.21, 405.09 498.26 C 405.80 496.31, 406.00 494.73, 406.48 491.38 C 406.96 488.04, 406.82 485.91, 407.48 481.52 C 408.13 477.14, 408.58 474.30, 409.76 469.46 C 410.94 464.63, 411.72 461.91, 413.37 457.34 C 415.03 452.76, 415.98 450.52, 418.04 446.57 C 420.10 442.62, 421.28 440.65, 423.68 437.60 C 426.09 434.54, 427.45 433.34, 430.06 431.28 C 432.67 429.21, 434.00 428.47, 436.74 427.26 C 439.49 426.06, 441.24 425.83, 443.79 425.26 C 446.33 424.68, 447.55 424.67, 449.47 424.39 C 451.38 424.11, 452.56 424.21, 453.36 423.86 C 454.16 423.50, 454.24 423.08, 453.45 422.62 C 452.65 422.15, 451.47 421.71, 449.39 421.53 C 447.30 421.36, 445.82 421.17, 443.02 421.75 C 440.23 422.34, 438.36 422.99, 435.43 424.48 C 432.49 425.97, 431.08 426.86, 428.34 429.19 C 425.61 431.51, 424.21 432.84, 421.75 436.11 C 419.28 439.37, 418.12 441.44, 416.03 445.53 C 413.93 449.62, 412.99 451.90, 411.27 456.57 C 409.55 461.24, 408.76 463.98, 407.44 468.87 C 406.11 473.75, 405.61 476.63, 404.66 481.01 C 403.71 485.39, 403.29 487.46, 402.68 490.76 C 402.07 494.07, 401.72 495.55, 401.63 497.55 C 401.53 499.55, 401.85 500.33, 402.20 500.76 C 402.55 501.19, 403.01 500.93, 403.36 499.71 C 403.71 498.49, 403.80 497.34, 403.95 494.67 C 404.10 492.00, 403.91 490.12, 404.12 486.35 C 404.33 482.58, 404.59 480.14, 404.99 475.81 C 405.39 471.49, 405.75 469.09, 406.12 464.71 C 406.49 460.34, 406.65 457.64, 406.84 453.94 C 407.03 450.25, 407.18 448.73, 407.08 446.24 C 406.97 443.76, 406.77 442.48, 406.31 441.52 C 405.85 440.57, 405.29 440.56, 404.79 441.49" style="stroke: white; fill: white;"/><path d="M 480.46,449.34 C 479.87 449.93, 479.55 450.79, 479.00 452.52 C 478.44 454.25, 478.04 455.42, 477.70 457.98 C 477.35 460.53, 477.46 462.23, 477.27 465.29 C 477.08 468.36, 477.02 470.11, 476.75 473.30 C 476.48 476.49, 476.18 478.39, 475.93 481.23 C 475.69 484.08, 475.49 485.55, 475.52 487.54 C 475.54 489.54, 475.68 490.40, 476.06 491.22 C 476.43 492.03, 476.79 492.25, 477.40 491.63 C 478.01 491.00, 478.54 490.20, 479.11 488.07 C 479.67 485.94, 479.72 484.21, 480.22 480.97 C 480.72 477.74, 480.71 475.71, 481.62 471.89 C 482.53 468.07, 483.25 465.75, 484.77 461.87 C 486.29 457.99, 487.24 456.00, 489.22 452.48 C 491.21 448.96, 492.24 447.29, 494.69 444.27 C 497.15 441.25, 498.89 439.64, 501.51 437.37 C 504.13 435.10, 505.74 434.50, 507.80 432.93 C 509.87 431.36, 511.16 430.42, 511.84 429.52 C 512.51 428.63, 512.32 428.25, 511.18 428.44 C 510.05 428.63, 508.51 429.14, 506.18 430.49 C 503.86 431.83, 502.27 432.72, 499.56 435.15 C 496.85 437.58, 495.15 439.42, 492.64 442.63 C 490.13 445.85, 489.07 447.58, 487.00 451.22 C 484.93 454.87, 483.95 456.88, 482.28 460.85 C 480.60 464.82, 479.85 467.19, 478.63 471.06 C 477.41 474.93, 476.92 476.92, 476.18 480.21 C 475.45 483.49, 475.02 485.20, 474.95 487.47 C 474.89 489.74, 475.32 490.75, 475.86 491.55 C 476.41 492.35, 477.04 492.21, 477.67 491.48 C 478.30 490.74, 478.57 489.87, 479.00 487.89 C 479.42 485.92, 479.51 484.45, 479.80 481.59 C 480.08 478.74, 480.12 476.82, 480.41 473.62 C 480.71 470.43, 480.97 468.65, 481.28 465.62 C 481.59 462.58, 481.74 460.95, 481.95 458.44 C 482.15 455.92, 482.30 454.82, 482.31 453.05 C 482.31 451.28, 482.33 450.34, 481.96 449.60 C 481.60 448.86, 481.06 448.76, 480.46 449.34" style="stroke: white; fill: white;"/><path d="M 568.03,441.28 C 567.60 440.68, 566.92 440.16, 565.52 439.80 C 564.12 439.44, 563.04 439.27, 561.04 439.49 C 559.03 439.71, 557.81 439.91, 555.49 440.88 C 553.18 441.85, 551.85 442.49, 549.44 444.35 C 547.04 446.21, 545.68 447.60, 543.47 450.19 C 541.27 452.78, 540.20 454.37, 538.42 457.29 C 536.64 460.20, 535.76 461.86, 534.58 464.75 C 533.40 467.64, 532.91 469.13, 532.52 471.72 C 532.12 474.32, 532.10 475.60, 532.61 477.74 C 533.13 479.87, 533.61 480.97, 535.09 482.40 C 536.57 483.83, 537.75 484.39, 540.01 484.88 C 542.27 485.37, 543.69 485.34, 546.38 484.84 C 549.07 484.34, 550.65 483.82, 553.47 482.39 C 556.30 480.95, 557.72 479.82, 560.52 477.66 C 563.33 475.51, 564.73 474.15, 567.50 471.59 C 570.27 469.02, 571.89 467.54, 574.36 464.83 C 576.83 462.13, 577.88 460.34, 579.84 458.06 C 581.80 455.77, 583.00 454.61, 584.16 453.39 C 585.32 452.18, 585.44 451.67, 585.64 451.99 C 585.85 452.32, 585.39 453.05, 585.19 455.00 C 584.99 456.96, 584.97 458.73, 584.65 461.78 C 584.33 464.83, 584.05 466.98, 583.58 470.27 C 583.10 473.56, 582.68 475.42, 582.28 478.24 C 581.87 481.05, 581.64 482.36, 581.54 484.33 C 581.44 486.30, 581.60 487.06, 581.78 488.11 C 581.95 489.15, 582.16 489.27, 582.42 489.56 C 582.69 489.85, 582.85 489.81, 583.11 489.55 C 583.36 489.29, 583.37 489.20, 583.70 488.25 C 584.02 487.30, 584.25 486.68, 584.72 484.80 C 585.20 482.93, 585.54 481.66, 586.07 478.87 C 586.60 476.09, 586.82 474.21, 587.39 470.87 C 587.95 467.53, 588.67 465.38, 588.90 462.16 C 589.14 458.94, 589.04 457.03, 588.56 454.77 C 588.07 452.52, 587.68 451.59, 586.47 450.87 C 585.27 450.15, 584.40 450.20, 582.55 451.17 C 580.69 452.14, 579.30 453.41, 577.20 455.74 C 575.11 458.06, 574.42 460.07, 572.07 462.79 C 569.72 465.52, 568.14 466.90, 565.44 469.35 C 562.74 471.79, 561.29 473.10, 558.57 475.03 C 555.85 476.97, 554.43 477.83, 551.84 479.02 C 549.25 480.22, 547.87 480.52, 545.61 481.02 C 543.36 481.52, 542.26 481.66, 540.55 481.51 C 538.84 481.36, 538.06 481.15, 537.06 480.28 C 536.06 479.40, 535.78 478.73, 535.54 477.14 C 535.30 475.55, 535.40 474.53, 535.86 472.32 C 536.32 470.10, 536.74 468.73, 537.83 466.08 C 538.92 463.43, 539.66 461.77, 541.33 459.07 C 542.99 456.36, 544.05 454.85, 546.15 452.55 C 548.26 450.25, 549.68 449.15, 551.86 447.56 C 554.04 445.98, 555.11 445.43, 557.06 444.63 C 559.00 443.82, 559.96 443.82, 561.60 443.53 C 563.24 443.24, 564.03 443.32, 565.25 443.17 C 566.47 443.02, 567.15 443.16, 567.70 442.78 C 568.26 442.40, 568.47 441.87, 568.03 441.28" style="stroke: white; fill: white;"/><path d="M 605.00,438.87 C 604.89 439.72, 605.30 440.56, 605.81 442.45 C 606.32 444.34, 606.59 445.65, 607.55 448.31 C 608.50 450.97, 609.37 452.73, 610.59 455.76 C 611.82 458.78, 612.28 460.56, 613.68 463.44 C 615.07 466.33, 615.86 467.75, 617.57 470.17 C 619.28 472.59, 620.23 473.79, 622.22 475.54 C 624.21 477.30, 625.36 477.96, 627.53 478.95 C 629.69 479.94, 630.76 480.34, 633.05 480.48 C 635.33 480.63, 636.61 480.55, 638.94 479.67 C 641.27 478.79, 642.51 477.95, 644.68 476.07 C 646.86 474.20, 647.75 472.91, 649.83 470.30 C 651.90 467.70, 653.03 465.96, 655.05 463.04 C 657.08 460.13, 658.20 458.34, 659.96 455.75 C 661.72 453.16, 662.55 451.98, 663.87 450.09 C 665.19 448.21, 665.70 447.33, 666.56 446.33 C 667.42 445.33, 667.61 445.03, 668.18 445.09 C 668.76 445.15, 668.90 445.46, 669.42 446.63 C 669.95 447.80, 670.09 448.61, 670.81 450.92 C 671.52 453.23, 672.25 454.61, 672.99 458.19 C 673.74 461.76, 674.21 464.10, 674.52 468.79 C 674.83 473.47, 674.89 476.26, 674.56 481.62 C 674.23 486.97, 673.81 489.89, 672.87 495.57 C 671.93 501.24, 671.36 504.43, 669.86 509.99 C 668.36 515.55, 667.40 518.26, 665.37 523.36 C 663.35 528.47, 662.16 531.11, 659.73 535.52 C 657.31 539.94, 655.98 541.95, 653.26 545.43 C 650.54 548.91, 649.00 550.44, 646.13 552.93 C 643.26 555.42, 641.68 556.49, 638.90 557.89 C 636.13 559.28, 634.68 559.69, 632.27 559.90 C 629.86 560.11, 628.83 559.63, 626.84 558.95 C 624.86 558.27, 623.92 557.50, 622.33 556.50 C 620.75 555.49, 619.82 554.24, 618.92 553.94 C 618.01 553.63, 617.50 553.96, 617.80 554.97 C 618.11 555.97, 618.86 557.55, 620.46 558.96 C 622.06 560.38, 623.37 561.23, 625.79 562.04 C 628.22 562.86, 629.70 563.36, 632.59 563.04 C 635.48 562.71, 637.19 562.06, 640.23 560.41 C 643.26 558.75, 644.82 557.48, 647.77 554.75 C 650.72 552.02, 652.25 550.41, 654.99 546.75 C 657.73 543.09, 659.05 541.01, 661.48 536.47 C 663.90 531.93, 665.09 529.25, 667.12 524.05 C 669.15 518.85, 670.12 516.11, 671.65 510.48 C 673.18 504.85, 673.76 501.63, 674.77 495.89 C 675.78 490.15, 676.22 487.21, 676.68 481.77 C 677.14 476.33, 677.15 473.50, 677.06 468.68 C 676.96 463.85, 676.70 461.45, 676.21 457.65 C 675.72 453.85, 675.48 452.23, 674.61 449.68 C 673.74 447.13, 673.11 446.21, 671.86 444.89 C 670.61 443.57, 669.77 443.18, 668.36 443.07 C 666.95 442.95, 666.25 443.32, 664.82 444.32 C 663.38 445.31, 662.73 446.15, 661.18 448.04 C 659.63 449.93, 658.84 451.16, 657.06 453.78 C 655.28 456.39, 654.28 458.25, 652.28 461.11 C 650.28 463.96, 649.09 465.64, 647.07 468.06 C 645.05 470.48, 644.07 471.52, 642.18 473.21 C 640.29 474.89, 639.41 475.66, 637.62 476.48 C 635.83 477.29, 634.98 477.39, 633.24 477.29 C 631.50 477.19, 630.67 476.84, 628.93 475.98 C 627.19 475.12, 626.21 474.56, 624.53 472.99 C 622.84 471.42, 622.02 470.34, 620.49 468.13 C 618.96 465.92, 618.14 464.68, 616.88 461.94 C 615.62 459.19, 615.26 457.43, 614.20 454.40 C 613.15 451.37, 612.67 449.43, 611.61 446.77 C 610.55 444.11, 609.95 442.83, 608.90 441.11 C 607.84 439.39, 607.11 438.62, 606.33 438.18 C 605.55 437.73, 605.10 438.01, 605.00 438.87" style="stroke: white; fill: white;"/><path d="M 748.95,439.81 C 748.39 439.26, 747.57 438.85, 745.97 438.57 C 744.37 438.28, 743.26 438.15, 740.95 438.39 C 738.63 438.62, 737.00 438.82, 734.39 439.75 C 731.77 440.69, 730.29 441.56, 727.87 443.07 C 725.44 444.58, 724.17 445.47, 722.25 447.29 C 720.34 449.10, 719.35 450.06, 718.27 452.15 C 717.20 454.24, 716.85 455.47, 716.89 457.72 C 716.92 459.98, 717.37 461.25, 718.43 463.44 C 719.49 465.62, 720.45 466.68, 722.17 468.65 C 723.88 470.62, 724.98 471.47, 727.02 473.28 C 729.06 475.09, 730.31 476.00, 732.36 477.69 C 734.40 479.37, 735.57 480.22, 737.25 481.72 C 738.93 483.21, 739.68 483.84, 740.76 485.15 C 741.84 486.47, 742.30 487.15, 742.66 488.30 C 743.02 489.45, 743.11 489.96, 742.57 490.90 C 742.03 491.83, 741.42 492.08, 739.94 492.97 C 738.45 493.85, 737.45 494.33, 735.15 495.32 C 732.86 496.31, 731.45 497.05, 728.44 497.93 C 725.44 498.82, 723.48 499.25, 720.14 499.76 C 716.79 500.28, 714.69 500.17, 711.72 500.53 C 708.75 500.90, 706.57 501.07, 705.29 501.59 C 704.01 502.10, 704.01 502.65, 705.33 503.10 C 706.65 503.55, 708.85 503.80, 711.91 503.82 C 714.97 503.85, 717.13 503.68, 720.63 503.22 C 724.13 502.76, 726.20 502.36, 729.43 501.53 C 732.67 500.70, 734.29 500.21, 736.81 499.07 C 739.33 497.94, 740.34 497.24, 742.02 495.86 C 743.69 494.48, 744.48 493.81, 745.18 492.15 C 745.88 490.50, 745.89 489.39, 745.53 487.60 C 745.18 485.81, 744.56 484.91, 743.40 483.20 C 742.25 481.49, 741.47 480.77, 739.77 479.06 C 738.08 477.35, 736.94 476.41, 734.92 474.65 C 732.90 472.90, 731.63 472.02, 729.65 470.29 C 727.68 468.57, 726.67 467.74, 725.05 466.03 C 723.44 464.32, 722.60 463.43, 721.59 461.75 C 720.59 460.07, 720.13 459.22, 720.03 457.62 C 719.93 456.01, 720.16 455.24, 721.10 453.73 C 722.04 452.23, 722.94 451.51, 724.71 450.09 C 726.48 448.67, 727.73 447.86, 729.96 446.62 C 732.19 445.39, 733.53 444.71, 735.85 443.90 C 738.17 443.09, 739.55 442.99, 741.56 442.59 C 743.58 442.19, 744.49 442.15, 745.93 441.90 C 747.37 441.65, 748.17 441.75, 748.77 441.34 C 749.38 440.92, 749.51 440.37, 748.95 439.81" style="stroke: white; fill: white;"/></svg>