<svg xmlns="http://www.w3.org/2000/svg" id="canvas" viewBox="136.111 380.192 650.898 225.176"><path d="M 173.71,401.55 C 173.43 402.36, 173.37 403.40, 173.21 405.61 C 173.05 407.82, 173.14 409.26, 172.91 412.59 C 172.68 415.92, 172.57 418.14, 172.04 422.26 C 171.51 426.37, 171.11 428.57, 170.25 433.16 C 169.39 437.75, 168.80 440.27, 167.75 445.22 C 166.69 450.16, 166.14 452.88, 164.96 457.89 C 163.78 462.91, 163.07 465.54, 161.86 470.29 C 160.66 475.05, 160.10 477.60, 158.93 481.68 C 157.75 485.76, 157.07 487.66, 155.99 490.69 C 154.90 493.71, 154.39 495.05, 153.51 496.81 C 152.63 498.56, 152.25 499.15, 151.58 499.47 C 150.92 499.79, 150.68 499.54, 150.19 498.41 C 149.70 497.27, 149.61 496.27, 149.12 493.81 C 148.63 491.36, 148.13 489.70, 147.73 486.12 C 147.32 482.54, 147.13 480.29, 147.10 475.93 C 147.06 471.58, 147.21 469.15, 147.56 464.34 C 147.90 459.54, 148.10 456.97, 148.83 451.91 C 149.56 446.84, 150.11 444.08, 151.20 439.02 C 152.29 433.97, 153.04 431.36, 154.30 426.64 C 155.55 421.92, 156.16 419.57, 157.47 415.43 C 158.78 411.28, 159.48 409.40, 160.86 405.91 C 162.24 402.42, 162.91 400.79, 164.39 397.97 C 165.87 395.16, 166.69 393.90, 168.27 391.82 C 169.84 389.73, 170.56 388.83, 172.26 387.55 C 173.97 386.27, 174.97 385.83, 176.80 385.41 C 178.62 384.99, 179.63 385.11, 181.39 385.46 C 183.14 385.81, 183.97 386.20, 185.57 387.15 C 187.18 388.10, 188.01 388.73, 189.43 390.23 C 190.84 391.72, 191.61 392.63, 192.65 394.61 C 193.69 396.59, 194.19 397.78, 194.63 400.11 C 195.07 402.44, 195.19 403.65, 194.85 406.27 C 194.51 408.89, 194.01 410.39, 192.93 413.21 C 191.85 416.03, 191.13 417.55, 189.45 420.38 C 187.78 423.22, 186.61 424.67, 184.55 427.38 C 182.48 430.09, 181.27 431.54, 179.12 433.94 C 176.97 436.34, 175.70 437.46, 173.79 439.36 C 171.89 441.26, 170.89 442.09, 169.60 443.43 C 168.31 444.77, 167.80 445.23, 167.35 446.06 C 166.89 446.89, 166.82 447.13, 167.32 447.58 C 167.83 448.02, 168.41 448.17, 169.89 448.31 C 171.36 448.45, 172.50 448.32, 174.70 448.27 C 176.91 448.21, 178.29 447.95, 180.91 448.02 C 183.54 448.10, 185.09 448.17, 187.82 448.65 C 190.56 449.12, 192.06 449.49, 194.60 450.40 C 197.13 451.30, 198.40 451.88, 200.49 453.16 C 202.58 454.45, 203.63 455.21, 205.03 456.81 C 206.44 458.41, 207.09 459.17, 207.53 461.15 C 207.98 463.13, 207.97 464.24, 207.25 466.70 C 206.53 469.16, 205.83 470.68, 203.92 473.45 C 202.01 476.23, 200.61 477.79, 197.69 480.56 C 194.78 483.32, 192.92 484.79, 189.35 487.29 C 185.79 489.80, 183.68 491.01, 179.85 493.10 C 176.03 495.20, 173.96 496.21, 170.22 497.76 C 166.48 499.32, 164.54 499.98, 161.16 500.88 C 157.78 501.79, 156.14 502.07, 153.32 502.29 C 150.51 502.50, 149.18 502.38, 147.09 501.97 C 145.00 501.55, 144.13 501.04, 142.88 500.21 C 141.63 499.39, 141.41 498.79, 140.84 497.83 C 140.26 496.88, 140.32 495.87, 140.00 495.42 C 139.67 494.97, 139.31 494.96, 139.21 495.58 C 139.11 496.20, 138.96 497.31, 139.49 498.52 C 140.03 499.73, 140.44 500.58, 141.88 501.64 C 143.33 502.70, 144.38 503.30, 146.70 503.81 C 149.02 504.32, 150.50 504.46, 153.48 504.20 C 156.46 503.93, 158.14 503.48, 161.60 502.48 C 165.07 501.47, 167.02 500.78, 170.81 499.16 C 174.60 497.54, 176.68 496.52, 180.56 494.39 C 184.44 492.27, 186.57 491.07, 190.23 488.55 C 193.88 486.02, 195.78 484.58, 198.84 481.79 C 201.89 478.99, 203.41 477.46, 205.50 474.56 C 207.58 471.66, 208.51 470.05, 209.29 467.29 C 210.06 464.52, 209.92 463.08, 209.37 460.73 C 208.82 458.38, 208.09 457.40, 206.54 455.53 C 204.99 453.65, 203.87 452.80, 201.64 451.35 C 199.40 449.90, 198.05 449.28, 195.38 448.27 C 192.70 447.26, 191.13 446.88, 188.26 446.30 C 185.39 445.73, 183.77 445.56, 181.03 445.39 C 178.30 445.21, 176.83 445.29, 174.57 445.43 C 172.32 445.57, 171.16 445.80, 169.76 446.10 C 168.36 446.40, 167.88 446.78, 167.56 446.93 C 167.25 447.07, 167.52 447.24, 168.19 446.83 C 168.86 446.41, 169.49 446.03, 170.91 444.84 C 172.34 443.66, 173.39 442.82, 175.32 440.90 C 177.26 438.98, 178.45 437.72, 180.60 435.24 C 182.74 432.77, 183.95 431.30, 186.05 428.53 C 188.16 425.76, 189.36 424.30, 191.12 421.38 C 192.89 418.47, 193.68 416.93, 194.86 413.97 C 196.05 411.00, 196.66 409.42, 197.05 406.56 C 197.44 403.71, 197.28 402.31, 196.80 399.70 C 196.32 397.10, 195.81 395.76, 194.66 393.56 C 193.50 391.35, 192.62 390.33, 191.02 388.69 C 189.41 387.05, 188.47 386.38, 186.61 385.34 C 184.76 384.31, 183.80 383.86, 181.75 383.50 C 179.70 383.14, 178.48 383.03, 176.36 383.53 C 174.23 384.04, 173.06 384.60, 171.13 386.03 C 169.20 387.45, 168.36 388.42, 166.71 390.65 C 165.05 392.88, 164.29 394.24, 162.84 397.19 C 161.39 400.13, 160.78 401.80, 159.45 405.37 C 158.12 408.94, 157.45 410.83, 156.18 415.02 C 154.90 419.21, 154.30 421.57, 153.07 426.32 C 151.83 431.07, 151.09 433.68, 149.99 438.76 C 148.89 443.84, 148.33 446.63, 147.57 451.72 C 146.81 456.82, 146.60 459.39, 146.18 464.23 C 145.76 469.08, 145.58 471.51, 145.48 475.92 C 145.38 480.34, 145.43 482.62, 145.68 486.31 C 145.94 489.99, 146.12 491.77, 146.77 494.35 C 147.43 496.93, 147.92 498.00, 148.95 499.21 C 149.98 500.42, 150.70 500.72, 151.90 500.40 C 153.10 500.09, 153.81 499.45, 154.95 497.62 C 156.09 495.79, 156.54 494.37, 157.61 491.26 C 158.68 488.15, 159.20 486.19, 160.30 482.06 C 161.40 477.93, 161.94 475.38, 163.11 470.61 C 164.29 465.83, 165.00 463.20, 166.18 458.18 C 167.36 453.16, 167.92 450.44, 169.02 445.49 C 170.11 440.54, 170.72 438.04, 171.66 433.44 C 172.61 428.84, 173.08 426.64, 173.75 422.51 C 174.42 418.37, 174.75 416.12, 175.03 412.75 C 175.31 409.38, 175.25 407.88, 175.16 405.64 C 175.07 403.40, 174.88 402.36, 174.59 401.54 C 174.30 400.72, 173.98 400.73, 173.71 401.55" style="stroke: white; fill: white;"/><path d="M 229.45,436.78 C 228.98 437.29, 228.59 437.91, 227.87 439.61 C 227.14 441.31, 226.64 442.56, 225.83 445.27 C 225.02 447.99, 224.65 449.74, 223.81 453.19 C 222.97 456.64, 222.58 458.63, 221.64 462.51 C 220.70 466.38, 220.07 468.54, 219.12 472.57 C 218.16 476.59, 217.64 478.93, 216.86 482.64 C 216.08 486.34, 215.60 488.25, 215.21 491.09 C 214.83 493.92, 214.89 495.08, 214.92 496.82 C 214.94 498.55, 215.14 499.17, 215.34 499.76 C 215.53 500.35, 215.70 500.33, 215.89 499.76 C 216.08 499.19, 216.01 498.59, 216.28 496.91 C 216.54 495.24, 216.77 494.18, 217.22 491.39 C 217.68 488.60, 217.86 486.67, 218.55 482.98 C 219.25 479.29, 219.76 476.95, 220.71 472.94 C 221.66 468.93, 222.29 466.78, 223.31 462.93 C 224.33 459.09, 224.81 457.11, 225.81 453.72 C 226.80 450.34, 227.50 448.70, 228.28 446.00 C 229.07 443.29, 229.34 441.99, 229.73 440.21 C 230.13 438.42, 230.31 437.74, 230.25 437.06 C 230.19 436.37, 229.93 436.27, 229.45 436.78" style="stroke: white; fill: white;"/><path d="M 243.25,411.64 C 242.84 411.62, 242.41 411.80, 241.92 412.20 C 241.42 412.60, 241.12 413.00, 240.77 413.62 C 240.42 414.24, 240.20 414.67, 240.16 415.32 C 240.11 415.96, 240.29 416.51, 240.55 416.84 C 240.82 417.17, 241.15 417.13, 241.47 416.95 C 241.80 416.78, 241.88 416.37, 242.17 415.96 C 242.47 415.56, 242.64 415.40, 242.95 414.92 C 243.26 414.44, 243.50 414.09, 243.71 413.56 C 243.91 413.03, 244.07 412.66, 243.98 412.28 C 243.89 411.89, 243.66 411.65, 243.25 411.64" style="stroke: white; fill: white;"/><path d="M 265.51,439.25 C 265.20 439.97, 265.15 441.04, 264.89 442.86 C 264.64 444.69, 264.63 445.80, 264.24 448.37 C 263.86 450.93, 263.58 452.60, 262.97 455.68 C 262.36 458.76, 262.01 460.44, 261.19 463.77 C 260.36 467.10, 259.74 468.96, 258.83 472.34 C 257.92 475.72, 257.33 477.69, 256.65 480.65 C 255.97 483.60, 255.58 485.08, 255.43 487.10 C 255.28 489.12, 255.37 490.01, 255.89 490.75 C 256.42 491.48, 256.90 491.55, 258.07 490.78 C 259.24 490.00, 260.06 489.04, 261.75 486.87 C 263.44 484.69, 264.34 482.97, 266.53 479.90 C 268.71 476.82, 270.07 474.89, 272.68 471.50 C 275.29 468.10, 276.85 466.16, 279.59 462.93 C 282.34 459.71, 283.80 457.97, 286.39 455.37 C 288.99 452.76, 290.35 451.59, 292.58 449.91 C 294.80 448.24, 295.86 447.62, 297.52 446.98 C 299.18 446.35, 299.85 446.25, 300.88 446.76 C 301.91 447.27, 302.25 447.84, 302.65 449.54 C 303.06 451.24, 303.07 452.49, 302.92 455.25 C 302.76 458.00, 302.51 459.81, 301.88 463.31 C 301.26 466.80, 300.72 469.00, 299.79 472.72 C 298.86 476.43, 298.11 478.46, 297.24 481.88 C 296.37 485.29, 295.71 487.03, 295.43 489.80 C 295.15 492.56, 295.18 493.98, 295.84 495.69 C 296.49 497.40, 297.19 497.95, 298.71 498.35 C 300.24 498.75, 301.30 498.65, 303.44 497.70 C 305.58 496.75, 306.73 495.81, 309.44 493.62 C 312.14 491.42, 313.75 489.80, 316.98 486.71 C 320.21 483.62, 322.00 481.61, 325.60 478.16 C 329.19 474.72, 331.22 472.84, 334.97 469.49 C 338.72 466.14, 340.87 464.32, 344.33 461.41 C 347.79 458.51, 349.72 457.03, 352.27 454.95 C 354.83 452.87, 355.85 452.16, 357.09 451.00 C 358.34 449.85, 358.60 449.49, 358.50 449.16 C 358.40 448.83, 357.84 448.79, 356.59 449.35 C 355.35 449.92, 354.18 450.50, 352.28 451.97 C 350.38 453.43, 349.24 454.55, 347.08 456.67 C 344.92 458.79, 343.67 460.11, 341.46 462.57 C 339.25 465.03, 338.05 466.37, 336.04 468.96 C 334.03 471.54, 332.97 472.98, 331.43 475.50 C 329.89 478.02, 329.18 479.36, 328.34 481.56 C 327.49 483.75, 327.33 484.71, 327.21 486.49 C 327.09 488.27, 327.17 489.16, 327.73 490.47 C 328.30 491.79, 328.82 492.48, 330.03 493.08 C 331.24 493.67, 332.12 493.83, 333.77 493.45 C 335.41 493.07, 336.41 492.56, 338.26 491.19 C 340.10 489.82, 341.13 488.80, 342.98 486.61 C 344.83 484.42, 345.69 482.98, 347.51 480.22 C 349.33 477.47, 350.31 475.90, 352.09 472.84 C 353.87 469.79, 354.86 468.01, 356.42 464.94 C 357.97 461.88, 358.86 460.11, 359.85 457.51 C 360.85 454.92, 361.20 453.60, 361.40 451.98 C 361.60 450.35, 361.36 449.60, 360.84 449.38 C 360.31 449.16, 359.69 449.49, 358.79 450.86 C 357.89 452.24, 357.22 453.56, 356.33 456.26 C 355.43 458.96, 354.97 461.09, 354.31 464.35 C 353.64 467.61, 353.31 469.42, 353.00 472.57 C 352.68 475.72, 352.57 477.34, 352.72 480.10 C 352.88 482.86, 353.00 484.23, 353.75 486.36 C 354.51 488.50, 355.14 489.43, 356.48 490.78 C 357.83 492.12, 358.73 492.58, 360.48 493.09 C 362.23 493.60, 363.20 493.70, 365.24 493.32 C 367.28 492.94, 368.44 492.48, 370.67 491.21 C 372.89 489.94, 374.14 488.97, 376.38 486.97 C 378.62 484.96, 379.73 483.70, 381.87 481.18 C 384.02 478.66, 385.07 477.07, 387.11 474.36 C 389.15 471.66, 390.19 470.18, 392.08 467.64 C 393.97 465.11, 395.00 463.85, 396.54 461.68 C 398.09 459.51, 398.92 458.19, 399.79 456.79 C 400.67 455.39, 400.83 454.85, 400.91 454.67 C 400.99 454.50, 400.69 454.79, 400.17 455.89 C 399.65 457.00, 399.14 457.99, 398.31 460.21 C 397.48 462.43, 396.91 464.16, 396.02 466.99 C 395.12 469.83, 394.63 471.55, 393.82 474.39 C 393.02 477.23, 392.57 478.88, 392.00 481.20 C 391.42 483.51, 391.11 484.51, 390.96 485.98 C 390.81 487.46, 390.96 488.11, 391.25 488.57 C 391.53 489.03, 391.95 488.93, 392.38 488.26 C 392.80 487.60, 392.98 486.90, 393.37 485.24 C 393.76 483.58, 393.91 482.35, 394.32 479.95 C 394.73 477.56, 394.94 476.06, 395.39 473.27 C 395.85 470.47, 396.10 468.79, 396.60 465.99 C 397.10 463.20, 397.37 461.72, 397.87 459.29 C 398.37 456.86, 398.60 455.75, 399.11 453.84 C 399.62 451.94, 399.90 451.08, 400.44 449.77 C 400.99 448.45, 401.22 447.98, 401.82 447.27 C 402.43 446.56, 402.66 446.42, 403.45 446.22 C 404.25 446.02, 404.72 446.12, 405.81 446.28 C 406.90 446.43, 407.55 446.70, 408.89 447.00 C 410.24 447.29, 410.97 447.51, 412.55 447.75 C 414.14 447.99, 415.07 448.14, 416.82 448.19 C 418.58 448.23, 419.50 448.21, 421.34 447.99 C 423.18 447.76, 424.13 447.48, 426.02 447.07 C 427.91 446.66, 428.95 446.42, 430.77 445.94 C 432.58 445.45, 433.50 445.14, 435.10 444.65 C 436.70 444.16, 437.53 443.94, 438.78 443.48 C 440.03 443.02, 440.59 442.72, 441.35 442.37 C 442.12 442.01, 442.42 441.74, 442.61 441.68 C 442.81 441.63, 442.65 441.53, 442.34 442.08 C 442.02 442.63, 441.69 443.10, 441.05 444.44 C 440.41 445.79, 439.90 446.78, 439.16 448.82 C 438.42 450.85, 437.97 452.13, 437.35 454.61 C 436.73 457.09, 436.45 458.63, 436.06 461.21 C 435.68 463.80, 435.37 465.20, 435.43 467.52 C 435.48 469.83, 435.62 470.98, 436.34 472.79 C 437.06 474.59, 437.70 475.42, 439.05 476.54 C 440.39 477.67, 441.21 478.19, 443.08 478.41 C 444.95 478.63, 446.16 478.45, 448.41 477.63 C 450.65 476.81, 451.96 476.03, 454.30 474.32 C 456.64 472.61, 457.71 471.41, 460.11 469.10 C 462.51 466.80, 463.86 465.39, 466.31 462.80 C 468.76 460.21, 470.09 458.75, 472.35 456.14 C 474.61 453.53, 475.69 452.05, 477.60 449.76 C 479.52 447.47, 480.53 446.41, 481.92 444.67 C 483.32 442.93, 484.02 441.87, 484.56 441.05 C 485.11 440.23, 484.96 439.94, 484.65 440.57 C 484.34 441.21, 483.69 441.97, 483.02 444.23 C 482.35 446.48, 482.10 448.17, 481.31 451.84 C 480.52 455.51, 480.07 457.74, 479.07 462.57 C 478.07 467.40, 477.41 470.26, 476.30 476.00 C 475.19 481.73, 474.71 484.83, 473.52 491.26 C 472.33 497.69, 471.72 501.24, 470.35 508.15 C 468.98 515.06, 468.27 518.78, 466.67 525.83 C 465.06 532.88, 464.20 536.62, 462.33 543.41 C 460.46 550.20, 459.40 553.63, 457.30 559.78 C 455.19 565.93, 454.05 568.96, 451.81 574.16 C 449.56 579.35, 448.41 581.78, 446.05 585.76 C 443.69 589.74, 442.41 591.39, 440.01 594.06 C 437.62 596.73, 436.28 597.77, 434.07 599.11 C 431.87 600.45, 430.88 600.87, 428.97 600.76 C 427.07 600.66, 425.98 600.24, 424.56 598.59 C 423.15 596.95, 422.67 595.28, 421.91 592.53 C 421.15 589.79, 421.15 587.69, 420.77 584.87 C 420.39 582.04, 420.36 579.68, 420.01 578.39 C 419.66 577.10, 419.31 577.07, 419.01 578.41 C 418.71 579.74, 418.39 582.11, 418.52 585.07 C 418.66 588.02, 418.75 590.23, 419.69 593.19 C 420.62 596.15, 421.34 598.05, 423.18 599.88 C 425.02 601.71, 426.53 602.20, 428.88 602.34 C 431.24 602.49, 432.53 602.06, 434.97 600.60 C 437.42 599.13, 438.68 597.87, 441.11 595.02 C 443.53 592.17, 444.76 590.45, 447.09 586.36 C 449.42 582.27, 450.54 579.82, 452.76 574.56 C 454.98 569.31, 456.10 566.26, 458.19 560.08 C 460.27 553.90, 461.32 550.46, 463.19 543.65 C 465.06 536.84, 465.92 533.09, 467.53 526.03 C 469.15 518.97, 469.86 515.25, 471.26 508.33 C 472.65 501.42, 473.28 497.87, 474.52 491.45 C 475.75 485.03, 476.26 481.94, 477.46 476.23 C 478.66 470.52, 479.34 467.68, 480.51 462.90 C 481.68 458.12, 482.36 455.94, 483.30 452.32 C 484.25 448.69, 484.80 447.11, 485.25 444.77 C 485.70 442.42, 485.83 441.50, 485.54 440.58 C 485.25 439.66, 484.84 439.62, 483.80 440.16 C 482.76 440.71, 481.90 441.64, 480.34 443.30 C 478.78 444.95, 477.90 446.13, 476.01 448.45 C 474.13 450.77, 473.13 452.29, 470.91 454.90 C 468.69 457.51, 467.37 458.94, 464.93 461.48 C 462.48 464.01, 461.10 465.40, 458.69 467.58 C 456.28 469.75, 455.11 470.77, 452.88 472.36 C 450.66 473.95, 449.50 474.69, 447.57 475.52 C 445.64 476.36, 444.72 476.60, 443.24 476.53 C 441.76 476.47, 441.21 476.08, 440.18 475.20 C 439.16 474.31, 438.63 473.66, 438.11 472.13 C 437.59 470.60, 437.52 469.63, 437.60 467.53 C 437.67 465.42, 438.03 464.07, 438.48 461.62 C 438.94 459.17, 439.23 457.65, 439.88 455.27 C 440.54 452.90, 441.05 451.75, 441.76 449.76 C 442.47 447.77, 443.03 446.83, 443.45 445.34 C 443.87 443.84, 443.97 443.21, 443.86 442.30 C 443.76 441.39, 443.52 441.11, 442.92 440.79 C 442.31 440.46, 441.81 440.51, 440.85 440.66 C 439.90 440.81, 439.41 441.15, 438.14 441.52 C 436.87 441.89, 436.08 442.09, 434.49 442.53 C 432.89 442.96, 431.98 443.25, 430.18 443.71 C 428.39 444.16, 427.35 444.41, 425.52 444.81 C 423.70 445.22, 422.79 445.52, 421.06 445.73 C 419.34 445.95, 418.53 445.95, 416.90 445.89 C 415.27 445.82, 414.42 445.66, 412.91 445.42 C 411.41 445.18, 410.75 444.94, 409.36 444.68 C 407.97 444.42, 407.25 444.14, 405.96 444.13 C 404.67 444.12, 403.99 444.20, 402.93 444.62 C 401.86 445.03, 401.46 445.31, 400.63 446.19 C 399.80 447.07, 399.47 447.59, 398.77 449.01 C 398.08 450.43, 397.79 451.32, 397.18 453.28 C 396.57 455.24, 396.31 456.36, 395.72 458.81 C 395.14 461.26, 394.83 462.75, 394.25 465.54 C 393.68 468.34, 393.40 470.02, 392.84 472.80 C 392.29 475.59, 391.88 477.05, 391.47 479.47 C 391.07 481.89, 390.88 483.18, 390.82 484.90 C 390.77 486.62, 390.99 487.35, 391.20 488.08 C 391.40 488.82, 391.57 488.93, 391.86 488.58 C 392.16 488.23, 392.23 487.71, 392.69 486.35 C 393.14 484.99, 393.45 484.04, 394.14 481.79 C 394.84 479.54, 395.26 477.88, 396.15 475.09 C 397.04 472.30, 397.64 470.65, 398.60 467.84 C 399.55 465.03, 400.31 463.38, 400.93 461.05 C 401.55 458.73, 401.73 457.58, 401.72 456.21 C 401.70 454.84, 401.53 454.33, 400.87 454.22 C 400.20 454.11, 399.63 454.44, 398.40 455.67 C 397.17 456.90, 396.32 458.21, 394.73 460.37 C 393.14 462.53, 392.29 463.89, 390.45 466.46 C 388.61 469.02, 387.57 470.51, 385.54 473.18 C 383.52 475.85, 382.45 477.41, 380.31 479.82 C 378.17 482.23, 377.02 483.35, 374.85 485.22 C 372.68 487.10, 371.48 487.97, 369.48 489.19 C 367.47 490.40, 366.51 490.89, 364.81 491.32 C 363.10 491.75, 362.37 491.70, 360.96 491.34 C 359.54 490.99, 358.83 490.65, 357.75 489.53 C 356.67 488.42, 356.15 487.67, 355.57 485.77 C 354.98 483.86, 354.93 482.60, 354.84 480.01 C 354.75 477.41, 354.77 475.83, 355.14 472.80 C 355.50 469.78, 355.88 468.02, 356.67 464.89 C 357.46 461.75, 358.33 459.78, 359.09 457.11 C 359.84 454.44, 360.10 453.06, 360.43 451.56 C 360.75 450.06, 360.82 449.61, 360.71 449.62 C 360.59 449.62, 360.44 450.17, 359.86 451.58 C 359.27 452.99, 358.82 454.18, 357.77 456.68 C 356.73 459.18, 356.12 461.03, 354.65 464.07 C 353.18 467.11, 352.20 468.87, 350.42 471.86 C 348.65 474.85, 347.64 476.40, 345.76 479.02 C 343.89 481.64, 342.87 482.91, 341.07 484.96 C 339.27 487.02, 338.34 487.97, 336.77 489.29 C 335.19 490.61, 334.42 491.08, 333.20 491.55 C 331.99 492.01, 331.49 491.97, 330.70 491.64 C 329.90 491.30, 329.59 490.88, 329.24 489.88 C 328.89 488.89, 328.78 488.17, 328.96 486.65 C 329.15 485.14, 329.32 484.31, 330.18 482.30 C 331.04 480.30, 331.77 479.05, 333.26 476.63 C 334.75 474.21, 335.69 472.72, 337.64 470.20 C 339.59 467.68, 340.78 466.35, 343.02 464.02 C 345.26 461.68, 346.64 460.53, 348.84 458.54 C 351.04 456.55, 352.28 455.64, 354.03 454.06 C 355.77 452.49, 356.69 451.67, 357.57 450.67 C 358.44 449.67, 358.67 449.22, 358.40 449.07 C 358.14 448.91, 357.68 448.97, 356.23 449.88 C 354.78 450.79, 353.74 451.50, 351.17 453.59 C 348.60 455.68, 346.82 457.35, 343.40 460.33 C 339.99 463.31, 337.84 465.13, 334.08 468.50 C 330.33 471.86, 328.27 473.74, 324.63 477.14 C 320.98 480.54, 319.15 482.53, 315.85 485.50 C 312.55 488.47, 310.80 489.91, 308.14 491.99 C 305.48 494.07, 304.38 494.88, 302.55 495.90 C 300.72 496.92, 300.04 497.22, 298.97 497.09 C 297.91 496.96, 297.54 496.67, 297.24 495.26 C 296.93 493.85, 297.10 492.63, 297.47 490.04 C 297.83 487.46, 298.23 485.70, 299.05 482.33 C 299.87 478.96, 300.61 476.90, 301.58 473.17 C 302.55 469.45, 303.14 467.26, 303.89 463.70 C 304.64 460.14, 305.21 458.30, 305.32 455.36 C 305.43 452.41, 305.20 450.93, 304.43 448.97 C 303.66 447.00, 302.95 446.26, 301.47 445.55 C 299.99 444.84, 299.03 444.87, 297.02 445.44 C 295.01 446.00, 293.78 446.61, 291.42 448.36 C 289.05 450.12, 287.81 451.50, 285.20 454.20 C 282.60 456.91, 281.16 458.66, 278.39 461.91 C 275.62 465.16, 274.06 467.10, 271.35 470.45 C 268.65 473.79, 267.19 475.66, 264.85 478.64 C 262.51 481.62, 261.21 483.10, 259.66 485.33 C 258.11 487.56, 257.70 488.76, 257.08 489.79 C 256.46 490.82, 256.52 490.96, 256.56 490.48 C 256.60 490.00, 256.85 489.25, 257.29 487.38 C 257.73 485.51, 258.06 484.04, 258.74 481.13 C 259.42 478.22, 259.83 476.21, 260.70 472.83 C 261.57 469.46, 262.20 467.60, 263.09 464.26 C 263.99 460.93, 264.45 459.26, 265.17 456.15 C 265.90 453.04, 266.37 451.35, 266.71 448.71 C 267.06 446.08, 266.94 444.86, 266.88 442.97 C 266.83 441.08, 266.71 440.01, 266.44 439.27 C 266.16 438.52, 265.82 438.53, 265.51 439.25" style="stroke: white; fill: white;"/><path d="M 595.06,401.93 C 594.61 402.61, 594.24 403.44, 593.64 405.53 C 593.05 407.62, 592.85 408.93, 592.09 412.36 C 591.32 415.79, 590.92 418.16, 589.83 422.68 C 588.74 427.20, 588.11 429.75, 586.63 434.96 C 585.14 440.17, 584.10 443.01, 582.41 448.73 C 580.71 454.44, 579.82 457.63, 578.16 463.53 C 576.50 469.43, 575.63 472.75, 574.10 478.22 C 572.58 483.69, 571.78 486.70, 570.52 490.88 C 569.25 495.05, 568.66 497.00, 567.78 499.10 C 566.90 501.20, 566.41 500.87, 566.13 501.38 C 565.86 501.90, 565.86 502.01, 566.42 501.66 C 566.98 501.31, 567.84 501.71, 568.92 499.63 C 570.00 497.56, 570.58 495.50, 571.84 491.28 C 573.10 487.05, 573.74 484.01, 575.21 478.52 C 576.68 473.03, 577.54 469.72, 579.20 463.82 C 580.85 457.93, 581.75 454.75, 583.48 449.05 C 585.21 443.35, 586.28 440.51, 587.85 435.32 C 589.43 430.12, 590.12 427.58, 591.36 423.08 C 592.60 418.58, 593.23 416.24, 594.06 412.81 C 594.88 409.39, 595.11 408.08, 595.47 405.95 C 595.84 403.81, 595.98 402.94, 595.90 402.13 C 595.81 401.33, 595.52 401.25, 595.06 401.93" style="stroke: white; fill: white;"/><path d="M 554.05,387.63 C 554.56 387.92, 555.09 388.07, 556.64 388.25 C 558.18 388.43, 559.05 388.54, 561.77 388.53 C 564.49 388.53, 566.38 388.37, 570.25 388.22 C 574.12 388.07, 576.36 387.97, 581.12 387.80 C 585.88 387.64, 588.74 387.52, 594.06 387.39 C 599.38 387.26, 602.47 387.09, 607.73 387.16 C 612.99 387.24, 615.81 387.35, 620.36 387.77 C 624.92 388.18, 627.15 388.49, 630.53 389.24 C 633.90 389.98, 635.15 390.69, 637.25 391.49 C 639.34 392.29, 639.96 392.60, 640.99 393.24 C 642.03 393.88, 642.03 394.45, 642.40 394.67 C 642.76 394.90, 642.95 394.84, 642.81 394.37 C 642.67 393.90, 642.68 393.22, 641.69 392.32 C 640.71 391.43, 640.06 390.83, 637.89 389.91 C 635.72 388.98, 634.33 388.38, 630.85 387.68 C 627.37 386.99, 625.10 386.78, 620.48 386.42 C 615.86 386.07, 613.03 385.96, 607.75 385.89 C 602.46 385.83, 599.37 386.00, 594.03 386.08 C 588.70 386.17, 585.85 386.26, 581.09 386.30 C 576.32 386.35, 574.09 386.36, 570.23 386.30 C 566.36 386.24, 564.47 385.99, 561.75 386.02 C 559.04 386.05, 558.18 386.30, 556.65 386.46 C 555.12 386.61, 554.62 386.58, 554.10 386.81 C 553.58 387.05, 553.55 387.35, 554.05 387.63" style="stroke: white; fill: white;"/><path d="M 644.29,463.95 C 643.90 464.88, 643.66 466.16, 643.27 468.72 C 642.88 471.28, 642.76 473.09, 642.35 476.73 C 641.95 480.36, 641.70 483.06, 641.23 486.87 C 640.76 490.69, 640.37 492.58, 640.01 495.79 C 639.65 499.01, 639.39 500.82, 639.44 502.96 C 639.49 505.11, 639.66 506.01, 640.25 506.52 C 640.84 507.02, 641.48 506.77, 642.40 505.50 C 643.32 504.24, 643.93 502.95, 644.84 500.19 C 645.75 497.43, 646.05 495.29, 646.95 491.70 C 647.84 488.12, 648.35 485.93, 649.32 482.25 C 650.30 478.58, 650.83 476.58, 651.84 473.31 C 652.84 470.04, 653.45 468.45, 654.35 465.89 C 655.25 463.34, 655.66 462.21, 656.33 460.53 C 657.00 458.84, 657.24 458.17, 657.69 457.48 C 658.14 456.79, 658.14 456.76, 658.60 457.07 C 659.06 457.38, 659.19 457.96, 660.00 459.02 C 660.81 460.07, 661.30 460.93, 662.65 462.34 C 664.00 463.76, 664.91 464.73, 666.76 466.09 C 668.62 467.45, 669.71 468.20, 671.92 469.13 C 674.12 470.07, 675.18 470.52, 677.79 470.78 C 680.40 471.04, 681.99 470.98, 684.97 470.44 C 687.95 469.90, 689.59 469.35, 692.69 468.06 C 695.79 466.78, 697.43 465.83, 700.46 464.01 C 703.48 462.19, 705.16 461.12, 707.80 458.98 C 710.45 456.83, 711.78 455.53, 713.70 453.30 C 715.62 451.06, 716.38 449.80, 717.39 447.80 C 718.40 445.80, 718.76 444.80, 718.76 443.30 C 718.77 441.80, 718.47 441.03, 717.43 440.28 C 716.38 439.54, 715.40 439.27, 713.53 439.56 C 711.67 439.85, 710.38 440.26, 708.11 441.73 C 705.84 443.21, 704.54 444.41, 702.18 446.93 C 699.83 449.45, 698.53 451.07, 696.34 454.35 C 694.14 457.63, 692.90 459.58, 691.22 463.32 C 689.54 467.05, 688.80 469.29, 687.94 473.01 C 687.09 476.72, 686.86 478.63, 686.95 481.91 C 687.03 485.19, 687.26 486.79, 688.39 489.40 C 689.52 492.01, 690.61 493.19, 692.61 494.96 C 694.61 496.73, 695.83 497.51, 698.38 498.25 C 700.94 498.99, 702.39 499.16, 705.39 498.67 C 708.40 498.19, 710.11 497.43, 713.41 495.83 C 716.71 494.22, 718.47 493.12, 721.90 490.66 C 725.33 488.21, 727.21 486.64, 730.55 483.55 C 733.88 480.47, 735.54 478.55, 738.57 475.24 C 741.59 471.93, 743.09 470.08, 745.66 467.01 C 748.24 463.93, 749.55 462.40, 751.45 459.87 C 753.36 457.34, 754.15 456.25, 755.18 454.34 C 756.20 452.44, 756.56 451.57, 756.58 450.33 C 756.60 449.10, 756.29 448.50, 755.28 448.17 C 754.26 447.84, 753.37 447.80, 751.51 448.68 C 749.65 449.56, 748.33 450.44, 745.97 452.57 C 743.61 454.70, 742.19 456.30, 739.72 459.33 C 737.25 462.36, 735.79 464.22, 733.64 467.71 C 731.49 471.19, 730.26 473.24, 728.97 476.77 C 727.68 480.29, 727.15 482.14, 727.18 485.31 C 727.22 488.48, 727.59 490.08, 729.14 492.63 C 730.70 495.18, 732.13 496.37, 734.93 498.05 C 737.74 499.72, 739.67 500.27, 743.17 501.01 C 746.67 501.75, 748.63 501.78, 752.43 501.73 C 756.22 501.69, 758.32 501.56, 762.15 500.80 C 765.97 500.04, 768.13 499.15, 771.55 497.95 C 774.97 496.76, 776.84 496.03, 779.23 494.84 C 781.62 493.65, 782.71 492.69, 783.50 491.99 C 784.28 491.29, 784.16 491.11, 783.16 491.35 C 782.16 491.60, 780.95 492.24, 778.51 493.22 C 776.06 494.19, 774.28 495.03, 770.94 496.22 C 767.60 497.40, 765.52 498.37, 761.81 499.13 C 758.11 499.89, 756.06 499.99, 752.41 500.00 C 748.76 500.02, 746.85 499.93, 743.55 499.21 C 740.25 498.50, 738.47 497.93, 735.90 496.42 C 733.33 494.91, 732.11 493.88, 730.72 491.66 C 729.33 489.43, 728.98 488.15, 728.96 485.29 C 728.93 482.43, 729.35 480.69, 730.58 477.36 C 731.81 474.02, 732.98 471.98, 735.11 468.63 C 737.24 465.27, 738.71 463.44, 741.22 460.60 C 743.72 457.76, 745.35 456.43, 747.63 454.42 C 749.90 452.41, 751.09 451.60, 752.59 450.55 C 754.09 449.49, 754.55 449.23, 755.12 449.15 C 755.69 449.07, 755.71 449.30, 755.42 450.16 C 755.12 451.02, 754.72 451.72, 753.64 453.45 C 752.55 455.17, 751.82 456.27, 749.99 458.78 C 748.15 461.30, 746.96 462.92, 744.46 466.01 C 741.96 469.11, 740.47 470.96, 737.48 474.25 C 734.50 477.54, 732.84 479.44, 729.54 482.45 C 726.23 485.47, 724.34 486.99, 720.96 489.33 C 717.58 491.68, 715.81 492.71, 712.63 494.17 C 709.45 495.63, 707.81 496.21, 705.07 496.65 C 702.32 497.09, 701.16 497.00, 698.92 496.37 C 696.69 495.74, 695.65 495.06, 693.90 493.51 C 692.14 491.96, 691.16 490.97, 690.13 488.64 C 689.10 486.31, 688.84 484.90, 688.74 481.85 C 688.63 478.80, 688.79 476.95, 689.59 473.38 C 690.39 469.81, 691.10 467.61, 692.74 464.01 C 694.39 460.40, 695.63 458.48, 697.82 455.37 C 700.02 452.25, 701.38 450.73, 703.71 448.42 C 706.05 446.11, 707.44 445.21, 709.50 443.83 C 711.55 442.45, 712.54 442.00, 714.00 441.51 C 715.45 441.01, 716.09 441.00, 716.76 441.34 C 717.42 441.67, 717.53 442.07, 717.32 443.18 C 717.10 444.28, 716.73 445.12, 715.69 446.87 C 714.64 448.61, 713.91 449.80, 712.09 451.92 C 710.27 454.04, 709.10 455.39, 706.58 457.48 C 704.06 459.57, 702.41 460.63, 699.48 462.37 C 696.55 464.11, 694.91 465.01, 691.93 466.19 C 688.95 467.37, 687.36 467.78, 684.58 468.27 C 681.80 468.76, 680.36 468.86, 678.01 468.63 C 675.66 468.40, 674.76 468.02, 672.82 467.10 C 670.88 466.19, 669.97 465.40, 668.32 464.07 C 666.66 462.74, 665.92 461.76, 664.56 460.45 C 663.20 459.13, 662.64 458.40, 661.53 457.50 C 660.41 456.61, 659.92 456.16, 658.97 455.99 C 658.02 455.82, 657.62 455.88, 656.77 456.64 C 655.91 457.40, 655.55 458.06, 654.68 459.78 C 653.81 461.49, 653.32 462.61, 652.40 465.21 C 651.48 467.81, 651.04 469.46, 650.06 472.78 C 649.09 476.09, 648.58 478.09, 647.53 481.76 C 646.49 485.43, 645.88 487.60, 644.84 491.13 C 643.80 494.66, 643.09 496.69, 642.33 499.43 C 641.57 502.18, 641.38 503.50, 641.05 504.86 C 640.72 506.22, 640.65 506.60, 640.69 506.24 C 640.73 505.88, 641.00 505.10, 641.26 503.06 C 641.53 501.02, 641.65 499.21, 642.03 496.03 C 642.41 492.84, 642.69 490.93, 643.17 487.11 C 643.65 483.30, 643.99 480.60, 644.41 476.96 C 644.84 473.32, 645.13 471.52, 645.28 468.93 C 645.43 466.34, 645.38 465.03, 645.18 464.03 C 644.98 463.03, 644.67 463.01, 644.29 463.95" style="stroke: white; fill: white;"/></svg>