<svg xmlns="http://www.w3.org/2000/svg" id="canvas" viewBox="138.205 391.885 598.790 84.083"><path d="M 153.44,404.08 C 153.15 404.67, 153.07 405.49, 152.83 407.07 C 152.58 408.64, 152.49 409.65, 152.22 411.96 C 151.95 414.26, 151.93 415.76, 151.48 418.59 C 151.03 421.41, 150.69 423.00, 149.97 426.09 C 149.25 429.17, 148.77 430.81, 147.89 434.03 C 147.00 437.24, 146.43 439.03, 145.55 442.15 C 144.68 445.26, 144.19 446.87, 143.50 449.61 C 142.81 452.34, 142.54 453.62, 142.10 455.83 C 141.66 458.04, 141.48 459.15, 141.31 460.68 C 141.14 462.21, 141.22 462.69, 141.25 463.49 C 141.29 464.29, 141.36 464.37, 141.48 464.67 C 141.60 464.96, 141.74 464.92, 141.85 464.95 C 141.97 464.99, 141.99 464.90, 142.03 464.83 C 142.07 464.77, 141.98 464.89, 142.08 464.64 C 142.17 464.40, 142.33 464.35, 142.51 463.61 C 142.69 462.87, 142.69 462.41, 142.97 460.93 C 143.25 459.45, 143.43 458.38, 143.92 456.22 C 144.41 454.05, 144.74 452.80, 145.42 450.09 C 146.10 447.37, 146.47 445.75, 147.31 442.63 C 148.16 439.52, 148.72 437.73, 149.63 434.51 C 150.54 431.30, 151.04 429.66, 151.86 426.56 C 152.68 423.45, 153.21 421.85, 153.74 418.98 C 154.27 416.10, 154.34 414.54, 154.52 412.18 C 154.70 409.82, 154.68 408.79, 154.63 407.18 C 154.58 405.56, 154.50 404.73, 154.27 404.11 C 154.03 403.49, 153.73 403.49, 153.44 404.08" style="stroke: white; fill: white;"/><path d="M 161.12,403.53 C 161.79 403.36, 162.43 402.73, 163.95 402.02 C 165.47 401.31, 166.53 400.82, 168.73 400.00 C 170.94 399.17, 172.42 398.51, 174.99 397.92 C 177.55 397.33, 179.18 397.19, 181.55 397.04 C 183.93 396.89, 185.07 396.93, 186.88 397.16 C 188.69 397.40, 189.52 397.53, 190.61 398.21 C 191.70 398.89, 192.03 399.49, 192.34 400.56 C 192.66 401.62, 192.63 402.16, 192.19 403.54 C 191.75 404.91, 191.38 405.62, 190.15 407.43 C 188.92 409.25, 188.08 410.42, 186.03 412.61 C 183.98 414.81, 182.56 416.16, 179.90 418.41 C 177.23 420.66, 175.53 421.88, 172.70 423.86 C 169.87 425.84, 168.18 426.79, 165.75 428.32 C 163.32 429.86, 162.08 430.49, 160.57 431.53 C 159.05 432.58, 158.58 432.91, 158.19 433.53 C 157.81 434.14, 157.93 434.31, 158.62 434.60 C 159.31 434.90, 160.02 434.93, 161.63 435.02 C 163.23 435.10, 164.40 434.97, 166.66 435.03 C 168.91 435.10, 170.38 435.08, 172.91 435.35 C 175.43 435.62, 176.93 435.80, 179.28 436.40 C 181.63 436.99, 182.88 437.39, 184.65 438.33 C 186.42 439.26, 187.15 439.86, 188.12 441.08 C 189.09 442.29, 189.33 442.97, 189.51 444.39 C 189.69 445.80, 189.63 446.62, 189.02 448.15 C 188.41 449.68, 187.85 450.48, 186.45 452.05 C 185.05 453.62, 184.07 454.41, 182.00 456.00 C 179.94 457.58, 178.61 458.54, 176.12 459.99 C 173.63 461.44, 172.14 462.12, 169.55 463.26 C 166.97 464.40, 165.71 464.89, 163.21 465.68 C 160.70 466.47, 159.37 466.75, 157.03 467.21 C 154.70 467.67, 153.47 467.79, 151.54 467.99 C 149.60 468.18, 148.77 468.22, 147.34 468.19 C 145.92 468.16, 145.22 468.02, 144.39 467.85 C 143.57 467.68, 143.43 467.65, 143.23 467.34 C 143.03 467.03, 143.49 466.54, 143.40 466.30 C 143.31 466.07, 142.97 465.87, 142.76 466.16 C 142.55 466.45, 142.12 467.14, 142.35 467.75 C 142.58 468.37, 142.94 468.81, 143.92 469.25 C 144.90 469.69, 145.70 469.82, 147.25 469.95 C 148.81 470.07, 149.67 470.03, 151.70 469.87 C 153.73 469.71, 154.99 469.61, 157.41 469.15 C 159.83 468.69, 161.21 468.38, 163.80 467.58 C 166.39 466.78, 167.69 466.29, 170.37 465.14 C 173.05 463.99, 174.59 463.32, 177.19 461.85 C 179.79 460.37, 181.20 459.45, 183.37 457.76 C 185.54 456.07, 186.55 455.20, 188.03 453.41 C 189.51 451.61, 190.15 450.64, 190.77 448.79 C 191.40 446.94, 191.43 445.90, 191.16 444.16 C 190.90 442.41, 190.56 441.55, 189.45 440.05 C 188.34 438.55, 187.51 437.81, 185.59 436.66 C 183.68 435.51, 182.34 435.04, 179.86 434.30 C 177.39 433.56, 175.84 433.35, 173.21 432.95 C 170.58 432.56, 169.06 432.39, 166.72 432.35 C 164.38 432.31, 163.11 432.48, 161.49 432.75 C 159.88 433.03, 159.21 433.44, 158.64 433.71 C 158.07 433.98, 158.09 434.24, 158.65 434.10 C 159.21 433.96, 159.80 433.82, 161.43 433.00 C 163.06 432.18, 164.35 431.55, 166.82 430.02 C 169.28 428.49, 170.89 427.37, 173.74 425.34 C 176.60 423.30, 178.32 422.10, 181.09 419.85 C 183.86 417.60, 185.43 416.35, 187.59 414.10 C 189.76 411.85, 190.68 410.61, 191.94 408.59 C 193.20 406.57, 193.52 405.69, 193.90 403.99 C 194.27 402.29, 194.29 401.50, 193.81 400.09 C 193.32 398.67, 192.80 397.86, 191.48 396.91 C 190.15 395.97, 189.18 395.78, 187.18 395.38 C 185.18 394.97, 184.02 394.86, 181.48 394.89 C 178.93 394.92, 177.18 394.95, 174.46 395.53 C 171.73 396.11, 170.13 396.80, 167.85 397.78 C 165.56 398.76, 164.47 399.41, 163.03 400.42 C 161.58 401.44, 161.00 402.24, 160.62 402.86 C 160.24 403.48, 160.46 403.69, 161.12 403.53" style="stroke: white; fill: white;"/><path d="M 231.74,413.27 C 231.29 413.78, 231.02 414.58, 230.29 416.12 C 229.56 417.66, 229.09 418.56, 228.09 420.97 C 227.09 423.39, 226.57 425.22, 225.28 428.18 C 223.98 431.13, 223.27 432.66, 221.63 435.76 C 220.00 438.86, 218.82 440.62, 217.11 443.68 C 215.40 446.75, 214.52 448.32, 213.07 451.07 C 211.63 453.82, 210.90 455.14, 209.89 457.44 C 208.88 459.73, 208.36 460.91, 208.02 462.53 C 207.68 464.15, 207.92 464.68, 208.18 465.55 C 208.45 466.41, 208.81 466.55, 209.33 466.84 C 209.85 467.12, 210.47 467.09, 210.78 466.97 C 211.09 466.86, 211.08 466.44, 210.88 466.25 C 210.68 466.06, 210.10 466.22, 209.78 466.03 C 209.45 465.85, 209.28 465.95, 209.24 465.33 C 209.19 464.71, 209.08 464.37, 209.56 462.94 C 210.04 461.52, 210.60 460.43, 211.63 458.22 C 212.65 456.01, 213.30 454.65, 214.70 451.91 C 216.10 449.17, 216.91 447.58, 218.61 444.52 C 220.31 441.46, 221.50 439.71, 223.21 436.61 C 224.92 433.51, 225.75 431.99, 227.16 429.04 C 228.57 426.09, 229.32 424.32, 230.27 421.85 C 231.23 419.39, 231.49 418.39, 231.94 416.72 C 232.39 415.06, 232.56 414.22, 232.52 413.53 C 232.48 412.84, 232.19 412.75, 231.74 413.27" style="stroke: white; fill: white;"/><path d="M 262.87,438.20 C 262.45 437.98, 261.95 437.78, 260.83 437.90 C 259.71 438.01, 258.89 438.06, 257.28 438.78 C 255.67 439.50, 254.63 440.13, 252.77 441.49 C 250.90 442.84, 249.89 443.84, 247.96 445.54 C 246.03 447.25, 244.84 448.24, 243.11 450.03 C 241.39 451.81, 240.57 452.80, 239.34 454.48 C 238.10 456.15, 237.44 456.91, 236.94 458.40 C 236.44 459.89, 236.31 460.68, 236.82 461.91 C 237.32 463.14, 237.98 463.85, 239.47 464.55 C 240.96 465.25, 242.01 465.40, 244.27 465.42 C 246.53 465.44, 247.94 465.27, 250.78 464.65 C 253.61 464.04, 255.39 463.41, 258.44 462.35 C 261.49 461.29, 263.18 460.62, 266.04 459.35 C 268.91 458.07, 270.34 457.42, 272.76 455.98 C 275.19 454.54, 276.40 453.72, 278.17 452.16 C 279.94 450.60, 280.72 449.74, 281.61 448.17 C 282.50 446.60, 282.73 445.75, 282.61 444.33 C 282.49 442.91, 282.08 442.22, 281.02 441.07 C 279.97 439.91, 279.07 439.28, 277.33 438.55 C 275.60 437.83, 274.36 437.60, 272.35 437.44 C 270.34 437.27, 269.11 437.36, 267.27 437.71 C 265.44 438.07, 263.96 438.74, 263.19 439.22 C 262.41 439.70, 262.53 440.02, 263.39 440.12 C 264.26 440.21, 265.77 439.80, 267.52 439.72 C 269.27 439.64, 270.33 439.55, 272.14 439.72 C 273.95 439.89, 275.03 440.06, 276.57 440.58 C 278.11 441.09, 278.91 441.52, 279.84 442.29 C 280.77 443.06, 281.16 443.43, 281.23 444.44 C 281.31 445.44, 281.07 446.05, 280.22 447.31 C 279.36 448.57, 278.64 449.34, 276.95 450.73 C 275.25 452.12, 274.09 452.90, 271.75 454.26 C 269.41 455.63, 268.05 456.34, 265.26 457.57 C 262.47 458.79, 260.78 459.44, 257.79 460.40 C 254.79 461.36, 253.00 461.79, 250.28 462.36 C 247.57 462.93, 246.26 463.13, 244.22 463.25 C 242.18 463.37, 241.34 463.32, 240.10 462.94 C 238.87 462.57, 238.39 462.18, 238.04 461.39 C 237.70 460.60, 237.83 460.13, 238.39 458.99 C 238.96 457.85, 239.62 457.17, 240.87 455.69 C 242.13 454.21, 242.94 453.26, 244.67 451.58 C 246.40 449.91, 247.61 448.96, 249.51 447.34 C 251.42 445.71, 252.45 444.76, 254.21 443.46 C 255.97 442.16, 256.90 441.61, 258.30 440.84 C 259.70 440.06, 260.30 439.94, 261.23 439.57 C 262.16 439.21, 262.60 439.26, 262.93 438.99 C 263.26 438.71, 263.29 438.42, 262.87 438.20" style="stroke: white; fill: white;"/><path d="M 313.73,445.58 C 313.35 445.44, 313.00 445.53, 312.10 445.65 C 311.21 445.76, 310.64 445.71, 309.25 446.15 C 307.87 446.59, 306.94 447.01, 305.18 447.84 C 303.42 448.68, 302.31 449.14, 300.45 450.33 C 298.58 451.53, 297.45 452.41, 295.85 453.83 C 294.25 455.25, 293.43 456.02, 292.44 457.43 C 291.45 458.85, 291.07 459.62, 290.89 460.91 C 290.71 462.20, 290.80 462.83, 291.54 463.89 C 292.28 464.96, 293.03 465.58, 294.59 466.23 C 296.15 466.88, 297.27 467.07, 299.36 467.16 C 301.45 467.24, 302.65 467.08, 305.03 466.66 C 307.41 466.24, 308.79 465.93, 311.24 465.07 C 313.70 464.20, 315.09 463.61, 317.29 462.34 C 319.49 461.06, 320.54 460.18, 322.24 458.68 C 323.94 457.19, 324.73 456.39, 325.78 454.86 C 326.84 453.34, 327.23 452.56, 327.52 451.06 C 327.81 449.55, 327.70 448.67, 327.25 447.33 C 326.80 446.00, 326.35 445.35, 325.27 444.38 C 324.19 443.42, 323.29 443.04, 321.85 442.52 C 320.40 441.99, 319.45 441.87, 318.06 441.76 C 316.68 441.65, 315.91 441.78, 314.94 441.98 C 313.96 442.18, 313.53 442.47, 313.20 442.75 C 312.88 443.02, 312.95 443.20, 313.31 443.37 C 313.67 443.53, 314.10 443.45, 315.00 443.56 C 315.90 443.68, 316.57 443.75, 317.81 443.95 C 319.04 444.15, 319.90 444.19, 321.16 444.57 C 322.42 444.94, 323.19 445.16, 324.09 445.82 C 325.00 446.48, 325.33 446.90, 325.70 447.88 C 326.06 448.86, 326.19 449.54, 325.92 450.72 C 325.65 451.91, 325.34 452.52, 324.34 453.81 C 323.35 455.10, 322.57 455.83, 320.95 457.17 C 319.33 458.50, 318.32 459.33, 316.23 460.49 C 314.15 461.65, 312.84 462.18, 310.52 462.97 C 308.20 463.76, 306.86 464.06, 304.64 464.44 C 302.42 464.83, 301.30 464.92, 299.42 464.90 C 297.55 464.88, 296.61 464.71, 295.27 464.33 C 293.92 463.95, 293.28 463.61, 292.68 462.98 C 292.09 462.36, 292.03 462.06, 292.28 461.19 C 292.53 460.31, 292.93 459.73, 293.93 458.60 C 294.94 457.47, 295.73 456.78, 297.29 455.53 C 298.85 454.28, 299.93 453.45, 301.72 452.36 C 303.51 451.26, 304.57 450.86, 306.24 450.05 C 307.91 449.24, 308.78 448.85, 310.05 448.30 C 311.32 447.75, 311.81 447.68, 312.60 447.29 C 313.38 446.90, 313.76 446.68, 313.98 446.34 C 314.21 445.99, 314.10 445.71, 313.73 445.58" style="stroke: white; fill: white;"/><path d="M 345.21,441.46 C 344.90 441.56, 344.90 441.67, 344.23 442.27 C 343.56 442.88, 342.93 443.27, 341.87 444.48 C 340.82 445.69, 340.15 446.67, 338.97 448.32 C 337.78 449.97, 337.06 451.00, 335.93 452.72 C 334.80 454.44, 334.10 455.41, 333.31 456.90 C 332.52 458.39, 332.25 459.16, 331.97 460.17 C 331.68 461.19, 331.62 461.53, 331.89 461.98 C 332.17 462.43, 332.55 462.60, 333.34 462.42 C 334.13 462.24, 334.71 461.96, 335.86 461.09 C 337.01 460.22, 337.64 459.51, 339.09 458.08 C 340.54 456.66, 341.39 455.71, 343.11 453.97 C 344.83 452.24, 345.84 451.15, 347.69 449.40 C 349.54 447.65, 350.61 446.68, 352.37 445.21 C 354.12 443.74, 355.13 443.03, 356.46 442.06 C 357.79 441.08, 358.31 440.62, 359.03 440.33 C 359.75 440.04, 359.91 440.19, 360.06 440.63 C 360.21 441.07, 360.14 441.49, 359.79 442.52 C 359.44 443.56, 358.95 444.30, 358.31 445.82 C 357.66 447.34, 357.38 448.50, 356.57 450.13 C 355.75 451.75, 355.14 452.56, 354.25 453.94 C 353.35 455.32, 352.70 456.00, 352.07 457.04 C 351.45 458.08, 351.18 458.62, 351.12 459.14 C 351.06 459.67, 351.26 459.90, 351.77 459.66 C 352.28 459.43, 352.67 458.97, 353.67 457.98 C 354.68 456.99, 355.27 456.14, 356.78 454.71 C 358.28 453.28, 359.22 452.38, 361.20 450.83 C 363.18 449.27, 364.46 448.33, 366.67 446.92 C 368.88 445.50, 370.14 444.79, 372.24 443.73 C 374.35 442.68, 375.45 442.29, 377.20 441.64 C 378.96 440.98, 379.79 440.70, 381.02 440.45 C 382.25 440.21, 382.70 440.18, 383.36 440.41 C 384.03 440.64, 384.18 440.91, 384.33 441.62 C 384.48 442.32, 384.36 442.78, 384.11 443.94 C 383.85 445.10, 383.61 445.89, 383.07 447.42 C 382.53 448.95, 382.12 449.86, 381.42 451.58 C 380.72 453.29, 380.19 454.33, 379.55 455.99 C 378.92 457.66, 378.53 458.48, 378.25 459.92 C 377.98 461.35, 377.88 462.07, 378.18 463.17 C 378.47 464.28, 378.84 464.78, 379.72 465.43 C 380.61 466.09, 381.37 466.25, 382.59 466.44 C 383.81 466.64, 384.70 466.53, 385.82 466.39 C 386.94 466.25, 387.42 466.05, 388.17 465.75 C 388.93 465.46, 389.35 465.23, 389.60 464.93 C 389.86 464.64, 389.79 464.44, 389.45 464.29 C 389.11 464.13, 388.67 464.19, 387.91 464.15 C 387.15 464.11, 386.67 464.06, 385.64 464.08 C 384.61 464.11, 383.78 464.27, 382.76 464.29 C 381.74 464.30, 381.16 464.42, 380.52 464.14 C 379.89 463.86, 379.69 463.63, 379.59 462.88 C 379.50 462.12, 379.66 461.58, 380.06 460.38 C 380.45 459.17, 380.87 458.41, 381.58 456.83 C 382.29 455.26, 382.86 454.23, 383.60 452.49 C 384.34 450.75, 384.79 449.80, 385.30 448.15 C 385.80 446.49, 386.05 445.60, 386.13 444.20 C 386.21 442.80, 386.16 442.13, 385.71 441.13 C 385.26 440.13, 384.85 439.66, 383.87 439.21 C 382.89 438.75, 382.25 438.72, 380.80 438.85 C 379.34 438.98, 378.48 439.26, 376.59 439.86 C 374.70 440.46, 373.57 440.83, 371.34 441.86 C 369.12 442.89, 367.79 443.59, 365.47 444.99 C 363.15 446.40, 361.84 447.34, 359.73 448.90 C 357.63 450.46, 356.51 451.26, 354.94 452.79 C 353.36 454.32, 352.65 455.26, 351.85 456.54 C 351.06 457.82, 350.98 458.54, 350.97 459.18 C 350.95 459.81, 351.26 459.89, 351.79 459.70 C 352.32 459.51, 352.78 459.14, 353.64 458.23 C 354.49 457.33, 355.04 456.58, 356.06 455.18 C 357.07 453.79, 357.80 452.94, 358.72 451.25 C 359.63 449.55, 360.05 448.39, 360.64 446.71 C 361.22 445.03, 361.58 444.18, 361.65 442.85 C 361.71 441.52, 361.53 440.82, 360.96 440.08 C 360.39 439.33, 359.89 439.04, 358.79 439.13 C 357.69 439.21, 357.01 439.61, 355.45 440.49 C 353.90 441.38, 352.89 442.10, 351.02 443.54 C 349.16 444.99, 348.06 445.98, 346.14 447.72 C 344.21 449.47, 343.18 450.55, 341.42 452.26 C 339.65 453.98, 338.73 454.87, 337.31 456.29 C 335.89 457.71, 335.24 458.37, 334.31 459.36 C 333.39 460.36, 333.06 460.77, 332.68 461.26 C 332.29 461.76, 332.26 461.94, 332.40 461.85 C 332.54 461.76, 332.84 461.60, 333.38 460.82 C 333.92 460.04, 334.20 459.32, 335.10 457.97 C 336.00 456.62, 336.68 455.69, 337.87 454.07 C 339.07 452.45, 339.87 451.47, 341.06 449.86 C 342.26 448.25, 342.96 447.34, 343.87 446.03 C 344.77 444.71, 345.22 444.13, 345.61 443.28 C 346.00 442.42, 345.89 442.13, 345.81 441.77 C 345.73 441.40, 345.53 441.36, 345.21 441.46" style="stroke: white; fill: white;"/><path d="M 520.65,421.51 C 520.34 421.72, 520.28 421.96, 519.79 422.75 C 519.30 423.53, 518.89 424.00, 518.21 425.42 C 517.53 426.84, 517.17 427.84, 516.39 429.85 C 515.60 431.86, 515.35 433.11, 514.30 435.47 C 513.24 437.84, 512.54 439.03, 511.11 441.65 C 509.68 444.28, 508.68 445.82, 507.15 448.59 C 505.62 451.36, 504.81 452.86, 503.47 455.50 C 502.14 458.14, 501.55 459.49, 500.48 461.78 C 499.41 464.08, 498.85 465.22, 498.13 466.98 C 497.41 468.74, 497.19 469.48, 496.88 470.61 C 496.56 471.73, 496.52 472.16, 496.55 472.60 C 496.59 473.03, 496.74 473.08, 497.04 472.77 C 497.34 472.47, 497.49 472.09, 498.04 471.08 C 498.59 470.07, 498.94 469.42, 499.78 467.73 C 500.63 466.04, 501.16 464.89, 502.26 462.63 C 503.35 460.36, 503.92 459.01, 505.25 456.39 C 506.57 453.78, 507.33 452.29, 508.86 449.54 C 510.40 446.80, 511.44 445.30, 512.94 442.67 C 514.44 440.05, 515.22 438.81, 516.36 436.43 C 517.50 434.04, 517.84 432.75, 518.64 430.73 C 519.43 428.71, 519.80 427.80, 520.35 426.33 C 520.89 424.86, 521.16 424.31, 521.36 423.39 C 521.57 422.47, 521.51 422.10, 521.37 421.73 C 521.22 421.35, 520.97 421.31, 520.65 421.51" style="stroke: white; fill: white;"/><path d="M 509.63,420.40 C 510.13 420.29, 510.43 419.81, 511.60 419.28 C 512.77 418.75, 513.48 418.43, 515.46 417.74 C 517.45 417.04, 518.86 416.49, 521.51 415.80 C 524.15 415.11, 525.79 414.75, 528.69 414.29 C 531.58 413.84, 533.09 413.74, 535.98 413.52 C 538.87 413.29, 540.46 413.19, 543.14 413.17 C 545.83 413.14, 547.20 413.16, 549.41 413.40 C 551.61 413.65, 552.69 413.87, 554.16 414.40 C 555.63 414.93, 555.95 415.45, 556.75 416.05 C 557.55 416.66, 557.73 416.95, 558.16 417.42 C 558.60 417.90, 558.65 418.27, 558.91 418.42 C 559.17 418.58, 559.41 418.52, 559.45 418.19 C 559.49 417.85, 559.47 417.42, 559.12 416.76 C 558.77 416.11, 558.57 415.70, 557.71 414.91 C 556.84 414.12, 556.40 413.49, 554.79 412.81 C 553.18 412.12, 551.99 411.81, 549.66 411.47 C 547.32 411.14, 545.89 411.12, 543.13 411.13 C 540.36 411.14, 538.78 411.30, 535.83 411.51 C 532.88 411.72, 531.37 411.81, 528.39 412.18 C 525.40 412.55, 523.66 412.71, 520.90 413.38 C 518.14 414.05, 516.64 414.66, 514.60 415.54 C 512.56 416.43, 511.80 416.96, 510.71 417.82 C 509.61 418.67, 509.33 419.29, 509.11 419.81 C 508.90 420.32, 509.13 420.50, 509.63 420.40" style="stroke: white; fill: white;"/><path d="M 508.55,446.88 C 509.09 446.99, 509.71 446.89, 511.03 446.64 C 512.36 446.38, 513.15 446.07, 515.15 445.62 C 517.16 445.17, 518.56 444.86, 521.06 444.39 C 523.56 443.92, 525.03 443.69, 527.66 443.25 C 530.28 442.82, 531.80 442.62, 534.18 442.22 C 536.56 441.81, 537.77 441.55, 539.54 441.22 C 541.32 440.89, 542.35 440.83, 543.04 440.56 C 543.73 440.29, 543.73 440.06, 543.00 439.87 C 542.27 439.68, 541.20 439.56, 539.37 439.61 C 537.55 439.65, 536.29 439.83, 533.88 440.11 C 531.47 440.38, 529.96 440.61, 527.31 440.99 C 524.66 441.36, 523.16 441.50, 520.61 441.97 C 518.06 442.44, 516.58 442.73, 514.56 443.32 C 512.54 443.92, 511.75 444.39, 510.50 444.95 C 509.25 445.51, 508.71 445.73, 508.32 446.12 C 507.93 446.50, 508.01 446.78, 508.55 446.88" style="stroke: white; fill: white;"/><path d="M 564.55,447.07 C 564.17 447.17, 563.91 447.31, 563.26 447.96 C 562.61 448.61, 562.15 449.14, 561.31 450.30 C 560.46 451.46, 559.90 452.23, 559.04 453.77 C 558.18 455.31, 557.73 456.35, 557.01 458.00 C 556.29 459.65, 555.96 460.55, 555.43 462.02 C 554.89 463.48, 554.59 464.09, 554.36 465.33 C 554.12 466.58, 554.00 467.35, 554.27 468.23 C 554.54 469.11, 554.99 469.55, 555.73 469.74 C 556.46 469.93, 557.21 469.58, 557.93 469.16 C 558.66 468.73, 559.04 468.28, 559.35 467.60 C 559.66 466.92, 559.63 466.19, 559.48 465.75 C 559.33 465.32, 558.98 465.26, 558.60 465.42 C 558.22 465.57, 557.96 466.09, 557.59 466.54 C 557.22 466.99, 557.10 467.25, 556.75 467.66 C 556.41 468.08, 556.08 468.56, 555.86 468.63 C 555.64 468.70, 555.59 468.60, 555.64 468.03 C 555.70 467.45, 555.81 466.83, 556.14 465.77 C 556.47 464.72, 556.72 464.12, 557.31 462.76 C 557.90 461.40, 558.31 460.53, 559.09 458.98 C 559.88 457.42, 560.37 456.47, 561.22 455.00 C 562.07 453.54, 562.64 452.84, 563.35 451.64 C 564.05 450.43, 564.38 449.80, 564.74 448.97 C 565.10 448.15, 565.19 447.88, 565.15 447.50 C 565.11 447.12, 564.92 446.98, 564.55 447.07" style="stroke: white; fill: white;"/><path d="M 574.70,422.33 C 574.70 422.11, 574.43 422.19, 574.32 422.47 C 574.21 422.75, 574.11 423.51, 574.16 423.75 C 574.21 423.99, 574.46 423.98, 574.57 423.68 C 574.68 423.37, 574.73 422.55, 574.71 422.23 C 574.69 421.92, 574.58 421.88, 574.47 422.10 C 574.36 422.31, 574.20 422.99, 574.17 423.29 C 574.14 423.59, 574.21 423.78, 574.32 423.59 C 574.43 423.40, 574.70 422.55, 574.70 422.33" style="stroke: white; fill: white;"/><path d="M 603.13,412.68 C 602.66 412.91, 602.32 413.26, 601.42 414.29 C 600.53 415.31, 599.99 415.98, 598.67 417.81 C 597.34 419.64, 596.49 420.89, 594.79 423.45 C 593.08 426.01, 592.08 427.63, 590.14 430.61 C 588.20 433.58, 587.03 435.27, 585.10 438.32 C 583.17 441.37, 582.12 442.96, 580.49 445.86 C 578.85 448.75, 578.03 450.19, 576.92 452.79 C 575.80 455.38, 575.53 456.65, 574.91 458.82 C 574.28 460.99, 573.97 461.92, 573.79 463.63 C 573.62 465.35, 573.69 466.16, 574.03 467.41 C 574.36 468.66, 574.76 469.15, 575.47 469.89 C 576.18 470.63, 576.80 470.85, 577.56 471.10 C 578.33 471.35, 578.92 471.28, 579.30 471.14 C 579.68 470.99, 579.70 470.67, 579.47 470.39 C 579.24 470.10, 578.73 470.01, 578.15 469.70 C 577.57 469.39, 577.10 469.35, 576.57 468.82 C 576.05 468.29, 575.73 468.04, 575.50 467.04 C 575.28 466.05, 575.23 465.38, 575.45 463.84 C 575.67 462.30, 575.98 461.39, 576.62 459.33 C 577.26 457.27, 577.59 456.06, 578.67 453.54 C 579.74 451.01, 580.43 449.56, 582.00 446.70 C 583.58 443.84, 584.61 442.25, 586.54 439.24 C 588.48 436.23, 589.66 434.55, 591.68 431.65 C 593.70 428.74, 594.86 427.23, 596.64 424.72 C 598.42 422.22, 599.34 421.02, 600.58 419.13 C 601.82 417.23, 602.20 416.46, 602.83 415.25 C 603.47 414.05, 603.69 413.63, 603.75 413.12 C 603.81 412.60, 603.60 412.44, 603.13 412.68" style="stroke: white; fill: white;"/><path d="M 630.19,418.58 C 629.78 418.85, 629.56 419.20, 628.77 420.28 C 627.99 421.36, 627.49 422.08, 626.29 423.99 C 625.09 425.90, 624.30 427.30, 622.79 429.82 C 621.28 432.35, 620.43 433.89, 618.74 436.63 C 617.06 439.37, 616.11 440.87, 614.36 443.53 C 612.60 446.18, 611.54 447.52, 609.98 449.91 C 608.41 452.31, 607.70 453.43, 606.52 455.50 C 605.34 457.57, 604.84 458.69, 604.06 460.28 C 603.28 461.87, 602.99 462.41, 602.63 463.45 C 602.27 464.49, 602.31 464.93, 602.27 465.47 C 602.22 466.01, 602.33 465.99, 602.41 466.14 C 602.50 466.28, 602.56 466.29, 602.70 466.21 C 602.84 466.13, 602.86 466.17, 603.13 465.74 C 603.39 465.31, 603.52 464.98, 604.02 464.05 C 604.51 463.12, 604.80 462.60, 605.63 461.09 C 606.46 459.57, 606.97 458.48, 608.17 456.46 C 609.37 454.44, 610.07 453.37, 611.62 450.99 C 613.18 448.61, 614.17 447.23, 615.93 444.57 C 617.69 441.91, 618.65 440.40, 620.43 437.70 C 622.20 435.00, 623.22 433.57, 624.81 431.07 C 626.40 428.57, 627.27 427.20, 628.36 425.21 C 629.46 423.22, 629.78 422.36, 630.27 421.10 C 630.77 419.84, 630.87 419.43, 630.85 418.92 C 630.84 418.42, 630.61 418.31, 630.19 418.58" style="stroke: white; fill: white;"/><path d="M 602.94,447.66 C 603.40 447.88, 603.90 447.89, 605.14 447.98 C 606.38 448.07, 607.27 448.06, 609.14 448.11 C 611.02 448.16, 612.25 448.19, 614.52 448.22 C 616.80 448.25, 618.27 448.29, 620.52 448.28 C 622.77 448.26, 624.00 448.24, 625.77 448.13 C 627.54 448.01, 628.64 447.93, 629.36 447.70 C 630.08 447.46, 630.09 447.23, 629.38 446.97 C 628.67 446.70, 627.58 446.58, 625.82 446.37 C 624.06 446.17, 622.83 446.08, 620.58 445.95 C 618.33 445.82, 616.86 445.76, 614.57 445.72 C 612.27 445.67, 611.02 445.62, 609.12 445.71 C 607.21 445.80, 606.29 445.94, 605.04 446.17 C 603.79 446.40, 603.29 446.59, 602.87 446.88 C 602.45 447.18, 602.49 447.45, 602.94 447.66" style="stroke: white; fill: white;"/><path d="M 635.19,461.56 C 635.62 461.67, 635.93 461.70, 637.12 461.44 C 638.32 461.19, 639.23 460.93, 641.16 460.29 C 643.08 459.66, 644.43 459.26, 646.75 458.26 C 649.08 457.27, 650.47 456.55, 652.78 455.30 C 655.10 454.05, 656.29 453.34, 658.31 452.01 C 660.33 450.68, 661.50 449.95, 662.90 448.65 C 664.30 447.35, 664.83 446.61, 665.31 445.51 C 665.80 444.40, 665.76 443.85, 665.33 443.14 C 664.90 442.43, 664.51 442.06, 663.16 441.95 C 661.81 441.84, 660.73 441.93, 658.57 442.57 C 656.41 443.22, 654.91 443.88, 652.37 445.18 C 649.83 446.49, 648.37 447.46, 645.86 449.09 C 643.36 450.71, 641.88 451.63, 639.85 453.33 C 637.82 455.03, 636.84 455.99, 635.72 457.60 C 634.60 459.21, 634.33 459.98, 634.24 461.36 C 634.15 462.74, 634.40 463.38, 635.25 464.50 C 636.10 465.61, 636.76 466.20, 638.51 466.95 C 640.26 467.69, 641.44 467.96, 644.01 468.22 C 646.59 468.48, 648.23 468.42, 651.40 468.26 C 654.57 468.11, 656.44 467.87, 659.85 467.45 C 663.27 467.02, 665.18 466.72, 668.47 466.13 C 671.76 465.54, 673.59 465.15, 676.29 464.49 C 678.99 463.83, 680.17 463.43, 681.97 462.83 C 683.77 462.23, 684.67 461.88, 685.30 461.49 C 685.93 461.10, 685.88 460.91, 685.14 460.90 C 684.40 460.88, 683.47 461.09, 681.61 461.42 C 679.75 461.74, 678.54 461.94, 675.84 462.52 C 673.15 463.10, 671.38 463.70, 668.13 464.32 C 664.89 464.93, 663.00 465.22, 659.63 465.59 C 656.27 465.96, 654.41 466.09, 651.33 466.15 C 648.24 466.22, 646.66 466.14, 644.23 465.93 C 641.80 465.72, 640.76 465.57, 639.19 465.10 C 637.61 464.62, 637.07 464.28, 636.34 463.55 C 635.61 462.83, 635.38 462.47, 635.53 461.49 C 635.67 460.51, 635.95 459.96, 637.08 458.65 C 638.21 457.35, 639.18 456.51, 641.17 454.98 C 643.17 453.45, 644.59 452.49, 647.06 450.98 C 649.52 449.48, 651.05 448.68, 653.52 447.47 C 655.98 446.26, 657.43 445.69, 659.38 444.91 C 661.33 444.14, 662.22 443.87, 663.27 443.60 C 664.32 443.34, 664.47 443.34, 664.64 443.58 C 664.81 443.82, 664.72 444.08, 664.12 444.80 C 663.53 445.52, 663.04 446.10, 661.65 447.19 C 660.26 448.27, 659.15 449.00, 657.17 450.22 C 655.19 451.44, 654.01 452.14, 651.73 453.28 C 649.45 454.43, 648.06 455.00, 645.78 455.94 C 643.49 456.87, 642.15 457.19, 640.29 457.97 C 638.44 458.74, 637.58 459.21, 636.51 459.80 C 635.44 460.38, 635.22 460.54, 634.95 460.89 C 634.69 461.25, 634.75 461.45, 635.19 461.56" style="stroke: white; fill: white;"/><path d="M 702.76,449.08 C 702.48 449.28, 702.47 449.55, 702.09 450.19 C 701.72 450.83, 701.46 451.20, 700.87 452.29 C 700.28 453.39, 699.92 454.20, 699.13 455.67 C 698.33 457.14, 697.90 458.05, 696.90 459.65 C 695.90 461.25, 695.08 462.22, 694.13 463.68 C 693.17 465.15, 692.62 466.04, 692.14 466.97 C 691.66 467.90, 691.57 468.29, 691.72 468.34 C 691.87 468.39, 692.14 468.16, 692.91 467.23 C 693.68 466.31, 694.29 465.42, 695.56 463.73 C 696.82 462.03, 697.56 460.77, 699.25 458.77 C 700.93 456.77, 701.95 455.61, 703.98 453.74 C 706.01 451.86, 707.14 450.91, 709.40 449.39 C 711.65 447.87, 712.93 447.20, 715.27 446.12 C 717.62 445.05, 718.94 444.66, 721.13 444.03 C 723.32 443.40, 724.42 443.23, 726.22 442.98 C 728.02 442.73, 728.91 442.74, 730.11 442.77 C 731.31 442.79, 731.63 442.94, 732.21 443.11 C 732.78 443.28, 732.84 443.43, 732.99 443.61 C 733.14 443.78, 732.95 443.82, 732.97 443.98 C 732.99 444.14, 732.93 444.30, 733.07 444.41 C 733.20 444.52, 733.47 444.61, 733.65 444.53 C 733.82 444.46, 733.90 444.33, 733.94 444.03 C 733.98 443.73, 734.08 443.46, 733.84 443.04 C 733.59 442.62, 733.43 442.31, 732.71 441.92 C 731.99 441.54, 731.58 441.28, 730.23 441.12 C 728.89 440.96, 727.92 440.91, 725.99 441.11 C 724.07 441.32, 722.91 441.50, 720.59 442.13 C 718.28 442.77, 716.91 443.17, 714.44 444.28 C 711.97 445.38, 710.63 446.10, 708.25 447.66 C 705.86 449.22, 704.69 450.20, 702.51 452.09 C 700.33 453.98, 699.17 455.09, 697.35 457.12 C 695.53 459.15, 694.63 460.40, 693.43 462.26 C 692.24 464.12, 691.76 465.17, 691.38 466.43 C 691.00 467.68, 691.12 468.21, 691.52 468.52 C 691.91 468.84, 692.46 468.71, 693.36 468.01 C 694.27 467.32, 694.93 466.47, 696.04 465.06 C 697.16 463.65, 697.89 462.59, 698.95 460.94 C 700.00 459.30, 700.49 458.37, 701.30 456.84 C 702.11 455.30, 702.51 454.50, 702.99 453.28 C 703.47 452.06, 703.60 451.54, 703.71 450.73 C 703.81 449.92, 703.71 449.55, 703.52 449.22 C 703.33 448.89, 703.05 448.89, 702.76 449.08" style="stroke: white; fill: white;"/></svg>