<svg xmlns="http://www.w3.org/2000/svg" id="canvas" viewBox="334.062 358.054 255.866 224.423"><path d="M 352.51,361.78 C 352.24 362.73, 352.20 363.62, 352.07 366.52 C 351.93 369.42, 352.04 371.13, 351.84 376.30 C 351.64 381.47, 351.48 384.86, 351.06 392.38 C 350.64 399.89, 350.35 404.48, 349.74 413.87 C 349.13 423.26, 348.68 428.75, 348.01 439.32 C 347.33 449.89, 347.03 456.01, 346.36 466.74 C 345.68 477.47, 345.22 483.48, 344.65 492.96 C 344.08 502.44, 343.92 507.35, 343.50 514.16 C 343.08 520.96, 342.59 524.17, 342.57 526.97 C 342.56 529.76, 343.12 529.33, 343.44 528.12 C 343.76 526.91, 344.10 524.14, 344.19 520.92 C 344.27 517.71, 344.32 513.83, 343.87 512.06 C 343.41 510.29, 342.32 510.31, 341.92 512.09 C 341.51 513.86, 341.68 517.74, 341.83 520.95 C 341.99 524.16, 342.29 526.93, 342.69 528.15 C 343.10 529.37, 343.50 529.84, 343.86 527.05 C 344.22 524.27, 344.18 521.02, 344.49 514.21 C 344.81 507.40, 344.91 502.49, 345.43 493.00 C 345.95 483.52, 346.41 477.51, 347.08 466.78 C 347.74 456.06, 348.05 449.94, 348.76 439.37 C 349.47 428.80, 349.93 423.31, 350.62 413.93 C 351.30 404.54, 351.64 399.96, 352.19 392.45 C 352.75 384.94, 353.01 381.56, 353.39 376.39 C 353.76 371.21, 354.05 369.49, 354.06 366.57 C 354.07 363.65, 353.76 362.72, 353.45 361.76 C 353.14 360.80, 352.79 360.83, 352.51 361.78" style="stroke: white; fill: white;"/><path d="M 379.20,381.77 C 379.57 381.48, 379.66 380.00, 379.59 379.70 C 379.52 379.40, 379.01 378.92, 378.84 380.26 C 378.68 381.61, 378.63 382.57, 378.75 386.41 C 378.88 390.26, 379.32 393.10, 379.47 399.50 C 379.61 405.90, 379.42 410.15, 379.48 418.42 C 379.53 426.70, 379.61 431.57, 379.73 440.87 C 379.85 450.18, 379.94 455.44, 380.09 464.95 C 380.23 474.46, 380.32 479.77, 380.45 488.40 C 380.57 497.03, 380.59 501.31, 380.71 508.10 C 380.83 514.88, 380.99 517.88, 381.04 522.31 C 381.10 526.74, 380.88 528.04, 380.99 530.25 C 381.09 532.47, 381.47 532.74, 381.57 533.37 C 381.67 534.00, 381.50 533.36, 381.49 533.39 C 381.47 533.42, 381.36 533.51, 381.50 533.52 C 381.65 533.52, 381.99 534.08, 382.20 533.42 C 382.40 532.76, 382.51 532.46, 382.53 530.23 C 382.56 528.00, 382.50 526.71, 382.33 522.28 C 382.16 517.85, 381.90 514.85, 381.70 508.07 C 381.49 501.29, 381.46 497.02, 381.30 488.39 C 381.14 479.76, 381.04 474.44, 380.90 464.94 C 380.76 455.43, 380.67 450.17, 380.59 440.86 C 380.52 431.56, 380.46 426.70, 380.52 418.42 C 380.58 410.15, 380.83 405.91, 380.90 399.49 C 380.98 393.08, 380.94 390.24, 380.89 386.36 C 380.83 382.49, 381.00 381.58, 380.63 380.13 C 380.26 378.69, 379.61 378.94, 379.03 379.14 C 378.45 379.35, 377.70 380.65, 377.74 381.17 C 377.77 381.70, 378.83 382.07, 379.20 381.77" style="stroke: white; fill: white;"/><path d="M 337.22,481.16 C 337.53 481.59, 337.59 482.06, 339.09 482.57 C 340.58 483.08, 341.74 483.57, 344.70 483.71 C 347.66 483.85, 349.59 483.60, 353.89 483.26 C 358.19 482.92, 361.04 482.72, 366.20 482.03 C 371.35 481.33, 374.22 481.03, 379.67 479.79 C 385.13 478.54, 388.16 477.70, 393.48 475.78 C 398.80 473.87, 401.53 472.83, 406.26 470.20 C 410.99 467.56, 413.39 465.84, 417.13 462.60 C 420.87 459.36, 422.64 457.35, 424.97 453.98 C 427.31 450.61, 428.23 448.76, 428.81 445.76 C 429.38 442.76, 429.11 441.01, 427.85 438.97 C 426.60 436.93, 425.29 435.89, 422.52 435.55 C 419.75 435.22, 417.55 435.64, 414.02 437.29 C 410.49 438.94, 408.28 440.41, 404.85 443.81 C 401.42 447.20, 399.57 449.54, 396.89 454.27 C 394.20 459.01, 392.84 462.10, 391.42 467.48 C 390.00 472.86, 389.50 476.08, 389.79 481.18 C 390.08 486.29, 390.75 489.03, 392.88 493.00 C 395.01 496.97, 396.77 498.88, 400.44 501.05 C 404.11 503.22, 406.53 503.81, 411.22 503.84 C 415.91 503.87, 418.83 503.23, 423.89 501.20 C 428.95 499.17, 431.73 497.34, 436.53 493.70 C 441.34 490.06, 443.82 487.49, 447.92 483.00 C 452.02 478.52, 454.04 475.63, 457.04 471.27 C 460.04 466.91, 461.40 464.63, 462.91 461.21 C 464.42 457.78, 464.76 456.10, 464.59 454.14 C 464.43 452.18, 463.65 451.42, 462.08 451.41 C 460.50 451.39, 458.96 451.96, 456.74 454.09 C 454.53 456.21, 453.11 458.34, 451.00 462.02 C 448.88 465.71, 447.70 468.28, 446.16 472.51 C 444.63 476.74, 443.82 479.35, 443.32 483.17 C 442.82 486.99, 442.71 489.15, 443.67 491.63 C 444.62 494.11, 445.83 495.16, 448.08 495.57 C 450.34 495.97, 452.09 495.45, 454.94 493.67 C 457.80 491.88, 459.48 490.07, 462.36 486.64 C 465.23 483.22, 466.91 480.84, 469.33 476.52 C 471.74 472.21, 472.98 469.34, 474.43 465.08 C 475.88 460.82, 476.39 458.22, 476.57 455.22 C 476.75 452.22, 476.10 450.81, 475.35 450.10 C 474.60 449.39, 473.71 449.84, 472.83 451.69 C 471.96 453.55, 471.36 455.57, 470.98 459.38 C 470.60 463.18, 470.44 466.13, 470.95 470.73 C 471.47 475.33, 472.13 478.21, 473.56 482.38 C 474.99 486.55, 475.86 488.67, 478.12 491.58 C 480.38 494.49, 481.79 495.91, 484.87 496.93 C 487.94 497.96, 489.93 497.93, 493.47 496.70 C 497.01 495.47, 498.93 494.08, 502.56 490.80 C 506.20 487.51, 508.21 485.02, 511.65 480.29 C 515.09 475.56, 516.94 472.19, 519.77 467.14 C 522.60 462.09, 524.07 458.73, 525.80 455.06 C 527.53 451.40, 527.97 449.56, 528.41 448.80 C 528.85 448.04, 528.21 448.44, 528.01 451.25 C 527.80 454.05, 527.71 456.73, 527.39 462.83 C 527.07 468.92, 526.67 473.36, 526.41 481.72 C 526.15 490.08, 526.13 495.21, 526.09 504.62 C 526.04 514.04, 526.18 519.51, 526.19 528.79 C 526.19 538.07, 526.21 543.18, 526.13 551.03 C 526.04 558.88, 525.98 562.75, 525.77 568.04 C 525.55 573.33, 525.29 575.45, 525.06 577.47 C 524.83 579.49, 525.02 579.55, 524.60 578.15 C 524.19 576.74, 523.73 574.93, 522.99 570.42 C 522.25 565.92, 521.55 562.54, 520.92 555.60 C 520.29 548.67, 519.93 544.15, 519.86 535.75 C 519.80 527.34, 519.79 522.42, 520.58 513.58 C 521.38 504.75, 522.03 499.94, 523.85 491.57 C 525.68 483.19, 526.96 478.88, 529.70 471.71 C 532.44 464.54, 534.04 461.10, 537.54 455.72 C 541.03 450.34, 543.09 448.05, 547.19 444.81 C 551.28 441.57, 553.72 440.53, 558.01 439.52 C 562.30 438.51, 564.71 438.77, 568.63 439.77 C 572.56 440.76, 574.66 441.95, 577.64 444.48 C 580.62 447.00, 582.01 448.84, 583.53 452.39 C 585.04 455.93, 585.47 458.18, 585.22 462.21 C 584.96 466.23, 584.22 468.64, 582.24 472.51 C 580.27 476.39, 578.74 478.41, 575.35 481.58 C 571.96 484.74, 569.48 486.17, 565.29 488.33 C 561.10 490.49, 558.46 491.49, 554.39 492.38 C 550.32 493.27, 548.15 493.20, 544.95 492.78 C 541.74 492.36, 540.34 491.35, 538.36 490.29 C 536.38 489.23, 535.82 487.94, 535.04 487.49 C 534.26 487.04, 533.99 487.18, 534.47 488.04 C 534.95 488.90, 535.42 490.47, 537.46 491.80 C 539.51 493.14, 541.24 494.25, 544.70 494.69 C 548.16 495.13, 550.50 495.00, 554.76 494.01 C 559.02 493.01, 561.68 491.97, 566.01 489.71 C 570.34 487.45, 572.87 486.00, 576.40 482.71 C 579.93 479.41, 581.57 477.31, 583.66 473.23 C 585.75 469.16, 586.57 466.61, 586.85 462.31 C 587.13 458.01, 586.69 455.55, 585.06 451.73 C 583.43 447.92, 581.90 445.92, 578.69 443.23 C 575.47 440.55, 573.19 439.31, 568.99 438.31 C 564.79 437.30, 562.20 437.10, 557.69 438.22 C 553.19 439.34, 550.67 440.52, 546.47 443.91 C 542.27 447.30, 540.21 449.68, 536.69 455.18 C 533.17 460.67, 531.59 464.15, 528.86 471.39 C 526.12 478.63, 524.85 482.96, 523.02 491.39 C 521.19 499.81, 520.54 504.63, 519.71 513.50 C 518.87 522.38, 518.87 527.31, 518.85 535.75 C 518.83 544.19, 519.10 548.72, 519.60 555.71 C 520.11 562.70, 520.56 566.13, 521.38 570.70 C 522.21 575.27, 522.78 577.17, 523.74 578.57 C 524.69 579.97, 525.53 579.80, 526.17 577.70 C 526.81 575.61, 526.77 573.42, 526.95 568.09 C 527.13 562.75, 527.03 558.89, 527.05 551.03 C 527.06 543.17, 527.04 538.07, 527.02 528.79 C 527.01 519.51, 526.88 514.04, 526.97 504.63 C 527.07 495.22, 527.15 490.11, 527.51 481.76 C 527.88 473.42, 528.36 469.01, 528.79 462.91 C 529.21 456.81, 529.82 454.18, 529.65 451.26 C 529.49 448.34, 529.05 447.71, 527.98 448.32 C 526.91 448.93, 526.19 450.69, 524.29 454.31 C 522.39 457.93, 521.24 461.40, 518.48 466.43 C 515.72 471.45, 513.88 474.80, 510.48 479.44 C 507.09 484.08, 505.02 486.49, 501.50 489.61 C 497.99 492.73, 496.11 493.93, 492.89 495.04 C 489.68 496.16, 488.12 496.11, 485.45 495.20 C 482.78 494.29, 481.58 493.16, 479.55 490.48 C 477.52 487.80, 476.59 485.79, 475.28 481.80 C 473.98 477.81, 473.41 474.97, 473.01 470.52 C 472.62 466.08, 473.03 463.25, 473.32 459.58 C 473.61 455.92, 474.16 454.04, 474.46 452.21 C 474.76 450.38, 474.81 449.86, 474.81 450.42 C 474.81 450.98, 474.87 452.18, 474.45 455.00 C 474.03 457.82, 474.05 460.39, 472.73 464.52 C 471.40 468.65, 470.18 471.49, 467.81 475.67 C 465.45 479.84, 463.70 482.15, 460.89 485.40 C 458.08 488.64, 456.29 490.16, 453.78 491.89 C 451.26 493.61, 449.98 494.20, 448.31 494.03 C 446.64 493.86, 446.01 493.16, 445.40 491.04 C 444.80 488.92, 444.76 487.01, 445.28 483.44 C 445.80 479.87, 446.48 477.24, 448.00 473.19 C 449.53 469.13, 450.80 466.63, 452.90 463.15 C 455.00 459.67, 456.65 457.91, 458.51 455.78 C 460.37 453.65, 461.27 452.83, 462.21 452.50 C 463.16 452.17, 463.41 452.54, 463.24 454.14 C 463.07 455.74, 462.82 457.24, 461.35 460.51 C 459.88 463.78, 458.76 466.16, 455.89 470.48 C 453.01 474.81, 451.00 477.70, 446.97 482.14 C 442.94 486.58, 440.47 489.11, 435.75 492.66 C 431.04 496.22, 428.29 497.97, 423.38 499.92 C 418.48 501.86, 415.67 502.41, 411.23 502.38 C 406.79 502.35, 404.61 501.79, 401.19 499.77 C 397.78 497.76, 396.16 496.05, 394.15 492.32 C 392.15 488.58, 391.46 486.00, 391.18 481.10 C 390.91 476.21, 391.37 473.05, 392.77 467.83 C 394.17 462.62, 395.51 459.57, 398.17 455.01 C 400.82 450.45, 402.70 448.21, 406.04 445.03 C 409.38 441.86, 411.61 440.62, 414.87 439.13 C 418.13 437.64, 420.02 437.44, 422.33 437.58 C 424.64 437.72, 425.52 438.26, 426.43 439.82 C 427.35 441.38, 427.45 442.72, 426.88 445.37 C 426.32 448.01, 425.74 449.82, 423.60 453.05 C 421.46 456.28, 419.78 458.32, 416.18 461.52 C 412.58 464.71, 410.24 466.43, 405.61 469.03 C 400.98 471.64, 398.29 472.67, 393.04 474.54 C 387.79 476.42, 384.78 477.24, 379.37 478.42 C 373.96 479.59, 371.12 479.87, 366.00 480.43 C 360.89 480.98, 358.02 481.10, 353.78 481.19 C 349.55 481.28, 347.69 480.99, 344.83 480.87 C 341.97 480.75, 340.95 480.67, 339.49 480.58 C 338.03 480.49, 337.99 480.29, 337.53 480.41 C 337.08 480.52, 336.91 480.73, 337.22 481.16" style="stroke: white; fill: white;"/></svg>