<svg xmlns="http://www.w3.org/2000/svg" id="canvas" viewBox="149.155 399.570 542.342 84.731"><path d="M 157.34,403.05 C 157.08 403.67, 157.10 404.50, 156.95 406.12 C 156.80 407.75, 156.68 408.67, 156.59 411.17 C 156.50 413.66, 156.60 415.36, 156.48 418.59 C 156.36 421.82, 156.32 423.68, 156.00 427.32 C 155.68 430.97, 155.36 433.10, 154.89 436.81 C 154.42 440.53, 154.08 442.49, 153.63 445.92 C 153.19 449.34, 152.96 450.98, 152.66 453.96 C 152.37 456.94, 152.18 458.34, 152.16 460.81 C 152.14 463.28, 152.16 464.46, 152.56 466.30 C 152.97 468.14, 153.31 468.79, 154.19 470.01 C 155.08 471.22, 155.59 471.74, 156.99 472.38 C 158.40 473.03, 159.24 473.24, 161.21 473.22 C 163.18 473.20, 164.32 472.85, 166.84 472.29 C 169.35 471.73, 170.85 471.20, 173.78 470.42 C 176.72 469.63, 178.45 469.19, 181.50 468.36 C 184.56 467.53, 186.05 466.97, 189.05 466.28 C 192.04 465.59, 193.63 465.43, 196.48 464.91 C 199.33 464.39, 200.81 464.20, 203.28 463.69 C 205.75 463.17, 206.78 462.78, 208.82 462.34 C 210.86 461.91, 211.72 461.87, 213.47 461.51 C 215.22 461.14, 216.01 460.98, 217.55 460.52 C 219.09 460.06, 219.85 459.85, 221.17 459.20 C 222.49 458.56, 223.20 458.04, 224.15 457.28 C 225.10 456.53, 225.43 456.17, 225.92 455.43 C 226.41 454.68, 226.60 454.02, 226.60 453.56 C 226.60 453.10, 226.30 452.99, 225.93 453.15 C 225.55 453.31, 225.31 453.87, 224.71 454.37 C 224.11 454.86, 223.84 455.04, 222.95 455.63 C 222.05 456.22, 221.43 456.71, 220.23 457.31 C 219.03 457.91, 218.40 458.17, 216.96 458.63 C 215.53 459.09, 214.78 459.26, 213.08 459.62 C 211.37 459.98, 210.47 460.02, 208.42 460.42 C 206.38 460.82, 205.33 461.14, 202.86 461.62 C 200.40 462.10, 198.95 462.28, 196.09 462.82 C 193.24 463.35, 191.61 463.59, 188.59 464.29 C 185.56 464.98, 184.05 465.54, 180.97 466.30 C 177.89 467.07, 176.14 467.41, 173.20 468.12 C 170.26 468.83, 168.69 469.26, 166.27 469.85 C 163.85 470.44, 162.81 470.88, 161.09 471.07 C 159.37 471.25, 158.77 471.18, 157.65 470.78 C 156.54 470.39, 156.16 470.04, 155.50 469.08 C 154.83 468.11, 154.59 467.61, 154.33 465.96 C 154.06 464.31, 154.11 463.21, 154.17 460.84 C 154.23 458.48, 154.37 457.08, 154.63 454.14 C 154.88 451.20, 155.02 449.56, 155.43 446.14 C 155.83 442.72, 156.16 440.77, 156.66 437.04 C 157.15 433.32, 157.49 431.18, 157.90 427.51 C 158.32 423.85, 158.50 421.97, 158.73 418.72 C 158.97 415.46, 159.06 413.74, 159.09 411.22 C 159.11 408.70, 159.03 407.76, 158.86 406.11 C 158.69 404.47, 158.55 403.63, 158.24 403.02 C 157.94 402.40, 157.60 402.43, 157.34 403.05" style="stroke: white; fill: white;"/><path d="M 225.05,436.66 C 224.99 436.90, 224.93 436.74, 225.13 437.43 C 225.33 438.12, 225.47 438.63, 226.05 440.11 C 226.63 441.60, 227.05 442.77, 228.04 444.86 C 229.03 446.95, 229.79 448.38, 230.99 450.58 C 232.19 452.77, 232.94 454.03, 234.06 455.84 C 235.18 457.65, 235.72 458.43, 236.59 459.64 C 237.46 460.85, 237.82 461.23, 238.40 461.89 C 238.99 462.56, 239.19 462.82, 239.51 462.98 C 239.83 463.14, 239.99 463.04, 239.98 462.68 C 239.98 462.33, 239.84 462.01, 239.48 461.21 C 239.13 460.40, 238.89 459.95, 238.21 458.65 C 237.53 457.34, 237.03 456.56, 236.07 454.70 C 235.11 452.83, 234.48 451.55, 233.41 449.33 C 232.34 447.11, 231.70 445.68, 230.73 443.60 C 229.75 441.51, 229.37 440.31, 228.53 438.90 C 227.69 437.48, 227.13 437.04, 226.52 436.50 C 225.90 435.97, 225.73 436.20, 225.43 436.23 C 225.14 436.26, 225.11 436.42, 225.05 436.66" style="stroke: white; fill: white;"/><path d="M 219.04,417.33 C 218.71 417.30, 218.20 417.39, 218.08 417.54 C 217.96 417.68, 218.01 417.99, 218.44 418.06 C 218.87 418.13, 219.81 417.98, 220.23 417.91 C 220.65 417.84, 220.64 417.77, 220.53 417.72 C 220.43 417.67, 220.00 417.74, 219.70 417.66 C 219.41 417.59, 219.36 417.35, 219.04 417.33" style="stroke: white; fill: white;"/><path d="M 252.89,440.06 C 252.84 440.59, 253.06 441.11, 253.41 442.32 C 253.76 443.53, 254.07 444.33, 254.63 446.13 C 255.18 447.92, 255.51 449.30, 256.17 451.30 C 256.83 453.30, 257.21 454.46, 257.92 456.12 C 258.63 457.79, 259.03 458.61, 259.71 459.63 C 260.38 460.64, 260.69 460.97, 261.29 461.21 C 261.89 461.44, 262.17 461.26, 262.70 460.79 C 263.24 460.32, 263.60 459.97, 263.97 458.88 C 264.34 457.78, 264.28 456.87, 264.55 455.32 C 264.82 453.77, 264.80 452.80, 265.31 451.13 C 265.82 449.46, 266.20 448.42, 267.09 446.96 C 267.98 445.49, 268.58 444.70, 269.75 443.80 C 270.93 442.90, 271.57 442.61, 272.96 442.44 C 274.35 442.27, 275.09 442.35, 276.69 442.96 C 278.30 443.58, 279.24 444.26, 280.97 445.51 C 282.70 446.75, 283.60 447.65, 285.34 449.20 C 287.09 450.76, 288.00 451.73, 289.71 453.29 C 291.42 454.84, 292.33 455.63, 293.90 456.97 C 295.48 458.32, 296.10 459.02, 297.59 460.01 C 299.07 461.01, 299.91 461.40, 301.34 461.94 C 302.76 462.48, 303.60 462.56, 304.72 462.71 C 305.83 462.85, 306.20 462.77, 306.92 462.65 C 307.65 462.54, 308.08 462.36, 308.35 462.12 C 308.62 461.88, 308.55 461.62, 308.26 461.44 C 307.98 461.27, 307.57 461.37, 306.93 461.25 C 306.29 461.13, 306.03 461.08, 305.06 460.84 C 304.09 460.60, 303.33 460.55, 302.06 460.05 C 300.80 459.55, 300.06 459.30, 298.71 458.36 C 297.36 457.42, 296.81 456.72, 295.32 455.36 C 293.84 454.01, 292.96 453.18, 291.28 451.59 C 289.61 450.00, 288.74 449.01, 286.95 447.40 C 285.16 445.79, 284.26 444.83, 282.35 443.54 C 280.43 442.24, 279.32 441.54, 277.39 440.94 C 275.46 440.34, 274.48 440.31, 272.72 440.55 C 270.95 440.79, 270.08 441.11, 268.56 442.13 C 267.03 443.15, 266.25 444.02, 265.11 445.66 C 263.96 447.29, 263.50 448.46, 262.83 450.30 C 262.16 452.14, 261.99 453.24, 261.75 454.87 C 261.51 456.50, 261.64 457.40, 261.63 458.47 C 261.62 459.54, 261.66 459.81, 261.70 460.22 C 261.74 460.64, 261.88 460.81, 261.81 460.53 C 261.75 460.25, 261.70 459.86, 261.37 458.82 C 261.04 457.77, 260.68 456.98, 260.17 455.31 C 259.66 453.64, 259.42 452.49, 258.82 450.47 C 258.23 448.45, 257.91 447.01, 257.18 445.22 C 256.46 443.42, 255.92 442.62, 255.21 441.50 C 254.51 440.39, 254.13 439.95, 253.66 439.66 C 253.20 439.37, 252.94 439.52, 252.89 440.06" style="stroke: white; fill: white;"/><path d="M 314.58,412.65 C 314.37 413.52, 314.34 414.69, 314.46 416.89 C 314.58 419.09, 314.63 420.63, 315.17 423.65 C 315.70 426.67, 316.40 428.76, 317.13 431.99 C 317.86 435.21, 318.18 436.89, 318.81 439.77 C 319.45 442.65, 319.84 444.01, 320.31 446.38 C 320.77 448.75, 320.75 449.82, 321.16 451.62 C 321.56 453.42, 321.96 454.28, 322.33 455.39 C 322.70 456.50, 322.72 456.62, 323.02 457.16 C 323.32 457.70, 323.46 457.85, 323.81 458.08 C 324.16 458.31, 324.33 458.40, 324.77 458.31 C 325.21 458.22, 325.60 458.13, 326.01 457.63 C 326.42 457.14, 326.36 456.70, 326.82 455.84 C 327.29 454.97, 327.55 454.53, 328.34 453.30 C 329.13 452.08, 329.62 451.19, 330.77 449.71 C 331.92 448.22, 332.59 447.39, 334.09 445.88 C 335.58 444.36, 336.53 443.57, 338.25 442.14 C 339.96 440.71, 340.90 439.97, 342.66 438.72 C 344.43 437.48, 345.39 436.90, 347.06 435.90 C 348.73 434.91, 349.70 434.48, 351.00 433.75 C 352.30 433.02, 352.85 432.75, 353.55 432.24 C 354.26 431.73, 354.32 431.51, 354.54 431.19 C 354.76 430.86, 354.69 430.77, 354.67 430.62 C 354.65 430.47, 354.56 430.46, 354.44 430.44 C 354.32 430.43, 354.39 430.46, 354.06 430.53 C 353.74 430.61, 353.61 430.55, 352.81 430.82 C 352.01 431.09, 351.43 431.27, 350.06 431.90 C 348.68 432.53, 347.67 432.98, 345.94 433.97 C 344.20 434.97, 343.20 435.59, 341.36 436.86 C 339.53 438.13, 338.55 438.86, 336.75 440.32 C 334.95 441.77, 333.95 442.56, 332.35 444.12 C 330.74 445.68, 329.99 446.56, 328.74 448.11 C 327.50 449.66, 326.96 450.55, 326.11 451.87 C 325.26 453.20, 324.90 453.75, 324.49 454.73 C 324.08 455.72, 324.11 456.24, 324.07 456.80 C 324.03 457.36, 324.20 457.39, 324.28 457.52 C 324.37 457.65, 324.51 457.60, 324.49 457.44 C 324.46 457.28, 324.27 457.21, 324.16 456.71 C 324.05 456.21, 324.15 456.05, 323.94 454.96 C 323.72 453.86, 323.39 453.02, 323.07 451.23 C 322.74 449.44, 322.74 448.38, 322.31 446.00 C 321.88 443.62, 321.54 442.22, 320.94 439.32 C 320.34 436.42, 320.00 434.73, 319.32 431.51 C 318.64 428.29, 318.13 426.19, 317.56 423.21 C 316.99 420.24, 316.88 418.77, 316.47 416.64 C 316.05 414.51, 315.86 413.36, 315.48 412.56 C 315.11 411.76, 314.78 411.79, 314.58 412.65" style="stroke: white; fill: white;"/><path d="M 323.00,447.11 C 323.27 447.65, 323.90 448.10, 324.86 449.04 C 325.82 449.97, 326.37 450.55, 327.80 451.78 C 329.23 453.01, 330.22 453.86, 332.01 455.17 C 333.80 456.48, 334.80 457.17, 336.74 458.34 C 338.67 459.51, 339.62 460.06, 341.69 461.01 C 343.75 461.97, 344.90 462.43, 347.07 463.12 C 349.24 463.81, 350.40 464.17, 352.55 464.49 C 354.70 464.81, 355.79 464.82, 357.83 464.71 C 359.87 464.61, 360.91 464.47, 362.75 463.98 C 364.59 463.48, 365.53 463.08, 367.05 462.23 C 368.56 461.38, 369.13 460.81, 370.33 459.72 C 371.53 458.63, 372.07 458.04, 373.03 456.79 C 374.00 455.53, 374.44 454.81, 375.16 453.42 C 375.89 452.04, 376.15 451.26, 376.66 449.86 C 377.16 448.46, 377.44 447.76, 377.68 446.42 C 377.92 445.09, 378.07 444.40, 377.86 443.21 C 377.66 442.02, 377.37 441.35, 376.64 440.48 C 375.91 439.61, 375.33 439.23, 374.22 438.85 C 373.12 438.48, 372.34 438.31, 371.11 438.62 C 369.88 438.92, 369.13 439.44, 368.08 440.37 C 367.03 441.30, 366.50 441.91, 365.85 443.27 C 365.21 444.62, 364.87 445.57, 364.87 447.14 C 364.88 448.70, 365.09 449.64, 365.87 451.10 C 366.64 452.56, 367.24 453.22, 368.73 454.42 C 370.23 455.62, 371.24 456.24, 373.36 457.09 C 375.48 457.95, 376.73 458.30, 379.35 458.70 C 381.96 459.11, 383.57 459.11, 386.45 459.14 C 389.32 459.16, 390.87 459.05, 393.72 458.83 C 396.57 458.61, 398.18 458.45, 400.69 458.03 C 403.19 457.62, 404.53 457.26, 406.26 456.75 C 407.98 456.24, 408.75 455.86, 409.33 455.47 C 409.92 455.09, 409.85 454.89, 409.17 454.82 C 408.49 454.74, 407.68 454.90, 405.92 455.09 C 404.16 455.28, 402.84 455.48, 400.37 455.76 C 397.89 456.04, 396.33 456.29, 393.55 456.49 C 390.77 456.68, 389.24 456.78, 386.47 456.74 C 383.70 456.71, 382.16 456.68, 379.71 456.31 C 377.26 455.95, 376.14 455.64, 374.21 454.91 C 372.29 454.18, 371.38 453.63, 370.08 452.67 C 368.77 451.71, 368.29 451.22, 367.69 450.12 C 367.08 449.02, 367.01 448.34, 367.05 447.17 C 367.10 446.00, 367.40 445.29, 367.91 444.27 C 368.43 443.25, 368.87 442.78, 369.63 442.06 C 370.38 441.34, 370.89 440.92, 371.69 440.66 C 372.49 440.39, 372.92 440.52, 373.62 440.73 C 374.33 440.93, 374.75 441.14, 375.22 441.69 C 375.69 442.23, 375.90 442.61, 375.98 443.47 C 376.06 444.33, 375.90 444.86, 375.62 445.99 C 375.34 447.11, 375.06 447.81, 374.57 449.09 C 374.09 450.38, 373.85 451.13, 373.20 452.42 C 372.56 453.70, 372.19 454.36, 371.34 455.52 C 370.49 456.68, 370.01 457.24, 368.95 458.22 C 367.90 459.20, 367.40 459.69, 366.05 460.44 C 364.70 461.18, 363.87 461.51, 362.21 461.94 C 360.55 462.37, 359.60 462.52, 357.73 462.60 C 355.87 462.68, 354.87 462.66, 352.88 462.34 C 350.88 462.02, 349.81 461.66, 347.75 461.00 C 345.70 460.33, 344.58 459.94, 342.62 459.01 C 340.66 458.09, 339.78 457.56, 337.97 456.37 C 336.16 455.19, 335.28 454.41, 333.56 453.10 C 331.85 451.79, 330.89 450.94, 329.39 449.81 C 327.89 448.68, 327.24 448.15, 326.07 447.45 C 324.90 446.76, 324.15 446.41, 323.54 446.34 C 322.92 446.27, 322.74 446.57, 323.00 447.11" style="stroke: white; fill: white;"/><path d="M 428.11,448.71 C 427.80 448.20, 427.20 447.65, 426.07 446.94 C 424.94 446.23, 424.23 445.70, 422.44 445.18 C 420.65 444.66, 419.35 444.25, 417.12 444.34 C 414.89 444.43, 413.65 444.85, 411.29 445.63 C 408.93 446.40, 407.44 446.93, 405.32 448.22 C 403.19 449.51, 402.00 450.38, 400.66 452.09 C 399.32 453.80, 398.84 454.98, 398.62 456.77 C 398.40 458.57, 398.63 459.64, 399.57 461.07 C 400.52 462.50, 401.55 463.15, 403.33 463.91 C 405.12 464.68, 406.31 464.79, 408.48 464.89 C 410.65 464.98, 411.93 464.86, 414.20 464.40 C 416.48 463.93, 417.79 463.53, 419.85 462.55 C 421.92 461.57, 422.94 460.95, 424.51 459.48 C 426.09 458.01, 426.78 457.19, 427.72 455.20 C 428.66 453.22, 429.02 452.00, 429.22 449.56 C 429.42 447.12, 429.13 445.67, 428.71 443.01 C 428.29 440.35, 427.83 438.83, 427.11 436.26 C 426.40 433.68, 425.97 432.37, 425.12 430.13 C 424.27 427.89, 423.68 426.71, 422.87 425.08 C 422.06 423.45, 421.75 422.60, 421.07 421.96 C 420.40 421.32, 419.88 421.33, 419.49 421.88 C 419.09 422.43, 418.94 423.07, 419.08 424.69 C 419.22 426.32, 419.37 427.52, 420.20 430.02 C 421.04 432.52, 421.89 434.23, 423.26 437.21 C 424.63 440.19, 425.48 441.99, 427.06 444.92 C 428.63 447.85, 429.40 449.26, 431.13 451.85 C 432.86 454.44, 433.81 455.74, 435.70 457.88 C 437.59 460.01, 438.76 461.04, 440.58 462.52 C 442.41 464.00, 443.36 464.46, 444.83 465.29 C 446.29 466.13, 446.86 466.32, 447.91 466.69 C 448.96 467.06, 449.59 467.18, 450.07 467.14 C 450.55 467.11, 450.62 466.86, 450.31 466.51 C 450.00 466.17, 449.41 465.99, 448.51 465.43 C 447.61 464.87, 447.12 464.63, 445.81 463.73 C 444.49 462.82, 443.62 462.38, 441.92 460.92 C 440.22 459.46, 439.14 458.48, 437.32 456.44 C 435.49 454.40, 434.48 453.23, 432.80 450.73 C 431.12 448.23, 430.37 446.85, 428.90 443.95 C 427.43 441.06, 426.66 439.23, 425.46 436.26 C 424.26 433.29, 423.77 431.50, 422.91 429.09 C 422.06 426.68, 421.73 425.63, 421.18 424.22 C 420.63 422.80, 420.40 422.34, 420.17 422.01 C 419.94 421.68, 419.89 421.78, 420.03 422.56 C 420.18 423.34, 420.30 424.25, 420.89 425.92 C 421.48 427.59, 422.20 428.72, 422.99 430.92 C 423.78 433.11, 424.16 434.39, 424.83 436.88 C 425.50 439.38, 425.90 440.90, 426.34 443.41 C 426.78 445.91, 427.11 447.23, 427.02 449.42 C 426.93 451.61, 426.67 452.64, 425.89 454.35 C 425.11 456.06, 424.53 456.74, 423.14 457.96 C 421.74 459.19, 420.79 459.67, 418.91 460.49 C 417.03 461.31, 415.80 461.65, 413.73 462.06 C 411.66 462.46, 410.48 462.56, 408.55 462.54 C 406.62 462.52, 405.60 462.43, 404.09 461.94 C 402.58 461.44, 401.75 461.05, 401.00 460.07 C 400.26 459.09, 400.11 458.36, 400.37 457.04 C 400.62 455.71, 401.05 454.80, 402.28 453.45 C 403.51 452.10, 404.57 451.38, 406.52 450.28 C 408.48 449.18, 409.91 448.66, 412.05 447.96 C 414.19 447.26, 415.27 446.88, 417.22 446.80 C 419.17 446.72, 420.21 447.16, 421.80 447.54 C 423.40 447.93, 424.04 448.34, 425.20 448.74 C 426.37 449.14, 427.06 449.54, 427.64 449.53 C 428.22 449.53, 428.42 449.23, 428.11 448.71" style="stroke: white; fill: white;"/><path d="M 531.72,413.73 C 531.53 413.96, 531.35 413.92, 531.33 414.80 C 531.32 415.69, 531.42 416.32, 531.64 418.16 C 531.87 419.99, 532.10 421.27, 532.46 423.97 C 532.82 426.68, 533.12 428.52, 533.45 431.67 C 533.78 434.83, 533.90 436.57, 534.10 439.76 C 534.30 442.95, 534.25 444.61, 534.45 447.62 C 534.65 450.64, 534.70 452.17, 535.08 454.85 C 535.47 457.53, 535.65 458.78, 536.36 461.03 C 537.07 463.28, 537.50 464.28, 538.63 466.12 C 539.77 467.95, 540.39 468.75, 542.03 470.19 C 543.68 471.63, 544.68 472.27, 546.85 473.31 C 549.03 474.35, 550.43 474.83, 552.91 475.38 C 555.40 475.93, 556.76 476.00, 559.30 476.04 C 561.83 476.07, 563.18 475.86, 565.59 475.54 C 568.00 475.22, 569.17 474.99, 571.34 474.41 C 573.52 473.83, 574.47 473.42, 576.46 472.64 C 578.44 471.85, 579.47 471.42, 581.26 470.48 C 583.05 469.53, 583.82 468.98, 585.41 467.92 C 586.99 466.86, 587.76 466.18, 589.20 465.18 C 590.64 464.18, 591.45 463.72, 592.60 462.91 C 593.76 462.10, 594.21 461.61, 594.97 461.14 C 595.72 460.67, 596.03 460.43, 596.38 460.55 C 596.74 460.67, 596.63 460.84, 596.76 461.75 C 596.89 462.66, 596.78 463.57, 597.02 465.11 C 597.26 466.64, 597.50 467.76, 597.95 469.42 C 598.40 471.08, 598.64 472.20, 599.28 473.41 C 599.92 474.62, 600.45 475.00, 601.15 475.47 C 601.86 475.94, 602.27 475.88, 602.82 475.76 C 603.36 475.65, 603.76 475.19, 603.88 474.88 C 603.99 474.57, 603.63 474.26, 603.38 474.23 C 603.13 474.20, 602.86 474.70, 602.61 474.75 C 602.35 474.80, 602.34 474.90, 602.10 474.47 C 601.85 474.04, 601.65 473.74, 601.38 472.60 C 601.11 471.45, 601.08 470.36, 600.75 468.74 C 600.41 467.13, 600.13 466.05, 599.69 464.52 C 599.25 462.99, 599.14 462.12, 598.56 461.09 C 597.98 460.07, 597.65 459.71, 596.79 459.40 C 595.93 459.09, 595.32 459.20, 594.25 459.54 C 593.18 459.89, 592.71 460.37, 591.45 461.13 C 590.19 461.90, 589.39 462.37, 587.94 463.37 C 586.49 464.37, 585.74 465.09, 584.20 466.13 C 582.67 467.18, 581.97 467.70, 580.27 468.61 C 578.57 469.52, 577.57 469.92, 575.68 470.68 C 573.79 471.43, 572.88 471.84, 570.81 472.37 C 568.73 472.91, 567.60 473.08, 565.31 473.36 C 563.01 473.64, 561.71 473.82, 559.33 473.77 C 556.96 473.72, 555.72 473.61, 553.41 473.11 C 551.10 472.61, 549.81 472.16, 547.79 471.27 C 545.78 470.37, 544.84 469.89, 543.34 468.65 C 541.83 467.42, 541.28 466.74, 540.27 465.10 C 539.25 463.46, 538.88 462.56, 538.26 460.45 C 537.64 458.34, 537.52 457.16, 537.17 454.56 C 536.82 451.97, 536.71 450.47, 536.51 447.49 C 536.31 444.50, 536.32 442.85, 536.17 439.65 C 536.02 436.45, 535.93 434.70, 535.76 431.49 C 535.59 428.29, 535.61 426.40, 535.31 423.63 C 535.02 420.86, 534.75 419.50, 534.28 417.66 C 533.82 415.82, 533.38 415.23, 532.98 414.43 C 532.58 413.63, 532.55 413.78, 532.30 413.64 C 532.05 413.50, 531.91 413.50, 531.72 413.73" style="stroke: white; fill: white;"/><path d="M 589.37,429.23 C 589.03 429.37, 588.78 429.65, 588.70 430.04 C 588.63 430.43, 588.83 430.74, 589.00 431.17 C 589.17 431.60, 589.21 431.80, 589.55 432.20 C 589.89 432.60, 590.21 432.87, 590.70 433.16 C 591.18 433.45, 591.43 433.60, 591.97 433.64 C 592.52 433.69, 593.08 433.67, 593.43 433.38 C 593.78 433.09, 593.89 432.60, 593.72 432.18 C 593.56 431.77, 592.99 431.51, 592.61 431.30 C 592.23 431.09, 592.10 431.28, 591.83 431.14 C 591.56 431.01, 591.44 430.78, 591.26 430.62 C 591.09 430.46, 591.03 430.47, 590.95 430.33 C 590.86 430.18, 590.97 430.08, 590.86 429.90 C 590.75 429.71, 590.68 429.52, 590.38 429.38 C 590.09 429.25, 589.71 429.10, 589.37 429.23" style="stroke: white; fill: white;"/><path d="M 631.54,445.41 C 631.25 445.16, 630.96 445.10, 630.13 445.01 C 629.29 444.91, 628.74 444.86, 627.37 444.94 C 625.99 445.02, 624.95 445.02, 623.24 445.43 C 621.54 445.83, 620.47 446.22, 618.84 446.97 C 617.21 447.71, 616.28 448.09, 615.11 449.14 C 613.94 450.18, 613.27 450.91, 612.99 452.21 C 612.71 453.51, 612.81 454.34, 613.72 455.65 C 614.63 456.95, 615.48 457.55, 617.53 458.75 C 619.58 459.96, 621.06 460.58, 623.97 461.67 C 626.88 462.77, 628.87 463.20, 632.08 464.22 C 635.29 465.25, 637.20 465.77, 640.01 466.79 C 642.83 467.81, 644.21 468.35, 646.15 469.31 C 648.10 470.28, 648.93 470.71, 649.76 471.62 C 650.58 472.53, 650.66 473.02, 650.28 473.85 C 649.90 474.67, 649.24 475.05, 647.86 475.74 C 646.48 476.42, 645.54 476.74, 643.39 477.25 C 641.24 477.77, 639.74 477.99, 637.11 478.32 C 634.48 478.64, 632.87 478.84, 630.24 478.87 C 627.61 478.91, 626.21 478.91, 623.96 478.49 C 621.71 478.07, 620.71 477.58, 618.99 476.78 C 617.27 475.97, 616.49 475.35, 615.37 474.48 C 614.24 473.62, 613.90 472.77, 613.38 472.45 C 612.86 472.13, 612.59 472.24, 612.77 472.89 C 612.94 473.54, 613.18 474.56, 614.24 475.70 C 615.30 476.85, 616.21 477.63, 618.07 478.62 C 619.93 479.60, 621.10 480.08, 623.53 480.61 C 625.96 481.15, 627.45 481.23, 630.23 481.29 C 633.01 481.34, 634.66 481.21, 637.42 480.89 C 640.18 480.57, 641.74 480.36, 644.04 479.67 C 646.34 478.99, 647.41 478.55, 648.92 477.47 C 650.43 476.40, 651.18 475.66, 651.58 474.31 C 651.98 472.96, 651.82 472.07, 650.93 470.72 C 650.03 469.38, 649.14 468.76, 647.10 467.56 C 645.07 466.37, 643.64 465.83, 640.77 464.74 C 637.90 463.66, 635.94 463.22, 632.76 462.14 C 629.58 461.07, 627.67 460.47, 624.85 459.36 C 622.04 458.26, 620.64 457.59, 618.68 456.62 C 616.72 455.66, 615.91 455.33, 615.07 454.53 C 614.23 453.72, 614.21 453.35, 614.47 452.60 C 614.73 451.86, 615.32 451.46, 616.38 450.80 C 617.45 450.14, 618.29 449.83, 619.79 449.30 C 621.29 448.77, 622.28 448.49, 623.87 448.15 C 625.45 447.80, 626.40 447.82, 627.70 447.57 C 628.99 447.32, 629.55 447.16, 630.33 446.89 C 631.12 446.62, 631.38 446.52, 631.62 446.23 C 631.87 445.93, 631.84 445.65, 631.54 445.41" style="stroke: white; fill: white;"/><path d="M 655.04,427.29 C 654.91 427.89, 654.88 428.49, 655.16 430.11 C 655.44 431.72, 655.72 432.93, 656.45 435.37 C 657.18 437.80, 657.73 439.36, 658.80 442.29 C 659.88 445.23, 660.63 447.15, 661.81 450.04 C 662.99 452.93, 663.58 454.27, 664.70 456.73 C 665.82 459.19, 666.41 460.28, 667.40 462.32 C 668.40 464.36, 668.87 465.40, 669.69 466.93 C 670.50 468.46, 670.92 469.12, 671.48 469.97 C 672.03 470.82, 672.17 470.82, 672.47 471.18 C 672.77 471.53, 672.80 471.65, 672.97 471.73 C 673.15 471.81, 673.29 471.76, 673.35 471.57 C 673.42 471.38, 673.39 471.26, 673.30 470.79 C 673.21 470.32, 673.29 470.18, 672.92 469.23 C 672.56 468.28, 672.21 467.59, 671.48 466.03 C 670.74 464.47, 670.20 463.47, 669.24 461.44 C 668.28 459.40, 667.74 458.29, 666.67 455.85 C 665.60 453.41, 664.99 452.09, 663.88 449.22 C 662.78 446.34, 662.13 444.40, 661.15 441.47 C 660.16 438.54, 659.78 436.94, 658.95 434.56 C 658.13 432.18, 657.66 431.05, 657.04 429.56 C 656.42 428.06, 656.25 427.54, 655.85 427.09 C 655.45 426.64, 655.18 426.69, 655.04 427.29" style="stroke: white; fill: white;"/><path d="M 653.22,456.28 C 653.59 456.18, 653.65 455.73, 654.35 455.31 C 655.06 454.90, 655.34 454.64, 656.75 454.21 C 658.17 453.77, 659.18 453.46, 661.41 453.14 C 663.64 452.83, 665.06 452.72, 667.91 452.63 C 670.76 452.53, 672.68 452.58, 675.64 452.68 C 678.61 452.78, 680.32 452.98, 682.73 453.12 C 685.14 453.25, 686.67 453.48, 687.69 453.37 C 688.71 453.26, 688.77 453.01, 687.83 452.56 C 686.88 452.11, 685.39 451.59, 682.98 451.13 C 680.56 450.68, 678.80 450.48, 675.77 450.26 C 672.75 450.04, 670.80 449.99, 667.84 450.05 C 664.89 450.10, 663.40 450.15, 661.01 450.53 C 658.63 450.91, 657.46 451.26, 655.90 451.95 C 654.34 452.64, 653.89 453.21, 653.21 453.98 C 652.53 454.75, 652.50 455.34, 652.50 455.80 C 652.50 456.26, 652.85 456.38, 653.22 456.28" style="stroke: white; fill: white;"/></svg>