<svg xmlns="http://www.w3.org/2000/svg" id="canvas" viewBox="152.848 394.717 559.374 94.911"><path d="M 178.17,398.46 C 177.75 399.17, 177.63 400.20, 177.07 402.12 C 176.51 404.05, 176.35 405.25, 175.36 408.08 C 174.36 410.92, 173.43 412.78, 172.10 416.29 C 170.77 419.79, 170.16 421.88, 168.71 425.60 C 167.27 429.33, 166.42 431.11, 164.87 434.90 C 163.32 438.69, 162.37 440.88, 160.96 444.55 C 159.55 448.22, 158.78 450.07, 157.82 453.25 C 156.86 456.44, 156.52 457.92, 156.17 460.49 C 155.82 463.06, 155.70 464.12, 156.09 466.12 C 156.47 468.12, 156.79 469.08, 158.11 470.51 C 159.42 471.93, 160.41 472.51, 162.67 473.25 C 164.94 473.98, 166.28 474.11, 169.44 474.19 C 172.59 474.26, 174.61 474.08, 178.44 473.62 C 182.28 473.16, 184.65 472.65, 188.62 471.88 C 192.59 471.12, 194.69 470.57, 198.31 469.79 C 201.93 469.01, 203.79 468.67, 206.72 467.98 C 209.65 467.29, 210.98 466.95, 212.94 466.35 C 214.90 465.76, 215.49 465.40, 216.53 465.01 C 217.58 464.61, 217.77 464.67, 218.17 464.36 C 218.58 464.05, 218.52 463.71, 218.55 463.46 C 218.59 463.21, 218.43 463.17, 218.34 463.13 C 218.24 463.09, 218.13 463.22, 218.07 463.25 C 218.00 463.27, 218.07 463.24, 218.01 463.27 C 217.94 463.29, 218.13 463.35, 217.75 463.38 C 217.37 463.41, 217.17 463.24, 216.10 463.42 C 215.02 463.60, 214.37 463.83, 212.39 464.30 C 210.40 464.77, 209.10 465.07, 206.19 465.77 C 203.29 466.48, 201.46 467.00, 197.87 467.83 C 194.28 468.66, 192.18 469.19, 188.25 469.91 C 184.32 470.63, 181.96 471.09, 178.21 471.43 C 174.46 471.78, 172.48 471.73, 169.51 471.64 C 166.53 471.55, 165.33 471.48, 163.33 470.98 C 161.32 470.49, 160.56 470.20, 159.49 469.17 C 158.42 468.13, 158.20 467.48, 157.97 465.80 C 157.74 464.13, 157.95 463.19, 158.32 460.80 C 158.69 458.41, 158.95 456.96, 159.83 453.84 C 160.71 450.72, 161.38 448.86, 162.73 445.21 C 164.07 441.56, 165.00 439.37, 166.56 435.59 C 168.11 431.81, 168.99 430.02, 170.51 426.32 C 172.04 422.63, 172.72 420.60, 174.19 417.13 C 175.67 413.66, 176.88 411.88, 177.90 408.97 C 178.91 406.06, 179.01 404.65, 179.27 402.58 C 179.53 400.50, 179.42 399.43, 179.20 398.60 C 178.98 397.78, 178.60 397.76, 178.17 398.46" style="stroke: white; fill: white;"/><path d="M 266.26,405.46 C 265.73 405.97, 265.29 406.62, 264.52 408.37 C 263.75 410.11, 263.40 411.23, 262.41 414.17 C 261.42 417.12, 260.98 419.25, 259.57 423.08 C 258.17 426.92, 257.31 429.23, 255.39 433.36 C 253.48 437.49, 252.12 439.73, 249.99 443.72 C 247.86 447.72, 246.71 449.83, 244.75 453.34 C 242.79 456.85, 241.79 458.56, 240.17 461.27 C 238.55 463.99, 237.74 465.12, 236.64 466.92 C 235.53 468.71, 235.14 469.52, 234.63 470.24 C 234.13 470.96, 234.06 471.18, 234.09 470.52 C 234.13 469.86, 234.41 469.05, 234.81 466.94 C 235.21 464.82, 235.46 463.12, 236.09 459.94 C 236.73 456.77, 237.02 454.75, 237.97 451.06 C 238.91 447.36, 239.55 445.22, 240.82 441.47 C 242.09 437.71, 242.88 435.78, 244.31 432.27 C 245.75 428.75, 246.44 427.09, 248.00 423.91 C 249.56 420.74, 250.37 419.19, 252.12 416.40 C 253.86 413.61, 254.78 412.29, 256.70 409.98 C 258.62 407.67, 259.70 406.53, 261.70 404.84 C 263.71 403.15, 264.82 402.49, 266.73 401.52 C 268.64 400.56, 269.55 400.26, 271.24 400.01 C 272.93 399.75, 273.72 399.77, 275.20 400.25 C 276.68 400.74, 277.42 401.33, 278.63 402.44 C 279.85 403.55, 280.56 404.33, 281.28 405.80 C 282.00 407.28, 282.18 408.05, 282.24 409.81 C 282.29 411.57, 282.09 412.53, 281.54 414.60 C 280.99 416.67, 280.59 417.89, 279.47 420.15 C 278.35 422.40, 277.51 423.61, 275.94 425.88 C 274.37 428.16, 273.43 429.39, 271.62 431.52 C 269.80 433.64, 268.81 434.74, 266.86 436.50 C 264.91 438.26, 263.82 438.92, 261.87 440.32 C 259.91 441.71, 258.81 442.30, 257.07 443.46 C 255.32 444.63, 254.51 445.15, 253.13 446.14 C 251.76 447.14, 251.09 447.48, 250.17 448.43 C 249.25 449.38, 248.96 449.86, 248.52 450.88 C 248.08 451.91, 248.03 452.39, 247.97 453.55 C 247.92 454.71, 247.83 455.40, 248.24 456.66 C 248.65 457.92, 249.10 458.68, 250.01 459.84 C 250.91 461.00, 251.51 461.48, 252.77 462.46 C 254.04 463.45, 254.74 463.91, 256.35 464.75 C 257.96 465.59, 258.91 466.06, 260.82 466.67 C 262.74 467.28, 263.99 467.48, 265.92 467.81 C 267.84 468.14, 268.90 468.30, 270.45 468.32 C 272.00 468.33, 273.02 468.16, 273.67 467.88 C 274.33 467.61, 274.32 467.31, 273.73 466.95 C 273.15 466.60, 272.19 466.51, 270.74 466.13 C 269.29 465.74, 268.30 465.46, 266.48 465.03 C 264.66 464.60, 263.44 464.50, 261.65 463.97 C 259.87 463.44, 259.01 463.10, 257.55 462.38 C 256.09 461.67, 255.46 461.24, 254.37 460.40 C 253.28 459.56, 252.84 459.11, 252.10 458.19 C 251.36 457.26, 251.05 456.72, 250.66 455.78 C 250.27 454.85, 250.24 454.36, 250.16 453.52 C 250.08 452.68, 249.98 452.32, 250.26 451.60 C 250.53 450.87, 250.72 450.61, 251.55 449.89 C 252.39 449.18, 253.05 448.91, 254.42 448.02 C 255.78 447.14, 256.61 446.62, 258.39 445.48 C 260.16 444.34, 261.25 443.75, 263.28 442.33 C 265.32 440.92, 266.49 440.22, 268.55 438.40 C 270.61 436.58, 271.67 435.42, 273.59 433.23 C 275.51 431.03, 276.50 429.81, 278.16 427.43 C 279.83 425.05, 280.75 423.79, 281.93 421.35 C 283.10 418.90, 283.50 417.55, 284.04 415.22 C 284.59 412.89, 284.75 411.80, 284.64 409.71 C 284.53 407.61, 284.36 406.56, 283.48 404.73 C 282.61 402.91, 281.79 401.91, 280.27 400.60 C 278.74 399.28, 277.71 398.70, 275.85 398.16 C 273.98 397.62, 272.97 397.63, 270.95 397.89 C 268.92 398.16, 267.89 398.45, 265.73 399.47 C 263.57 400.49, 262.30 401.17, 260.14 402.99 C 257.99 404.81, 256.92 406.11, 254.97 408.57 C 253.01 411.04, 252.11 412.43, 250.37 415.33 C 248.63 418.23, 247.82 419.82, 246.26 423.07 C 244.70 426.31, 244.03 428.00, 242.57 431.55 C 241.12 435.11, 240.33 437.05, 238.98 440.83 C 237.64 444.61, 236.97 446.76, 235.86 450.47 C 234.74 454.17, 234.13 456.12, 233.38 459.36 C 232.63 462.59, 232.17 464.33, 232.10 466.65 C 232.03 468.97, 232.37 470.03, 233.03 470.94 C 233.70 471.86, 234.37 471.79, 235.44 471.22 C 236.51 470.65, 237.07 469.87, 238.38 468.09 C 239.68 466.31, 240.37 465.10, 241.96 462.32 C 243.55 459.54, 244.41 457.75, 246.31 454.19 C 248.21 450.63, 249.34 448.53, 251.48 444.51 C 253.62 440.50, 254.99 438.26, 257.01 434.13 C 259.02 430.00, 259.96 427.67, 261.55 423.85 C 263.13 420.03, 263.92 417.98, 264.92 415.02 C 265.93 412.06, 266.11 410.90, 266.56 409.06 C 267.01 407.22, 267.23 406.53, 267.17 405.81 C 267.11 405.09, 266.79 404.95, 266.26 405.46" style="stroke: white; fill: white;"/><path d="M 310.92,413.21 C 310.45 413.43, 310.21 413.64, 309.38 414.73 C 308.54 415.81, 307.90 416.57, 306.73 418.63 C 305.57 420.69, 304.85 422.21, 303.56 425.05 C 302.27 427.89, 301.66 429.57, 300.28 432.83 C 298.91 436.10, 298.03 438.00, 296.67 441.38 C 295.32 444.76, 294.56 446.43, 293.50 449.72 C 292.44 453.00, 291.83 454.73, 291.39 457.79 C 290.95 460.86, 290.94 462.51, 291.31 465.03 C 291.68 467.55, 292.12 468.68, 293.23 470.40 C 294.35 472.13, 295.18 472.72, 296.90 473.66 C 298.63 474.59, 299.66 474.92, 301.86 475.09 C 304.06 475.26, 305.39 475.07, 307.89 474.50 C 310.39 473.94, 311.71 473.50, 314.35 472.27 C 316.99 471.04, 318.26 470.28, 321.09 468.36 C 323.92 466.43, 325.53 465.20, 328.51 462.65 C 331.49 460.10, 333.09 458.59, 335.99 455.61 C 338.88 452.63, 340.34 450.89, 342.97 447.76 C 345.60 444.63, 346.96 442.88, 349.13 439.95 C 351.31 437.01, 352.57 435.37, 353.85 433.09 C 355.13 430.81, 355.35 429.70, 355.53 428.54 C 355.71 427.38, 355.31 427.12, 354.78 427.28 C 354.24 427.43, 353.05 428.76, 352.86 429.32 C 352.68 429.87, 353.40 430.38, 353.87 430.07 C 354.34 429.76, 355.12 428.17, 355.21 427.76 C 355.31 427.35, 355.02 427.20, 354.34 428.02 C 353.66 428.84, 353.17 429.71, 351.80 431.86 C 350.43 434.01, 349.53 435.82, 347.48 438.76 C 345.43 441.70, 344.12 443.47, 341.55 446.58 C 338.98 449.69, 337.52 451.39, 334.65 454.30 C 331.78 457.21, 330.17 458.68, 327.22 461.11 C 324.26 463.55, 322.65 464.72, 319.86 466.48 C 317.07 468.23, 315.80 468.80, 313.28 469.89 C 310.76 470.97, 309.54 471.35, 307.28 471.91 C 305.02 472.46, 303.86 472.68, 301.97 472.66 C 300.08 472.64, 299.25 472.48, 297.84 471.82 C 296.43 471.16, 295.78 470.76, 294.92 469.34 C 294.06 467.93, 293.80 466.98, 293.55 464.74 C 293.30 462.49, 293.28 460.99, 293.67 458.11 C 294.06 455.24, 294.53 453.54, 295.53 450.36 C 296.52 447.17, 297.26 445.50, 298.63 442.18 C 300.01 438.86, 300.90 436.96, 302.39 433.77 C 303.88 430.59, 304.68 429.02, 306.09 426.27 C 307.50 423.53, 308.41 422.16, 309.44 420.06 C 310.47 417.95, 310.80 417.03, 311.26 415.75 C 311.71 414.46, 311.77 414.14, 311.70 413.63 C 311.63 413.12, 311.38 412.99, 310.92 413.21" style="stroke: white; fill: white;"/><path d="M 486.80,413.84 C 486.37 413.29, 485.57 412.70, 484.20 412.13 C 482.83 411.56, 482.10 411.08, 479.96 411.00 C 477.81 410.92, 476.21 410.92, 473.47 411.73 C 470.72 412.54, 469.44 413.43, 466.23 415.06 C 463.03 416.70, 461.13 417.57, 457.43 419.90 C 453.73 422.22, 451.58 423.76, 447.75 426.69 C 443.91 429.63, 441.91 431.35, 438.26 434.57 C 434.60 437.80, 432.62 439.57, 429.47 442.82 C 426.31 446.07, 424.76 447.80, 422.48 450.81 C 420.21 453.83, 419.29 455.21, 418.10 457.89 C 416.92 460.56, 416.56 461.80, 416.56 464.19 C 416.55 466.58, 416.83 467.87, 418.07 469.83 C 419.30 471.79, 420.39 472.68, 422.73 473.99 C 425.06 475.30, 426.53 475.69, 429.76 476.38 C 432.99 477.07, 434.93 477.30, 438.87 477.44 C 442.81 477.58, 445.36 477.31, 449.46 477.09 C 453.57 476.86, 456.05 476.75, 459.39 476.30 C 462.73 475.86, 464.83 475.35, 466.16 474.87 C 467.49 474.40, 467.42 474.03, 466.03 473.93 C 464.64 473.83, 462.53 474.14, 459.20 474.36 C 455.86 474.59, 453.40 474.85, 449.36 475.05 C 445.31 475.25, 442.78 475.54, 438.96 475.35 C 435.15 475.16, 433.29 474.77, 430.27 474.08 C 427.25 473.38, 425.96 472.95, 423.86 471.88 C 421.76 470.80, 420.85 470.23, 419.78 468.70 C 418.70 467.17, 418.44 466.21, 418.50 464.21 C 418.55 462.22, 418.94 461.20, 420.03 458.74 C 421.12 456.27, 421.82 454.84, 423.94 451.88 C 426.06 448.92, 427.56 447.17, 430.64 443.94 C 433.71 440.71, 435.67 438.94, 439.29 435.75 C 442.91 432.56, 444.92 430.86, 448.74 428.00 C 452.56 425.15, 454.70 423.66, 458.39 421.47 C 462.08 419.29, 464.03 418.48, 467.19 417.08 C 470.36 415.67, 471.69 415.13, 474.24 414.44 C 476.78 413.76, 478.07 413.70, 479.93 413.66 C 481.80 413.61, 482.28 413.97, 483.56 414.22 C 484.84 414.46, 485.70 414.95, 486.34 414.87 C 486.99 414.80, 487.23 414.39, 486.80 413.84" style="stroke: white; fill: white;"/><path d="M 523.55,455.06 C 523.43 454.56, 523.03 454.11, 522.30 453.49 C 521.57 452.87, 521.07 452.42, 519.90 451.97 C 518.73 451.51, 517.98 451.36, 516.43 451.22 C 514.88 451.08, 514.02 450.93, 512.16 451.27 C 510.29 451.61, 509.24 451.96, 507.09 452.93 C 504.93 453.90, 503.72 454.59, 501.38 456.12 C 499.04 457.65, 497.70 458.57, 495.39 460.57 C 493.09 462.58, 491.82 463.93, 489.86 466.15 C 487.89 468.37, 486.88 469.63, 485.56 471.68 C 484.24 473.72, 483.79 474.60, 483.25 476.35 C 482.70 478.10, 482.56 479.04, 482.85 480.43 C 483.14 481.81, 483.48 482.52, 484.68 483.26 C 485.88 484.01, 486.91 484.19, 488.84 484.14 C 490.76 484.09, 491.94 483.85, 494.31 483.01 C 496.67 482.17, 497.93 481.43, 500.66 479.96 C 503.39 478.48, 505.11 477.56, 507.95 475.65 C 510.80 473.73, 512.33 472.59, 514.88 470.39 C 517.44 468.19, 518.62 466.87, 520.74 464.66 C 522.85 462.45, 524.00 461.26, 525.47 459.33 C 526.94 457.40, 527.59 456.20, 528.09 455.01 C 528.59 453.82, 528.47 453.42, 527.99 453.38 C 527.52 453.34, 526.82 453.67, 525.71 454.80 C 524.60 455.93, 523.75 456.88, 522.46 459.01 C 521.17 461.14, 520.46 462.82, 519.25 465.46 C 518.04 468.09, 517.27 469.69, 516.40 472.19 C 515.53 474.69, 515.19 475.88, 514.89 477.95 C 514.58 480.01, 514.71 481.01, 514.87 482.52 C 515.03 484.02, 515.28 484.68, 515.70 485.48 C 516.11 486.27, 516.51 486.29, 516.93 486.50 C 517.34 486.71, 517.58 486.62, 517.78 486.52 C 517.97 486.43, 517.95 486.18, 517.91 486.02 C 517.86 485.86, 517.66 485.95, 517.54 485.73 C 517.41 485.51, 517.39 485.58, 517.28 484.91 C 517.16 484.24, 516.99 483.69, 516.97 482.38 C 516.95 481.07, 516.76 480.20, 517.16 478.36 C 517.56 476.52, 517.97 475.49, 518.97 473.19 C 519.96 470.89, 520.85 469.36, 522.13 466.85 C 523.41 464.34, 524.29 462.80, 525.38 460.64 C 526.48 458.49, 527.04 457.48, 527.62 456.07 C 528.20 454.66, 528.44 454.02, 528.27 453.61 C 528.10 453.20, 527.70 453.21, 526.75 454.04 C 525.80 454.86, 525.06 455.94, 523.50 457.74 C 521.95 459.53, 521.02 460.84, 518.99 463.02 C 516.97 465.21, 515.87 466.54, 513.40 468.67 C 510.93 470.79, 509.44 471.87, 506.65 473.65 C 503.85 475.43, 502.08 476.22, 499.41 477.56 C 496.75 478.89, 495.49 479.52, 493.33 480.33 C 491.17 481.15, 490.18 481.36, 488.61 481.63 C 487.04 481.90, 486.31 481.97, 485.49 481.68 C 484.68 481.39, 484.59 481.10, 484.53 480.17 C 484.47 479.25, 484.59 478.48, 485.20 477.06 C 485.81 475.63, 486.24 474.88, 487.57 473.05 C 488.90 471.23, 489.93 470.02, 491.84 467.93 C 493.76 465.84, 494.92 464.48, 497.13 462.60 C 499.35 460.71, 500.70 459.94, 502.93 458.51 C 505.15 457.07, 506.31 456.37, 508.25 455.44 C 510.20 454.51, 511.06 454.17, 512.64 453.86 C 514.23 453.55, 514.90 453.78, 516.17 453.91 C 517.44 454.04, 518.01 454.18, 518.99 454.50 C 519.97 454.82, 520.29 455.21, 521.08 455.51 C 521.87 455.81, 522.44 456.08, 522.94 456.00 C 523.43 455.91, 523.68 455.56, 523.55 455.06" style="stroke: white; fill: white;"/><path d="M 576.45,453.84 C 576.12 453.39, 575.61 452.92, 574.50 452.60 C 573.39 452.28, 572.61 452.12, 570.91 452.25 C 569.21 452.39, 568.27 452.46, 566.00 453.29 C 563.73 454.11, 562.27 454.84, 559.57 456.38 C 556.87 457.92, 555.35 458.97, 552.51 461.00 C 549.67 463.04, 547.93 464.34, 545.35 466.54 C 542.78 468.75, 541.38 469.85, 539.62 472.04 C 537.86 474.23, 537.11 475.50, 536.57 477.50 C 536.03 479.50, 536.06 480.52, 536.92 482.03 C 537.79 483.54, 538.76 484.27, 540.91 485.04 C 543.05 485.81, 544.57 485.95, 547.65 485.90 C 550.73 485.84, 552.44 485.66, 556.31 484.77 C 560.18 483.89, 562.90 482.88, 567.01 481.45 C 571.12 480.03, 573.51 479.11, 576.86 477.65 C 580.21 476.19, 582.47 475.04, 583.78 474.16 C 585.08 473.27, 584.90 472.89, 583.38 473.24 C 581.86 473.59, 579.56 474.65, 576.16 475.92 C 572.76 477.18, 570.43 478.21, 566.37 479.56 C 562.31 480.91, 559.61 481.91, 555.86 482.66 C 552.10 483.41, 550.47 483.27, 547.61 483.31 C 544.75 483.35, 543.42 483.28, 541.56 482.85 C 539.70 482.43, 538.94 482.14, 538.30 481.19 C 537.67 480.24, 537.74 479.62, 538.38 478.11 C 539.02 476.59, 539.81 475.57, 541.51 473.61 C 543.21 471.65, 544.40 470.45, 546.88 468.32 C 549.35 466.20, 551.09 464.89, 553.89 462.98 C 556.70 461.08, 558.28 460.19, 560.90 458.79 C 563.52 457.39, 564.95 456.78, 567.01 456.00 C 569.08 455.21, 569.80 455.10, 571.23 454.86 C 572.66 454.61, 573.19 454.78, 574.17 454.78 C 575.15 454.78, 575.66 455.03, 576.11 454.84 C 576.57 454.66, 576.77 454.29, 576.45 453.84" style="stroke: white; fill: white;"/><path d="M 618.27,422.10 C 617.74 422.46, 617.43 422.93, 616.50 424.33 C 615.57 425.73, 614.86 426.76, 613.62 429.08 C 612.37 431.41, 611.75 432.96, 610.28 435.95 C 608.81 438.95, 607.92 440.88, 606.25 444.06 C 604.57 447.24, 603.66 448.80, 601.90 451.86 C 600.14 454.91, 599.08 456.56, 597.45 459.33 C 595.82 462.10, 594.91 463.48, 593.74 465.71 C 592.56 467.93, 591.94 468.98, 591.59 470.45 C 591.23 471.92, 591.42 472.49, 591.94 473.06 C 592.46 473.63, 592.97 473.64, 594.18 473.30 C 595.40 472.96, 596.24 472.53, 598.01 471.37 C 599.78 470.21, 600.79 469.26, 603.03 467.50 C 605.28 465.74, 606.58 464.46, 609.24 462.56 C 611.90 460.66, 613.52 459.65, 616.33 458.00 C 619.14 456.35, 620.73 455.57, 623.31 454.32 C 625.88 453.07, 627.27 452.49, 629.22 451.75 C 631.17 451.00, 631.95 450.74, 633.07 450.61 C 634.20 450.47, 634.54 450.53, 634.85 451.06 C 635.15 451.60, 635.06 452.00, 634.61 453.29 C 634.16 454.57, 633.51 455.60, 632.59 457.50 C 631.68 459.39, 631.07 460.66, 630.03 462.77 C 628.99 464.88, 628.35 465.99, 627.38 468.04 C 626.40 470.09, 625.71 471.35, 625.15 473.04 C 624.60 474.73, 624.60 475.41, 624.60 476.49 C 624.60 477.56, 624.87 477.94, 625.14 478.44 C 625.41 478.93, 625.71 478.93, 625.94 478.97 C 626.17 479.02, 626.25 478.83, 626.29 478.66 C 626.34 478.50, 626.14 478.54, 626.16 478.15 C 626.18 477.76, 626.15 477.57, 626.40 476.72 C 626.65 475.88, 626.72 475.41, 627.42 473.93 C 628.11 472.45, 628.82 471.26, 629.88 469.30 C 630.93 467.35, 631.58 466.24, 632.69 464.13 C 633.81 462.02, 634.59 460.83, 635.43 458.75 C 636.27 456.66, 636.79 455.41, 636.90 453.71 C 637.00 452.02, 636.72 451.23, 635.96 450.27 C 635.20 449.31, 634.57 449.04, 633.08 448.90 C 631.58 448.76, 630.66 448.94, 628.49 449.57 C 626.32 450.20, 624.89 450.79, 622.22 452.07 C 619.55 453.35, 618.02 454.28, 615.14 455.96 C 612.26 457.64, 610.61 458.65, 607.82 460.47 C 605.02 462.28, 603.48 463.33, 601.16 465.03 C 598.84 466.73, 597.80 467.65, 596.22 468.98 C 594.65 470.31, 594.05 470.95, 593.30 471.69 C 592.55 472.42, 592.49 472.76, 592.48 472.64 C 592.47 472.53, 592.57 472.26, 593.25 471.11 C 593.93 469.96, 594.64 469.02, 595.87 466.89 C 597.11 464.76, 597.83 463.25, 599.41 460.45 C 600.98 457.66, 601.98 455.98, 603.74 452.91 C 605.50 449.84, 606.42 448.27, 608.19 445.11 C 609.96 441.96, 610.97 440.08, 612.58 437.15 C 614.20 434.22, 615.08 432.82, 616.27 430.46 C 617.45 428.09, 617.94 426.93, 618.51 425.34 C 619.08 423.75, 619.18 423.15, 619.13 422.50 C 619.08 421.85, 618.79 421.73, 618.27 422.10" style="stroke: white; fill: white;"/><path d="M 650.90,469.66 C 651.18 470.01, 651.41 470.31, 652.41 470.52 C 653.42 470.72, 654.32 470.84, 655.93 470.67 C 657.55 470.49, 658.44 470.23, 660.49 469.64 C 662.54 469.06, 663.81 468.65, 666.17 467.73 C 668.53 466.82, 669.94 466.20, 672.29 465.05 C 674.64 463.91, 675.75 463.24, 677.91 462.00 C 680.08 460.77, 681.26 460.13, 683.13 458.88 C 684.99 457.62, 685.99 457.02, 687.26 455.75 C 688.53 454.48, 689.05 453.79, 689.48 452.52 C 689.91 451.24, 690.01 450.50, 689.42 449.37 C 688.83 448.24, 688.22 447.49, 686.52 446.87 C 684.82 446.24, 683.52 445.97, 680.94 446.26 C 678.35 446.55, 676.74 447.16, 673.60 448.31 C 670.45 449.45, 668.56 450.31, 665.21 451.99 C 661.87 453.67, 659.89 454.73, 656.89 456.70 C 653.89 458.67, 652.18 459.71, 650.21 461.84 C 648.24 463.97, 647.49 465.12, 647.02 467.33 C 646.56 469.54, 646.87 470.83, 647.89 472.89 C 648.92 474.96, 649.94 476.02, 652.15 477.67 C 654.37 479.31, 655.79 480.02, 658.96 481.12 C 662.14 482.22, 664.03 482.64, 668.03 483.18 C 672.03 483.71, 674.33 483.70, 678.95 483.81 C 683.57 483.91, 686.64 483.81, 691.12 483.70 C 695.60 483.60, 697.94 483.53, 701.36 483.27 C 704.78 483.02, 706.86 482.77, 708.22 482.42 C 709.58 482.07, 709.55 481.71, 708.16 481.53 C 706.77 481.34, 704.70 481.44, 701.28 481.51 C 697.86 481.59, 695.53 481.80, 691.08 481.90 C 686.62 482.01, 683.55 482.16, 679.00 482.02 C 674.44 481.89, 672.16 481.86, 668.32 481.24 C 664.47 480.62, 662.70 480.05, 659.76 478.93 C 656.81 477.81, 655.62 477.05, 653.61 475.65 C 651.60 474.24, 650.64 473.50, 649.68 471.92 C 648.73 470.34, 648.38 469.44, 648.82 467.75 C 649.26 466.06, 650.03 465.30, 651.89 463.46 C 653.75 461.62, 655.25 460.44, 658.11 458.55 C 660.98 456.67, 662.94 455.58, 666.21 454.03 C 669.48 452.47, 671.43 451.75, 674.45 450.77 C 677.47 449.79, 679.01 449.45, 681.30 449.12 C 683.59 448.79, 684.55 448.90, 685.90 449.11 C 687.25 449.32, 687.65 449.65, 688.04 450.19 C 688.43 450.73, 688.33 451.04, 687.86 451.81 C 687.40 452.58, 686.94 453.06, 685.72 454.05 C 684.50 455.04, 683.57 455.62, 681.75 456.75 C 679.93 457.88, 678.77 458.56, 676.64 459.72 C 674.51 460.88, 673.41 461.49, 671.10 462.54 C 668.80 463.59, 667.41 464.13, 665.12 464.97 C 662.83 465.81, 661.59 466.19, 659.66 466.75 C 657.73 467.31, 656.92 467.45, 655.47 467.75 C 654.02 468.06, 653.31 468.08, 652.41 468.28 C 651.52 468.48, 651.31 468.50, 651.01 468.77 C 650.71 469.05, 650.62 469.31, 650.90 469.66" style="stroke: white; fill: white;"/></svg>