<svg xmlns="http://www.w3.org/2000/svg" id="canvas" viewBox="290.405 364.047 394.394 132.636"><path d="M 381.44,376.33 C 380.94 375.96, 380.42 375.74, 378.85 375.46 C 377.29 375.18, 376.23 374.82, 373.62 374.93 C 371.00 375.03, 369.34 375.20, 365.78 376.00 C 362.22 376.79, 360.15 377.37, 355.83 378.90 C 351.51 380.43, 348.64 381.42, 344.20 383.65 C 339.75 385.88, 337.42 387.38, 333.61 390.06 C 329.80 392.75, 327.80 394.16, 325.14 397.08 C 322.49 400.00, 321.42 401.63, 320.33 404.65 C 319.23 407.68, 319.13 409.31, 319.66 412.20 C 320.18 415.09, 321.07 416.44, 322.95 419.10 C 324.83 421.76, 326.30 422.99, 329.07 425.49 C 331.84 428.00, 333.59 429.20, 336.79 431.63 C 339.99 434.07, 341.87 435.20, 345.07 437.65 C 348.26 440.09, 350.03 441.36, 352.77 443.84 C 355.52 446.32, 356.92 447.74, 358.80 450.06 C 360.68 452.38, 361.41 453.39, 362.15 455.46 C 362.90 457.52, 362.99 458.42, 362.52 460.40 C 362.06 462.38, 361.50 463.29, 359.83 465.36 C 358.17 467.44, 357.04 468.51, 354.19 470.77 C 351.35 473.03, 349.58 474.35, 345.60 476.67 C 341.61 478.99, 339.09 480.23, 334.26 482.36 C 329.43 484.48, 326.43 485.69, 321.44 487.29 C 316.45 488.88, 313.64 489.42, 309.32 490.33 C 305.00 491.24, 302.86 491.36, 299.84 491.84 C 296.83 492.31, 295.34 492.38, 294.23 492.71 C 293.12 493.04, 293.12 493.32, 294.29 493.48 C 295.45 493.64, 296.99 493.83, 300.06 493.51 C 303.14 493.20, 305.29 492.88, 309.66 491.92 C 314.03 490.96, 316.85 490.34, 321.90 488.70 C 326.94 487.07, 329.96 485.87, 334.87 483.76 C 339.78 481.65, 342.33 480.44, 346.44 478.17 C 350.56 475.90, 352.39 474.67, 355.44 472.40 C 358.50 470.14, 359.90 469.16, 361.71 466.84 C 363.52 464.53, 364.02 463.22, 364.49 460.81 C 364.96 458.41, 364.86 457.22, 364.06 454.80 C 363.26 452.38, 362.47 451.19, 360.47 448.71 C 358.47 446.23, 356.92 444.90, 354.06 442.39 C 351.21 439.88, 349.42 438.62, 346.20 436.16 C 342.98 433.71, 341.11 432.54, 337.97 430.10 C 334.82 427.66, 333.12 426.42, 330.46 423.97 C 327.81 421.52, 326.45 420.29, 324.69 417.86 C 322.93 415.43, 322.18 414.32, 321.67 411.81 C 321.16 409.30, 321.19 408.01, 322.14 405.30 C 323.09 402.58, 323.94 401.02, 326.43 398.24 C 328.91 395.46, 330.84 394.01, 334.55 391.39 C 338.25 388.77, 340.56 387.28, 344.93 385.13 C 349.31 382.98, 352.16 382.02, 356.42 380.65 C 360.68 379.28, 362.76 378.85, 366.22 378.27 C 369.69 377.70, 371.25 377.91, 373.75 377.78 C 376.25 377.65, 377.21 377.71, 378.73 377.61 C 380.25 377.51, 380.80 377.54, 381.34 377.28 C 381.89 377.02, 381.94 376.69, 381.44 376.33" style="stroke: white; fill: white;"/><path d="M 421.81,367.72 C 421.72 368.47, 422.08 369.10, 422.28 371.19 C 422.48 373.27, 422.56 374.59, 422.80 378.14 C 423.04 381.70, 423.52 384.03, 423.49 388.96 C 423.47 393.89, 423.12 396.75, 422.67 402.80 C 422.22 408.84, 421.98 412.39, 421.26 419.19 C 420.53 425.99, 419.93 429.86, 419.04 436.80 C 418.16 443.74, 417.72 447.48, 416.84 453.89 C 415.95 460.30, 415.41 463.62, 414.62 468.84 C 413.83 474.06, 413.41 476.42, 412.88 480.00 C 412.35 483.57, 412.17 484.73, 411.95 486.70 C 411.73 488.68, 411.70 489.21, 411.77 489.87 C 411.85 490.52, 412.02 490.56, 412.33 489.97 C 412.63 489.38, 412.87 488.88, 413.31 486.93 C 413.75 484.99, 413.99 483.82, 414.51 480.24 C 415.03 476.65, 415.21 474.26, 415.90 469.02 C 416.59 463.78, 417.11 460.46, 417.96 454.04 C 418.81 447.63, 419.24 443.89, 420.13 436.94 C 421.02 429.99, 421.64 426.12, 422.41 419.31 C 423.18 412.51, 423.45 408.97, 424.00 402.91 C 424.56 396.85, 424.98 393.98, 425.19 389.00 C 425.40 384.02, 425.21 381.64, 425.05 378.01 C 424.89 374.39, 424.85 372.97, 424.39 370.86 C 423.92 368.74, 423.24 368.06, 422.73 367.43 C 422.21 366.81, 421.90 366.97, 421.81 367.72" style="stroke: white; fill: white;"/><path d="M 398.10,447.62 C 398.45 447.62, 398.30 447.37, 399.27 447.07 C 400.25 446.78, 400.81 446.68, 402.96 446.16 C 405.12 445.65, 406.63 445.07, 410.03 444.50 C 413.43 443.94, 416.00 443.80, 419.96 443.36 C 423.92 442.91, 426.45 442.73, 429.83 442.26 C 433.20 441.80, 435.45 441.48, 436.83 441.04 C 438.21 440.60, 438.17 440.22, 436.73 440.05 C 435.29 439.89, 433.02 440.02, 429.63 440.22 C 426.23 440.43, 423.73 440.75, 419.74 441.07 C 415.74 441.40, 413.15 441.40, 409.64 441.85 C 406.13 442.30, 404.43 442.62, 402.18 443.33 C 399.92 444.04, 399.30 444.66, 398.36 445.41 C 397.43 446.16, 397.56 446.63, 397.50 447.08 C 397.45 447.52, 397.74 447.62, 398.10 447.62" style="stroke: white; fill: white;"/><path d="M 507.04,438.13 C 506.70 437.50, 506.16 436.73, 504.74 435.86 C 503.32 434.99, 502.24 434.10, 499.94 433.77 C 497.64 433.44, 496.00 433.30, 493.25 434.21 C 490.49 435.12, 489.00 436.12, 486.18 438.31 C 483.36 440.51, 481.90 442.00, 479.16 445.17 C 476.43 448.33, 474.92 450.37, 472.51 454.14 C 470.10 457.91, 468.88 460.19, 467.12 464.03 C 465.35 467.86, 464.64 469.92, 463.67 473.31 C 462.69 476.69, 462.26 478.26, 462.25 480.97 C 462.24 483.68, 462.49 485.01, 463.61 486.86 C 464.74 488.71, 465.75 489.59, 467.85 490.21 C 469.96 490.84, 471.43 490.79, 474.16 489.99 C 476.88 489.18, 478.33 488.24, 481.49 486.18 C 484.64 484.13, 486.48 482.68, 489.93 479.70 C 493.37 476.71, 495.41 474.80, 498.71 471.24 C 502.01 467.69, 503.58 465.59, 506.42 461.93 C 509.26 458.27, 510.66 456.12, 512.90 452.93 C 515.14 449.75, 516.29 448.21, 517.64 446.01 C 518.99 443.81, 519.33 442.75, 519.64 441.94 C 519.95 441.14, 519.55 441.02, 519.19 441.97 C 518.83 442.93, 518.40 444.05, 517.85 446.72 C 517.30 449.40, 517.17 451.59, 516.45 455.34 C 515.73 459.09, 515.12 461.49, 514.25 465.48 C 513.39 469.47, 512.61 471.58, 512.12 475.31 C 511.63 479.03, 511.63 482.33, 511.79 484.11 C 511.95 485.88, 512.48 485.90, 512.92 484.20 C 513.35 482.49, 513.29 479.25, 513.96 475.60 C 514.63 471.95, 515.26 469.89, 516.26 465.95 C 517.25 462.01, 518.02 459.63, 518.93 455.88 C 519.83 452.12, 520.48 449.96, 520.77 447.18 C 521.07 444.40, 520.79 443.14, 520.42 441.97 C 520.04 440.79, 519.84 440.72, 518.91 441.28 C 517.98 441.85, 517.28 442.66, 515.78 444.78 C 514.27 446.90, 513.51 448.67, 511.38 451.90 C 509.25 455.13, 507.90 457.29, 505.12 460.93 C 502.35 464.57, 500.78 466.64, 497.51 470.12 C 494.23 473.59, 492.18 475.45, 488.74 478.30 C 485.31 481.15, 483.40 482.49, 480.34 484.36 C 477.27 486.23, 475.82 486.84, 473.42 487.63 C 471.02 488.43, 469.98 488.66, 468.34 488.32 C 466.69 487.99, 465.99 487.41, 465.19 485.95 C 464.39 484.48, 464.27 483.43, 464.34 481.01 C 464.42 478.58, 464.68 477.08, 465.56 473.83 C 466.44 470.59, 467.06 468.52, 468.76 464.78 C 470.45 461.03, 471.65 458.77, 474.02 455.11 C 476.39 451.44, 477.91 449.45, 480.61 446.45 C 483.32 443.45, 484.84 442.04, 487.53 440.11 C 490.22 438.19, 491.66 437.54, 494.07 436.81 C 496.48 436.08, 497.66 436.24, 499.59 436.47 C 501.52 436.69, 502.34 437.43, 503.72 437.94 C 505.09 438.44, 505.79 438.97, 506.46 439.01 C 507.13 439.04, 507.39 438.75, 507.04 438.13" style="stroke: white; fill: white;"/><path d="M 585.57,443.47 C 585.18 443.06, 584.74 442.58, 583.38 442.38 C 582.03 442.18, 581.02 441.89, 578.81 442.47 C 576.59 443.04, 575.04 443.62, 572.30 445.28 C 569.55 446.93, 567.97 448.18, 565.07 450.74 C 562.17 453.29, 560.36 454.88, 557.80 458.04 C 555.25 461.21, 553.86 463.17, 552.29 466.56 C 550.73 469.95, 550.16 471.79, 549.96 474.99 C 549.77 478.19, 550.17 479.85, 551.32 482.56 C 552.48 485.28, 553.42 486.64, 555.73 488.56 C 558.05 490.48, 559.65 491.23, 562.90 492.17 C 566.14 493.10, 568.40 493.19, 571.95 493.23 C 575.50 493.27, 577.68 492.99, 580.66 492.39 C 583.63 491.79, 585.65 490.85, 586.83 490.22 C 588.02 489.59, 587.89 489.24, 586.59 489.23 C 585.28 489.22, 583.22 489.82, 580.30 490.16 C 577.38 490.50, 575.33 490.96, 571.98 490.92 C 568.62 490.89, 566.47 490.81, 563.51 489.99 C 560.55 489.17, 559.21 488.46, 557.18 486.80 C 555.14 485.15, 554.35 484.04, 553.32 481.70 C 552.29 479.36, 551.88 477.97, 552.04 475.11 C 552.19 472.25, 552.64 470.56, 554.10 467.40 C 555.56 464.24, 556.88 462.31, 559.36 459.32 C 561.84 456.32, 563.65 454.76, 566.51 452.43 C 569.37 450.10, 571.06 449.11, 573.68 447.66 C 576.30 446.21, 577.67 445.83, 579.61 445.19 C 581.54 444.54, 582.20 444.61, 583.35 444.45 C 584.50 444.29, 584.90 444.60, 585.34 444.40 C 585.79 444.20, 585.97 443.87, 585.57 443.47" style="stroke: white; fill: white;"/><path d="M 644.15,389.93 C 643.60 390.76, 642.97 391.80, 642.33 394.35 C 641.69 396.89, 641.58 398.73, 640.94 402.67 C 640.29 406.61, 639.95 409.22, 639.10 414.06 C 638.26 418.89, 637.66 421.64, 636.71 426.85 C 635.77 432.06, 635.29 434.94, 634.39 440.10 C 633.48 445.26, 632.87 447.82, 632.17 452.65 C 631.47 457.48, 631.26 459.97, 630.88 464.25 C 630.50 468.54, 630.34 470.65, 630.27 474.08 C 630.20 477.51, 630.32 479.07, 630.54 481.42 C 630.75 483.76, 631.02 484.93, 631.34 485.80 C 631.65 486.67, 631.92 486.64, 632.11 485.75 C 632.31 484.86, 632.30 483.67, 632.32 481.34 C 632.34 479.01, 632.16 477.50, 632.20 474.11 C 632.23 470.71, 632.20 468.63, 632.49 464.38 C 632.77 460.13, 632.96 457.66, 633.62 452.86 C 634.27 448.05, 634.87 445.49, 635.78 440.35 C 636.69 435.20, 637.18 432.32, 638.18 427.13 C 639.19 421.93, 639.84 419.19, 640.80 414.38 C 641.77 409.56, 642.25 406.95, 642.99 403.03 C 643.74 399.12, 644.11 397.37, 644.54 394.81 C 644.96 392.24, 645.19 391.16, 645.12 390.19 C 645.04 389.21, 644.71 389.10, 644.15 389.93" style="stroke: white; fill: white;"/><path d="M 681.05,430.64 C 680.13 430.53, 678.91 430.56, 676.72 431.10 C 674.54 431.63, 673.17 432.09, 670.12 433.31 C 667.08 434.54, 664.92 435.44, 661.50 437.23 C 658.08 439.02, 656.32 440.23, 653.03 442.25 C 649.74 444.27, 647.94 445.29, 645.05 447.33 C 642.16 449.37, 640.56 450.39, 638.58 452.45 C 636.60 454.52, 635.68 455.57, 635.16 457.66 C 634.63 459.75, 634.92 460.90, 635.97 462.91 C 637.03 464.92, 637.89 465.83, 640.41 467.71 C 642.94 469.58, 645.24 470.63, 648.62 472.28 C 651.99 473.93, 654.25 474.81, 657.28 475.97 C 660.30 477.14, 661.58 477.46, 663.74 478.10 C 665.89 478.73, 667.12 479.10, 668.04 479.16 C 668.96 479.21, 669.06 478.96, 668.33 478.39 C 667.61 477.83, 666.43 477.26, 664.41 476.32 C 662.38 475.38, 661.15 474.93, 658.20 473.68 C 655.26 472.43, 652.97 471.68, 649.70 470.08 C 646.43 468.47, 644.29 467.27, 641.88 465.64 C 639.46 464.02, 638.62 463.44, 637.62 461.94 C 636.62 460.45, 636.34 459.72, 636.86 458.15 C 637.38 456.57, 638.34 455.90, 640.22 454.08 C 642.10 452.25, 643.49 451.05, 646.27 449.03 C 649.04 447.01, 650.84 445.95, 654.09 443.99 C 657.34 442.03, 659.11 440.88, 662.51 439.22 C 665.90 437.56, 668.10 436.89, 671.08 435.69 C 674.06 434.50, 675.36 434.06, 677.41 433.26 C 679.45 432.45, 680.58 432.18, 681.30 431.66 C 682.03 431.13, 681.97 430.75, 681.05 430.64" style="stroke: white; fill: white;"/></svg>